<?xml version="1.0" standalone="no"?>
<!DOCTYPE svg PUBLIC "-//W3C//DTD SVG 1.1//EN" "http://www.w3.org/Graphics/SVG/1.1/DTD/svg11.dtd">
<svg width="100%" height="100%" viewBox="0 0 160 120" version="1.1" xmlns="http://www.w3.org/2000/svg" xmlns:xlink="http://www.w3.org/1999/xlink" xml:space="preserve" style="fill-rule:evenodd;clip-rule:evenodd;stroke-linejoin:round;stroke-miterlimit:1.41421;">
    <g transform="matrix(1.03014,0,0,1.03014,-0.704617,-3.33958)">
        <g id="Layer3">
            <g>
                <path d="M26.925,11.334C25.891,12.398 24.839,12.895 24.488,14.163C23.569,17.483 26.552,21.645 25.032,24.698C24.076,26.619 23.067,28.692 23.466,30.945C24.138,34.749 25.423,99.64 26.055,105.408C26.195,106.69 26.099,108.03 26.099,109.326C26.099,109.756 25.527,110.291 25.837,110.588C26.31,111.04 29.554,110.61 30.472,110.61C35.09,110.61 128.05,110.563 130.789,109.761C131.298,109.612 132.593,109.551 132.965,109.195C133.395,108.783 132.621,107.87 132.398,107.628C131.22,106.348 129.473,106.016 128.025,105.146C125.287,103.501 120.685,98.865 120.106,95.591C120.057,95.31 119.745,92.749 119.78,92.74C121.455,92.326 123.102,93.054 122.325,90.215C122.016,89.085 120.49,88.378 119.715,87.603C117.898,85.785 116.267,83.945 115.124,81.552C112.721,76.519 109.953,71.359 108.185,66.055C107.125,62.875 106.931,59.04 105.139,56.15C101.19,49.783 94.965,45.398 93.216,37.519C92.953,36.336 92.737,35.149 92.302,34.015C91.809,32.731 92.318,28.737 94.348,30.771C95.454,31.88 95.975,33.693 96.632,35.081C97.956,37.881 99.914,40.158 100.896,43.199C101.506,45.092 101.603,47.371 102.811,49.033C103.343,49.767 107.491,53.734 108.706,52.646C110.999,50.594 110.136,45.314 110.621,42.568C110.941,40.757 111.369,38.575 112.317,36.996C112.891,36.041 114.823,35.548 115.081,34.493C115.361,33.349 114.372,32.537 113.928,31.576C113.279,30.172 111.14,21.08 110.186,18.06C109.828,16.928 109.453,14.074 108.488,15.622C107.681,16.916 103.415,18.533 101.983,17.82C100.978,17.32 100.842,15.767 99.568,15.447C98.224,15.11 98.022,16.101 97.089,16.558C96.329,16.929 94.657,16.854 93.781,16.71C90.501,16.169 89.04,12.378 85.515,12.03C84.59,11.939 84.944,12.448 84.361,13.031C84.088,13.305 82.594,12.39 82.207,12.335C80.993,12.163 79.356,12.815 78.53,13.641C78.302,13.869 76.762,13.663 76.464,13.663C74.777,13.663 73.192,13.392 71.699,14.359C69.263,15.938 66.911,19.52 64.02,20.171C62.939,20.414 62.568,18.683 61.67,18.451C60.733,18.209 59.596,18.602 58.624,18.495C57.863,18.411 57.101,17.356 56.383,17.102C55.229,16.693 53.706,16.928 52.488,16.928C50.141,16.928 49.211,15.477 47.92,14.186C47.783,14.049 46.122,15.363 45.461,15.143C42.602,14.19 39.625,12.635 36.563,11.878C34.559,11.383 31.027,12.149 29.623,13.554C28.379,14.798 27.253,11.156 28.078,11.573" style="fill:rgb(38,142,105);"/>
                <path d="M35.453,10.518L35.585,10.524L35.716,10.531L35.846,10.541L35.975,10.552L36.104,10.566L36.231,10.582L36.358,10.601L36.483,10.622L36.608,10.645L36.732,10.671L36.85,10.699L37.007,10.738L37.159,10.778L37.311,10.818L37.463,10.86L37.614,10.903L37.764,10.946L37.914,10.991L38.064,11.037L38.213,11.083L38.362,11.13L38.511,11.178L38.659,11.227L38.807,11.277L38.956,11.327L39.248,11.429L39.54,11.534L39.831,11.641L40.12,11.75L40.408,11.861L40.694,11.972L40.979,12.085L41.263,12.198L41.545,12.312L42.103,12.54L42.657,12.768L43.205,12.992L43.476,13.102L43.746,13.21L44.014,13.317L44.281,13.421L44.546,13.524L44.809,13.623L45.07,13.72L45.33,13.814L45.59,13.905L45.671,13.933L45.695,13.925L45.722,13.914L45.752,13.903L45.784,13.89L45.814,13.877L45.889,13.844L45.966,13.808L46.046,13.768L46.129,13.725L46.215,13.68L46.302,13.633L46.389,13.584L46.477,13.534L46.653,13.433L46.823,13.336L46.909,13.288L46.993,13.241L47.079,13.196L47.168,13.15L47.258,13.108L47.318,13.083L47.377,13.06L47.446,13.035L47.527,13.011L47.627,12.987L47.691,12.977L47.824,12.964L47.838,12.963L48.025,12.97L48.037,12.971L48.167,12.993L48.294,13.028L48.304,13.032L48.423,13.079L48.536,13.139L48.54,13.142L48.699,13.255L48.703,13.258L48.783,13.333L48.907,13.458L49.033,13.588L49.155,13.716L49.274,13.842L49.503,14.086L49.614,14.203L49.723,14.317L49.829,14.427L49.935,14.533L50.04,14.637L50.09,14.685L50.141,14.733L50.192,14.78L50.243,14.826L50.293,14.87L50.344,14.914L50.394,14.956L50.444,14.997L50.494,15.037L50.544,15.076L50.594,15.113L50.644,15.149L50.694,15.185L50.744,15.218L50.794,15.251L50.844,15.283L50.895,15.313L50.946,15.342L50.997,15.371L51.049,15.398L51.102,15.424L51.154,15.449L51.208,15.473L51.262,15.495L51.318,15.517L51.374,15.538L51.431,15.558L51.49,15.576L51.55,15.594L51.611,15.611L51.673,15.626L51.738,15.641L51.803,15.654L51.871,15.666L51.941,15.677L52.012,15.686L52.086,15.695L52.162,15.702L52.24,15.707L52.32,15.711L52.403,15.713L52.491,15.714L52.59,15.714L52.695,15.712L52.804,15.709L52.914,15.706L53.149,15.696L53.392,15.685L53.645,15.673L53.904,15.662L54.038,15.658L54.172,15.653L54.308,15.65L54.446,15.648L54.585,15.647L54.726,15.648L54.867,15.65L55.01,15.654L55.154,15.661L55.299,15.67L55.445,15.681L55.591,15.696L55.735,15.713L55.813,15.724L55.887,15.735L55.961,15.747L56.036,15.76L56.111,15.774L56.186,15.79L56.261,15.806L56.336,15.824L56.411,15.843L56.487,15.863L56.562,15.884L56.637,15.907L56.713,15.932L56.791,15.959L56.855,15.983L56.92,16.009L56.983,16.036L57.043,16.064L57.102,16.093L57.159,16.123L57.214,16.153L57.272,16.187L57.37,16.246L57.467,16.31L57.56,16.374L57.649,16.438L57.734,16.502L57.816,16.566L57.896,16.629L57.973,16.691L58.116,16.809L58.254,16.922L58.318,16.974L58.38,17.023L58.438,17.069L58.494,17.111L58.547,17.15L58.596,17.184L58.641,17.214L58.681,17.239L58.721,17.262L58.731,17.268L58.745,17.275L58.757,17.281L58.767,17.286L58.78,17.291L58.806,17.294L58.868,17.298L58.93,17.3L58.996,17.3L59.065,17.3L59.138,17.297L59.214,17.294L59.294,17.289L59.377,17.282L59.461,17.275L59.644,17.257L60.036,17.215L60.243,17.195L60.353,17.185L60.464,17.177L60.577,17.169L60.693,17.163L60.81,17.159L60.93,17.157L61.053,17.158L61.178,17.162L61.305,17.169L61.43,17.18L61.5,17.188L61.566,17.197L61.633,17.206L61.7,17.217L61.768,17.23L61.836,17.244L61.905,17.259L61.983,17.279L62.076,17.305L62.176,17.339L62.271,17.378L62.362,17.419L62.448,17.463L62.53,17.51L62.608,17.559L62.682,17.609L62.752,17.66L62.818,17.712L62.881,17.764L62.941,17.816L62.998,17.869L63.051,17.921L63.103,17.973L63.152,18.025L63.199,18.076L63.246,18.13L63.328,18.225L63.406,18.322L63.48,18.415L63.611,18.586L63.672,18.665L63.728,18.737L63.781,18.803L63.829,18.861L63.876,18.914L63.893,18.933L63.907,18.948L63.951,18.936L64.001,18.921L64.051,18.905L64.101,18.889L64.152,18.872L64.202,18.853L64.253,18.834L64.304,18.814L64.355,18.793L64.406,18.772L64.458,18.749L64.51,18.726L64.562,18.702L64.614,18.677L64.666,18.651L64.718,18.625L64.771,18.597L64.824,18.569L64.877,18.54L64.93,18.51L64.981,18.481L65.09,18.416L65.198,18.349L65.306,18.279L65.415,18.207L65.524,18.131L65.634,18.053L65.744,17.972L65.854,17.889L65.965,17.803L66.076,17.715L66.187,17.625L66.299,17.532L66.411,17.437L66.523,17.341L66.635,17.242L66.748,17.142L66.861,17.041L66.974,16.938L67.087,16.833L67.2,16.728L67.429,16.512L67.657,16.294L67.886,16.072L68.117,15.849L68.348,15.625L68.581,15.401L68.815,15.177L69.049,14.956L69.169,14.845L69.288,14.735L69.408,14.627L69.528,14.519L69.649,14.412L69.77,14.307L69.893,14.203L70.016,14.1L70.14,13.999L70.265,13.899L70.391,13.801L70.518,13.705L70.647,13.61L70.776,13.518L70.907,13.428L71.039,13.341L71.129,13.284L71.219,13.229L71.309,13.177L71.4,13.126L71.491,13.078L71.583,13.031L71.674,12.987L71.766,12.945L71.858,12.905L71.95,12.866L72.042,12.83L72.134,12.796L72.226,12.763L72.318,12.732L72.409,12.703L72.501,12.676L72.593,12.651L72.684,12.627L72.775,12.605L72.866,12.584L72.956,12.565L73.047,12.547L73.136,12.531L73.226,12.516L73.315,12.502L73.404,12.49L73.492,12.478L73.58,12.468L73.668,12.459L73.755,12.451L73.842,12.444L73.931,12.437L74.099,12.428L74.268,12.421L74.436,12.417L74.602,12.415L74.766,12.415L74.928,12.416L75.089,12.419L75.249,12.423L75.56,12.431L75.869,12.44L76.019,12.444L76.169,12.447L76.317,12.449L76.478,12.45L76.533,12.451L76.599,12.454L76.715,12.461L76.843,12.471L76.98,12.482L77.126,12.494L77.277,12.506L77.432,12.517L77.587,12.526L77.659,12.529L77.731,12.532L77.8,12.534L77.865,12.535L77.925,12.535L77.942,12.535L77.957,12.522L78.017,12.473L78.077,12.424L78.138,12.377L78.2,12.33L78.263,12.284L78.326,12.239L78.39,12.195L78.455,12.151L78.521,12.109L78.587,12.067L78.654,12.026L78.722,11.986L78.79,11.946L78.859,11.907L78.928,11.869L78.998,11.832L79.069,11.795L79.14,11.76L79.212,11.725L79.284,11.691L79.357,11.658L79.43,11.625L79.504,11.593L79.578,11.562L79.653,11.532L79.728,11.503L79.803,11.475L79.879,11.447L79.956,11.421L80.032,11.395L80.11,11.37L80.187,11.346L80.265,11.324L80.343,11.302L80.421,11.281L80.5,11.261L80.579,11.242L80.658,11.224L80.738,11.207L80.818,11.191L80.898,11.176L80.978,11.162L81.059,11.15L81.14,11.138L81.221,11.128L81.302,11.119L81.384,11.112L81.466,11.105L81.548,11.1L81.63,11.097L81.712,11.094L81.795,11.094L81.878,11.094L81.961,11.097L82.044,11.101L82.127,11.106L82.21,11.114L82.294,11.123L82.387,11.135L82.455,11.146L82.532,11.163L82.637,11.191L82.737,11.224L82.828,11.257L82.915,11.291L82.999,11.326L83.082,11.361L83.166,11.399L83.329,11.473L83.495,11.55L83.658,11.625L83.759,11.67L83.788,11.619L83.845,11.53L83.888,11.47L83.93,11.416L83.976,11.361L84.027,11.307L84.082,11.253L84.142,11.2L84.205,11.149L84.272,11.101L84.341,11.056L84.413,11.015L84.486,10.978L84.56,10.946L84.634,10.917L84.708,10.892L84.781,10.871L84.853,10.854L84.923,10.84L84.993,10.828L85.061,10.82L85.127,10.813L85.193,10.809L85.257,10.807L85.321,10.806L85.384,10.807L85.447,10.809L85.514,10.813L85.629,10.822L85.735,10.834L85.836,10.846L85.936,10.86L86.035,10.875L86.134,10.892L86.231,10.91L86.328,10.93L86.423,10.951L86.518,10.974L86.612,10.998L86.706,11.023L86.798,11.049L86.889,11.077L86.98,11.106L87.069,11.136L87.158,11.167L87.246,11.199L87.333,11.233L87.419,11.267L87.504,11.303L87.588,11.339L87.672,11.376L87.754,11.415L87.836,11.454L87.917,11.494L87.997,11.534L88.076,11.576L88.154,11.618L88.232,11.661L88.308,11.704L88.384,11.748L88.459,11.793L88.534,11.839L88.61,11.886L88.752,11.978L88.894,12.073L89.033,12.17L89.17,12.268L89.304,12.367L89.436,12.467L89.566,12.568L89.693,12.67L89.819,12.772L89.942,12.874L90.064,12.976L90.185,13.078L90.304,13.181L90.536,13.382L90.764,13.581L90.989,13.776L91.211,13.967L91.319,14.058L91.427,14.148L91.535,14.237L91.642,14.323L91.749,14.407L91.855,14.489L91.961,14.568L92.066,14.645L92.171,14.719L92.276,14.791L92.383,14.861L92.433,14.893L92.485,14.925L92.537,14.957L92.589,14.988L92.641,15.018L92.693,15.047L92.745,15.076L92.797,15.104L92.849,15.131L92.901,15.157L92.954,15.183L93.006,15.207L93.058,15.231L93.111,15.254L93.163,15.277L93.216,15.298L93.269,15.319L93.321,15.339L93.375,15.358L93.428,15.376L93.481,15.393L93.535,15.41L93.589,15.426L93.644,15.441L93.699,15.455L93.754,15.468L93.809,15.48L93.865,15.492L93.922,15.503L93.979,15.513L94.047,15.523L94.121,15.534L94.2,15.545L94.283,15.555L94.37,15.564L94.461,15.573L94.554,15.582L94.65,15.589L94.748,15.596L94.848,15.602L94.949,15.607L95.051,15.61L95.153,15.613L95.256,15.615L95.358,15.615L95.46,15.614L95.56,15.612L95.658,15.608L95.755,15.603L95.849,15.597L95.94,15.59L96.027,15.581L96.11,15.571L96.188,15.559L96.261,15.547L96.332,15.533L96.359,15.528L96.388,15.521L96.416,15.514L96.441,15.507L96.464,15.501L96.485,15.494L96.503,15.488L96.519,15.483L96.532,15.478L96.543,15.473L96.551,15.47L96.557,15.467L96.573,15.459L96.591,15.449L96.608,15.439L96.626,15.429L96.644,15.418L96.662,15.406L96.681,15.393L96.7,15.38L96.72,15.365L96.737,15.353L96.783,15.316L96.828,15.278L96.877,15.236L96.929,15.189L96.985,15.137L97.109,15.023L97.179,14.959L97.255,14.892L97.337,14.821L97.427,14.749L97.52,14.679L97.576,14.638L97.631,14.601L97.687,14.564L97.747,14.528L97.808,14.492L97.872,14.457L97.939,14.423L98.008,14.39L98.079,14.359L98.152,14.33L98.228,14.302L98.305,14.277L98.385,14.254L98.466,14.233L98.548,14.215L98.632,14.2L98.717,14.187L98.803,14.177L98.89,14.171L98.977,14.166L99.064,14.165L99.152,14.166L99.241,14.171L99.329,14.177L99.418,14.187L99.506,14.199L99.595,14.213L99.685,14.23L99.774,14.249L99.867,14.271L99.964,14.297L100.062,14.327L100.158,14.361L100.253,14.397L100.345,14.437L100.434,14.479L100.521,14.524L100.605,14.571L100.687,14.62L100.766,14.671L100.842,14.724L100.915,14.778L100.985,14.833L101.053,14.89L101.118,14.947L101.18,15.005L101.239,15.063L101.296,15.122L101.351,15.181L101.403,15.239L101.454,15.298L101.502,15.356L101.548,15.414L101.592,15.471L101.635,15.528L101.678,15.587L101.753,15.694L101.826,15.801L101.894,15.905L102.016,16.095L102.074,16.185L102.127,16.267L102.178,16.344L102.226,16.413L102.274,16.48L102.293,16.505L102.314,16.532L102.334,16.557L102.353,16.58L102.372,16.602L102.389,16.621L102.406,16.638L102.421,16.654L102.436,16.668L102.449,16.68L102.461,16.691L102.473,16.7L102.483,16.708L102.493,16.715L102.502,16.721L102.51,16.726L102.517,16.73L102.524,16.734L102.532,16.737L102.548,16.742L102.56,16.745L102.573,16.749L102.588,16.752L102.604,16.756L102.623,16.759L102.644,16.763L102.666,16.766L102.69,16.769L102.716,16.772L102.743,16.774L102.771,16.777L102.801,16.778L102.833,16.78L102.862,16.781L102.936,16.781L103.01,16.78L103.089,16.777L103.173,16.771L103.26,16.764L103.35,16.754L103.444,16.742L103.54,16.728L103.639,16.712L103.741,16.694L103.845,16.674L103.95,16.652L104.058,16.627L104.167,16.601L104.277,16.573L104.388,16.543L104.5,16.512L104.612,16.478L104.725,16.444L104.839,16.407L104.952,16.369L105.065,16.33L105.178,16.289L105.29,16.247L105.402,16.204L105.513,16.16L105.623,16.114L105.731,16.068L105.838,16.021L105.944,15.973L106.048,15.924L106.149,15.875L106.249,15.825L106.346,15.775L106.441,15.724L106.533,15.673L106.621,15.623L106.707,15.572L106.789,15.521L106.868,15.471L106.943,15.422L107.014,15.373L107.08,15.326L107.142,15.279L107.199,15.235L107.251,15.192L107.298,15.151L107.339,15.113L107.378,15.075L107.39,15.062L107.404,15.048L107.416,15.034L107.427,15.021L107.436,15.01L107.444,15.001L107.45,14.993L107.454,14.987L107.457,14.982L107.468,14.965L107.526,14.876L107.592,14.781L107.632,14.727L107.67,14.678L107.709,14.63L107.749,14.583L107.792,14.536L107.836,14.489L107.882,14.443L107.931,14.397L107.983,14.352L108.038,14.307L108.096,14.264L108.158,14.221L108.223,14.181L108.293,14.141L108.366,14.104L108.444,14.07L108.527,14.04L108.613,14.013L108.703,13.991L108.796,13.974L108.891,13.963L108.988,13.959L109.086,13.96L109.182,13.968L109.277,13.982L109.37,14.002L109.459,14.027L109.544,14.057L109.625,14.091L109.701,14.128L109.773,14.167L109.839,14.209L109.902,14.251L109.959,14.295L110.013,14.339L110.063,14.384L110.109,14.429L110.159,14.48L110.231,14.561L110.299,14.648L110.36,14.735L110.415,14.819L110.465,14.903L110.51,14.986L110.552,15.068L110.591,15.15L110.628,15.231L110.662,15.312L110.695,15.393L110.726,15.475L110.755,15.556L110.784,15.637L110.811,15.719L110.838,15.801L110.864,15.885L110.912,16.046L110.958,16.209L111.001,16.371L111.043,16.532L111.083,16.69L111.157,16.99L111.226,17.269L111.258,17.394L111.288,17.508L111.317,17.608L111.345,17.703L111.39,17.847L111.44,18.008L111.49,18.177L111.542,18.353L111.65,18.724L111.762,19.123L111.88,19.546L112.001,19.991L112.126,20.455L112.255,20.937L112.386,21.434L112.52,21.943L112.792,22.988L113.346,25.118L113.618,26.164L113.752,26.672L113.883,27.167L114.011,27.648L114.136,28.11L114.256,28.551L114.372,28.97L114.483,29.362L114.588,29.726L114.638,29.895L114.686,30.056L114.733,30.209L114.777,30.352L114.82,30.485L114.86,30.607L114.897,30.719L114.932,30.818L114.963,30.904L114.991,30.976L115.013,31.03L115.032,31.072L115.042,31.095L115.054,31.119L115.087,31.183L115.122,31.246L115.16,31.312L115.203,31.382L115.248,31.455L115.297,31.531L115.348,31.609L115.46,31.779L115.578,31.956L115.64,32.053L115.702,32.152L115.765,32.255L115.828,32.362L115.891,32.474L115.95,32.586L115.982,32.65L116.012,32.712L116.041,32.774L116.07,32.839L116.098,32.905L116.124,32.972L116.15,33.04L116.175,33.111L116.199,33.183L116.221,33.256L116.242,33.331L116.261,33.407L116.279,33.485L116.295,33.565L116.309,33.646L116.32,33.728L116.33,33.811L116.337,33.896L116.341,33.982L116.344,34.068L116.343,34.156L116.34,34.244L116.333,34.333L116.325,34.422L116.313,34.512L116.298,34.602L116.28,34.692L116.259,34.787L116.231,34.889L116.197,34.993L116.159,35.094L116.116,35.192L116.071,35.286L116.022,35.375L115.971,35.461L115.917,35.544L115.862,35.622L115.805,35.698L115.747,35.769L115.688,35.838L115.629,35.904L115.568,35.967L115.507,36.027L115.446,36.085L115.384,36.141L115.322,36.195L115.26,36.247L115.198,36.297L115.136,36.346L115.074,36.393L115.012,36.439L114.948,36.485L114.829,36.569L114.708,36.651L114.588,36.729L114.47,36.805L114.246,36.947L114.138,37.016L114.035,37.082L113.936,37.146L113.844,37.208L113.758,37.267L113.675,37.327L113.641,37.353L113.606,37.38L113.573,37.406L113.543,37.431L113.514,37.455L113.488,37.478L113.465,37.5L113.443,37.521L113.425,37.54L113.408,37.557L113.394,37.573L113.383,37.587L113.373,37.599L113.366,37.608L113.361,37.616L113.353,37.628L113.321,37.682L113.285,37.745L113.25,37.808L113.215,37.873L113.18,37.938L113.146,38.005L113.112,38.072L113.079,38.141L113.046,38.21L113.013,38.281L112.981,38.352L112.949,38.424L112.918,38.497L112.887,38.571L112.857,38.646L112.827,38.721L112.797,38.798L112.769,38.872L112.711,39.031L112.656,39.19L112.602,39.351L112.55,39.514L112.5,39.68L112.451,39.847L112.404,40.016L112.358,40.186L112.314,40.357L112.271,40.53L112.23,40.703L112.189,40.877L112.151,41.052L112.113,41.226L112.076,41.401L112.041,41.576L112.006,41.75L111.972,41.924L111.94,42.096L111.876,42.441L111.817,42.775L111.798,42.888L111.781,43.001L111.765,43.12L111.751,43.244L111.738,43.373L111.725,43.507L111.714,43.644L111.704,43.786L111.695,43.932L111.687,44.081L111.68,44.234L111.673,44.39L111.667,44.549L111.662,44.711L111.653,45.044L111.645,45.386L111.637,45.736L111.629,46.093L111.619,46.457L111.608,46.824L111.601,47.011L111.594,47.198L111.585,47.385L111.575,47.573L111.564,47.761L111.552,47.95L111.538,48.14L111.523,48.329L111.506,48.518L111.487,48.708L111.467,48.897L111.444,49.086L111.419,49.275L111.391,49.463L111.361,49.651L111.329,49.838L111.293,50.024L111.255,50.207L111.234,50.302L111.213,50.394L111.191,50.486L111.168,50.578L111.144,50.67L111.119,50.761L111.093,50.852L111.066,50.942L111.039,51.032L111.01,51.122L110.98,51.212L110.949,51.301L110.917,51.39L110.884,51.478L110.849,51.566L110.814,51.654L110.777,51.741L110.739,51.828L110.699,51.914L110.659,52L110.617,52.085L110.573,52.169L110.528,52.253L110.482,52.337L110.434,52.419L110.384,52.501L110.333,52.582L110.281,52.663L110.226,52.742L110.17,52.821L110.113,52.899L110.053,52.976L109.992,53.052L109.93,53.127L109.865,53.201L109.799,53.273L109.731,53.345L109.661,53.415L109.589,53.483L109.508,53.557L109.436,53.619L109.352,53.682L109.266,53.74L109.177,53.793L109.086,53.84L108.995,53.883L108.902,53.92L108.809,53.951L108.716,53.978L108.624,54L108.533,54.017L108.443,54.03L108.354,54.039L108.266,54.045L108.18,54.047L108.095,54.047L108.012,54.043L107.93,54.037L107.85,54.029L107.771,54.018L107.692,54.006L107.615,53.991L107.54,53.975L107.465,53.958L107.391,53.938L107.317,53.918L107.245,53.896L107.173,53.873L107.102,53.848L107.031,53.823L106.961,53.796L106.891,53.768L106.822,53.74L106.753,53.71L106.684,53.679L106.612,53.646L106.48,53.582L106.344,53.513L106.21,53.441L106.076,53.366L105.943,53.288L105.81,53.207L105.678,53.125L105.547,53.04L105.416,52.952L105.285,52.863L105.156,52.773L105.027,52.68L104.899,52.586L104.771,52.491L104.645,52.395L104.52,52.298L104.396,52.2L104.274,52.102L104.153,52.003L104.033,51.904L103.916,51.805L103.8,51.706L103.685,51.608L103.573,51.51L103.463,51.412L103.356,51.316L103.251,51.22L103.148,51.125L103.048,51.032L102.95,50.94L102.856,50.85L102.765,50.762L102.676,50.675L102.591,50.591L102.509,50.509L102.431,50.429L102.356,50.352L102.316,50.309L102.352,50.353L102.575,50.623L102.796,50.894L103.017,51.166L103.238,51.44L103.458,51.715L103.677,51.993L103.894,52.272L104.111,52.553L104.326,52.837L104.539,53.122L104.646,53.267L104.751,53.411L104.857,53.556L104.961,53.702L105.065,53.849L105.169,53.996L105.272,54.144L105.374,54.293L105.476,54.442L105.577,54.592L105.678,54.743L105.778,54.895L105.877,55.048L105.975,55.201L106.073,55.356L106.172,55.514L106.263,55.664L106.354,55.819L106.442,55.975L106.527,56.132L106.61,56.289L106.69,56.448L106.767,56.607L106.842,56.767L106.915,56.927L106.986,57.089L107.054,57.251L107.121,57.413L107.185,57.576L107.247,57.739L107.308,57.903L107.366,58.067L107.423,58.232L107.479,58.397L107.532,58.562L107.584,58.727L107.635,58.893L107.685,59.058L107.733,59.224L107.779,59.39L107.825,59.556L107.87,59.722L107.913,59.888L107.956,60.053L107.997,60.219L108.038,60.386L108.117,60.715L108.194,61.045L108.268,61.373L108.341,61.7L108.413,62.025L108.554,62.668L108.625,62.986L108.696,63.301L108.768,63.612L108.843,63.921L108.88,64.072L108.918,64.224L108.956,64.374L108.996,64.523L109.035,64.671L109.076,64.818L109.117,64.963L109.159,65.107L109.202,65.25L109.246,65.392L109.29,65.532L109.336,65.672L109.417,65.913L109.5,66.155L109.584,66.397L109.67,66.639L109.757,66.881L109.846,67.123L109.935,67.365L110.026,67.607L110.119,67.849L110.212,68.09L110.307,68.332L110.403,68.574L110.5,68.815L110.598,69.056L110.697,69.298L110.797,69.539L110.898,69.78L111,70.021L111.103,70.262L111.207,70.503L111.312,70.744L111.417,70.985L111.524,71.226L111.631,71.466L111.848,71.948L112.068,72.428L112.29,72.909L112.514,73.389L112.741,73.869L112.969,74.349L113.199,74.828L113.43,75.307L113.663,75.785L113.896,76.263L114.364,77.219L114.832,78.173L115.299,79.126L115.531,79.602L115.762,80.078L115.991,80.554L116.218,81.026L116.269,81.132L116.319,81.234L116.37,81.336L116.422,81.437L116.474,81.537L116.527,81.637L116.581,81.736L116.635,81.834L116.69,81.932L116.746,82.029L116.802,82.125L116.858,82.221L116.916,82.317L116.974,82.412L117.032,82.506L117.092,82.6L117.152,82.693L117.212,82.786L117.273,82.878L117.335,82.97L117.397,83.062L117.46,83.153L117.523,83.243L117.587,83.334L117.652,83.423L117.716,83.511L117.849,83.69L117.983,83.867L118.119,84.042L118.258,84.216L118.399,84.389L118.542,84.56L118.687,84.731L118.834,84.901L118.983,85.071L119.134,85.239L119.287,85.408L119.441,85.575L119.598,85.743L119.756,85.91L119.916,86.077L120.078,86.244L120.241,86.41L120.406,86.577L120.57,86.742L120.596,86.767L120.618,86.788L120.677,86.842L120.739,86.896L120.808,86.954L120.882,87.014L120.962,87.077L121.046,87.142L121.135,87.208L121.326,87.351L121.526,87.5L121.631,87.579L121.738,87.66L121.846,87.743L121.955,87.83L122.065,87.919L122.175,88.012L122.286,88.109L122.393,88.207L122.451,88.261L122.506,88.314L122.56,88.369L122.614,88.424L122.668,88.481L122.722,88.539L122.774,88.599L122.827,88.66L122.878,88.723L122.929,88.788L122.979,88.854L123.028,88.922L123.076,88.992L123.123,89.064L123.169,89.138L123.213,89.214L123.256,89.292L123.296,89.372L123.335,89.454L123.372,89.538L123.407,89.624L123.439,89.712L123.469,89.803L123.494,89.889L123.535,90.043L123.571,90.188L123.604,90.33L123.633,90.469L123.659,90.604L123.681,90.737L123.7,90.869L123.715,90.998L123.726,91.125L123.733,91.252L123.736,91.372L123.736,91.439L123.735,91.502L123.733,91.564L123.729,91.626L123.724,91.689L123.718,91.751L123.71,91.813L123.701,91.876L123.69,91.938L123.678,92L123.664,92.062L123.648,92.125L123.631,92.187L123.611,92.249L123.59,92.31L123.567,92.372L123.541,92.433L123.514,92.493L123.485,92.552L123.453,92.611L123.42,92.669L123.385,92.726L123.348,92.782L123.309,92.836L123.269,92.889L123.226,92.94L123.183,92.989L123.138,93.037L123.092,93.083L123.045,93.126L122.997,93.168L122.948,93.208L122.899,93.246L122.842,93.287L122.75,93.348L122.649,93.406L122.549,93.457L122.451,93.502L122.354,93.542L122.258,93.576L122.165,93.605L122.073,93.631L121.984,93.654L121.896,93.673L121.81,93.69L121.726,93.705L121.644,93.718L121.563,93.729L121.483,93.74L121.403,93.749L121.253,93.765L121.105,93.779L121.1,93.779L121.116,93.921L121.176,94.42L121.233,94.875L121.258,95.066L121.279,95.223L121.295,95.334L121.303,95.386L121.312,95.436L121.324,95.494L121.337,95.552L121.351,95.612L121.366,95.673L121.383,95.735L121.401,95.798L121.42,95.862L121.441,95.926L121.462,95.992L121.485,96.059L121.51,96.126L121.535,96.194L121.562,96.263L121.59,96.333L121.619,96.403L121.649,96.474L121.681,96.546L121.714,96.619L121.748,96.692L121.783,96.765L121.819,96.84L121.857,96.914L121.895,96.99L121.935,97.065L121.975,97.141L122.017,97.218L122.06,97.295L122.104,97.373L122.149,97.45L122.195,97.528L122.242,97.607L122.29,97.686L122.338,97.763L122.439,97.924L122.543,98.083L122.651,98.244L122.762,98.405L122.877,98.566L122.994,98.728L123.114,98.89L123.238,99.052L123.363,99.214L123.492,99.376L123.622,99.537L123.755,99.698L123.89,99.858L124.027,100.018L124.166,100.177L124.306,100.334L124.448,100.491L124.591,100.646L124.736,100.8L124.881,100.953L125.028,101.104L125.175,101.253L125.323,101.401L125.471,101.547L125.62,101.69L125.769,101.832L125.917,101.971L126.066,102.108L126.214,102.243L126.362,102.374L126.51,102.504L126.657,102.63L126.802,102.753L126.947,102.874L127.091,102.991L127.233,103.105L127.373,103.215L127.512,103.322L127.649,103.426L127.784,103.525L127.916,103.621L128.046,103.713L128.173,103.8L128.297,103.883L128.419,103.962L128.536,104.037L128.651,104.107L128.707,104.14L128.764,104.173L128.822,104.206L128.879,104.237L129.002,104.303L129.126,104.366L129.253,104.429L129.383,104.491L129.516,104.553L129.651,104.615L129.79,104.676L129.93,104.738L130.22,104.865L130.515,104.994L130.667,105.062L130.82,105.131L130.974,105.203L131.129,105.277L131.285,105.354L131.443,105.435L131.598,105.518L131.679,105.563L131.758,105.608L131.837,105.654L131.916,105.702L131.995,105.75L132.074,105.8L132.153,105.851L132.232,105.903L132.311,105.957L132.389,106.012L132.467,106.069L132.544,106.128L132.622,106.188L132.699,106.249L132.775,106.313L132.851,106.378L132.926,106.445L133.001,106.513L133.074,106.584L133.148,106.656L133.22,106.73L133.291,106.806L133.355,106.876L133.429,106.962L133.51,107.059L133.557,107.117L133.603,107.176L133.65,107.239L133.698,107.305L133.748,107.374L133.797,107.446L133.847,107.522L133.897,107.601L133.946,107.684L133.995,107.772L134.042,107.863L134.089,107.959L134.133,108.061L134.172,108.162L134.194,108.225L134.213,108.284L134.231,108.344L134.247,108.407L134.262,108.473L134.276,108.54L134.287,108.611L134.296,108.684L134.303,108.76L134.306,108.839L134.306,108.922L134.302,109.007L134.294,109.094L134.28,109.185L134.261,109.277L134.235,109.371L134.203,109.466L134.165,109.56L134.12,109.654L134.068,109.745L134.01,109.833L133.946,109.918L133.877,109.998L133.807,110.07L133.742,110.129L133.68,110.18L133.618,110.226L133.558,110.268L133.499,110.306L133.441,110.341L133.384,110.372L133.328,110.401L133.274,110.427L133.214,110.455L133.114,110.496L133.011,110.534L132.91,110.568L132.81,110.599L132.711,110.626L132.614,110.651L132.518,110.674L132.423,110.695L132.329,110.715L132.236,110.733L132.142,110.75L131.966,110.78L131.795,110.808L131.486,110.857L131.354,110.879L131.298,110.889L131.247,110.899L131.204,110.908L131.169,110.916L131.144,110.922L131.102,110.933L131.029,110.952L130.938,110.971L130.851,110.986L130.766,110.999L130.677,111.011L130.585,111.022L130.488,111.032L130.383,111.042L130.161,111.061L129.91,111.079L129.632,111.097L129.327,111.114L128.994,111.131L128.633,111.148L128.246,111.164L127.832,111.18L127.391,111.195L126.924,111.211L126.432,111.226L125.915,111.241L125.373,111.255L124.807,111.269L124.218,111.284L123.605,111.297L122.312,111.324L120.932,111.35L119.469,111.375L117.927,111.4L116.311,111.423L114.624,111.445L112.87,111.467L111.054,111.488L109.179,111.508L107.25,111.527L105.271,111.545L103.245,111.563L101.177,111.579L99.071,111.596L96.931,111.611L94.761,111.626L92.565,111.64L90.347,111.653L85.863,111.678L81.341,111.7L76.813,111.72L72.312,111.737L67.872,111.753L63.524,111.767L59.301,111.778L55.236,111.788L51.362,111.797L47.712,111.804L44.317,111.81L41.211,111.814L35.997,111.82L32.33,111.823L30.48,111.824L30.407,111.825L30.322,111.828L30.22,111.832L30.102,111.839L29.972,111.848L29.831,111.857L29.517,111.88L29.175,111.906L28.813,111.933L28.625,111.946L28.435,111.958L28.243,111.97L28.05,111.981L27.857,111.99L27.665,111.997L27.474,112.003L27.285,112.007L27.099,112.008L26.918,112.007L26.825,112.005L26.735,112.002L26.646,111.998L26.558,111.993L26.47,111.987L26.383,111.98L26.296,111.972L26.21,111.962L26.123,111.95L26.036,111.936L25.948,111.92L25.859,111.901L25.768,111.878L25.673,111.85L25.575,111.817L25.472,111.776L25.373,111.729L25.307,111.693L25.248,111.658L25.188,111.619L25.125,111.574L25.061,111.523L24.998,111.465L24.934,111.401L24.873,111.331L24.816,111.257L24.763,111.179L24.714,111.096L24.671,111.011L24.634,110.924L24.603,110.837L24.578,110.749L24.559,110.663L24.545,110.579L24.536,110.497L24.532,110.419L24.531,110.344L24.534,110.272L24.54,110.193L24.556,110.08L24.579,109.968L24.606,109.868L24.635,109.778L24.665,109.697L24.694,109.624L24.723,109.558L24.751,109.494L24.799,109.394L24.842,109.307L24.876,109.235L24.886,109.215L24.886,109.073L24.889,108.821L24.893,108.571L24.898,108.323L24.909,107.832L24.913,107.59L24.916,107.35L24.917,107.113L24.917,106.877L24.916,106.762L24.914,106.647L24.911,106.532L24.908,106.419L24.904,106.306L24.899,106.194L24.893,106.082L24.886,105.972L24.878,105.863L24.869,105.754L24.859,105.647L24.848,105.532L24.832,105.379L24.816,105.199L24.8,105.001L24.783,104.785L24.767,104.55L24.751,104.295L24.734,104.022L24.717,103.731L24.701,103.421L24.683,103.092L24.649,102.383L24.613,101.604L24.577,100.759L24.541,99.85L24.503,98.879L24.465,97.849L24.426,96.763L24.387,95.624L24.347,94.434L24.307,93.196L24.266,91.913L24.224,90.588L24.182,89.222L24.097,86.384L24.01,83.419L23.922,80.35L23.834,77.199L23.744,73.988L23.563,67.474L23.472,64.215L23.381,60.983L23.291,57.802L23.201,54.692L23.112,51.676L23.024,48.777L22.981,47.378L22.938,46.016L22.895,44.694L22.852,43.414L22.811,42.181L22.769,40.996L22.728,39.862L22.688,38.782L22.648,37.758L22.609,36.795L22.57,35.893L22.532,35.057L22.495,34.289L22.477,33.932L22.458,33.593L22.441,33.273L22.423,32.971L22.405,32.689L22.388,32.427L22.371,32.186L22.355,31.966L22.338,31.767L22.323,31.592L22.307,31.441L22.293,31.315L22.28,31.215L22.275,31.183L22.269,31.145L22.25,31.029L22.231,30.902L22.214,30.775L22.2,30.648L22.188,30.522L22.179,30.397L22.172,30.271L22.167,30.147L22.164,30.023L22.163,29.899L22.164,29.776L22.168,29.653L22.173,29.531L22.18,29.41L22.19,29.289L22.2,29.169L22.213,29.05L22.228,28.931L22.244,28.813L22.261,28.695L22.281,28.578L22.302,28.462L22.324,28.347L22.347,28.232L22.373,28.118L22.399,28.005L22.426,27.892L22.455,27.78L22.485,27.668L22.516,27.558L22.549,27.447L22.582,27.338L22.616,27.229L22.651,27.121L22.688,27.014L22.725,26.907L22.762,26.801L22.801,26.695L22.84,26.59L22.88,26.486L22.921,26.382L22.963,26.277L23.046,26.075L23.132,25.873L23.22,25.674L23.309,25.476L23.399,25.281L23.49,25.089L23.581,24.898L23.673,24.71L23.765,24.523L23.943,24.164L23.97,24.108L23.992,24.059L24.014,24.009L24.035,23.959L24.055,23.908L24.073,23.857L24.091,23.805L24.108,23.753L24.124,23.7L24.138,23.647L24.152,23.593L24.166,23.539L24.178,23.484L24.189,23.428L24.2,23.371L24.209,23.314L24.218,23.256L24.226,23.198L24.233,23.139L24.239,23.079L24.244,23.018L24.249,22.957L24.252,22.894L24.255,22.832L24.257,22.768L24.258,22.704L24.258,22.638L24.258,22.573L24.257,22.506L24.254,22.439L24.251,22.371L24.248,22.303L24.243,22.233L24.238,22.163L24.232,22.093L24.225,22.022L24.218,21.95L24.21,21.88L24.191,21.731L24.17,21.582L24.147,21.43L24.121,21.277L24.093,21.121L24.063,20.964L24.03,20.805L23.996,20.644L23.961,20.481L23.924,20.316L23.885,20.151L23.805,19.813L23.639,19.124L23.555,18.773L23.514,18.595L23.473,18.416L23.433,18.236L23.395,18.055L23.357,17.873L23.321,17.69L23.287,17.506L23.255,17.321L23.225,17.135L23.197,16.948L23.173,16.761L23.151,16.574L23.141,16.477L23.132,16.382L23.124,16.286L23.117,16.191L23.111,16.095L23.106,15.999L23.101,15.903L23.098,15.806L23.096,15.709L23.095,15.612L23.095,15.515L23.097,15.418L23.1,15.32L23.104,15.222L23.109,15.124L23.116,15.026L23.124,14.928L23.133,14.829L23.145,14.73L23.157,14.632L23.171,14.533L23.187,14.434L23.205,14.335L23.224,14.236L23.245,14.136L23.268,14.037L23.292,13.938L23.319,13.838L23.343,13.756L23.368,13.674L23.395,13.593L23.424,13.513L23.454,13.434L23.486,13.356L23.519,13.28L23.553,13.205L23.589,13.132L23.625,13.059L23.663,12.988L23.702,12.919L23.742,12.85L23.783,12.784L23.825,12.718L23.868,12.654L23.911,12.591L23.956,12.53L24,12.47L24.046,12.411L24.092,12.353L24.138,12.297L24.184,12.242L24.234,12.185L24.326,12.084L24.421,11.984L24.517,11.887L24.613,11.794L24.708,11.705L24.804,11.617L24.899,11.532L24.994,11.449L25.179,11.289L25.363,11.13L25.453,11.052L25.542,10.973L25.63,10.895L25.717,10.816L25.802,10.736L25.887,10.655L25.971,10.573L26.061,10.481L26.233,10.337L26.428,10.227L26.64,10.155L26.861,10.122L27.085,10.131L27.303,10.181L27.509,10.27L27.646,10.363L27.76,10.341L27.774,10.339L27.89,10.328L27.905,10.328L28.014,10.328L28.079,10.33L28.191,10.345L28.294,10.366L28.388,10.392L28.474,10.423L28.553,10.455L28.6,10.478L28.792,10.592L28.96,10.74L29.098,10.916L29.202,11.115L29.267,11.329L29.291,11.552L29.275,11.775L29.217,11.992L29.121,12.194L29.109,12.21L29.115,12.225L29.133,12.268L29.151,12.311L29.165,12.341L29.256,12.27L29.36,12.192L29.467,12.117L29.576,12.044L29.686,11.973L29.798,11.904L29.912,11.838L30.027,11.773L30.144,11.709L30.263,11.648L30.383,11.588L30.504,11.53L30.627,11.474L30.751,11.42L30.877,11.367L31.003,11.315L31.131,11.266L31.259,11.217L31.389,11.171L31.52,11.126L31.652,11.082L31.784,11.041L31.917,11L32.051,10.961L32.186,10.924L32.321,10.888L32.457,10.854L32.593,10.822L32.729,10.791L32.866,10.761L33.003,10.733L33.141,10.707L33.278,10.682L33.416,10.659L33.554,10.638L33.691,10.618L33.829,10.6L33.966,10.583L34.104,10.569L34.241,10.556L34.377,10.544L34.514,10.535L34.649,10.527L34.785,10.521L34.92,10.516L35.054,10.514L35.188,10.514L35.321,10.515L35.453,10.518ZM35.08,12.941L34.979,12.943L34.877,12.946L34.774,12.95L34.669,12.957L34.563,12.964L34.456,12.973L34.349,12.983L34.241,12.995L34.132,13.008L34.023,13.022L33.913,13.038L33.803,13.055L33.693,13.074L33.583,13.093L33.473,13.114L33.363,13.137L33.253,13.16L33.144,13.185L33.035,13.211L32.927,13.238L32.819,13.267L32.713,13.296L32.607,13.327L32.502,13.359L32.398,13.392L32.296,13.426L32.194,13.46L32.095,13.496L31.996,13.533L31.9,13.571L31.805,13.609L31.712,13.648L31.621,13.688L31.532,13.729L31.445,13.77L31.361,13.812L31.279,13.855L31.199,13.898L31.122,13.941L31.048,13.985L30.977,14.028L30.909,14.072L30.844,14.116L30.782,14.16L30.723,14.203L30.668,14.246L30.616,14.289L30.567,14.331L30.523,14.372L30.468,14.425L30.425,14.466L30.367,14.519L30.307,14.57L30.245,14.619L30.181,14.667L30.114,14.712L30.045,14.756L29.974,14.797L29.9,14.835L29.824,14.871L29.746,14.903L29.665,14.932L29.584,14.958L29.5,14.98L29.416,14.997L29.33,15.011L29.244,15.021L29.159,15.026L29.073,15.028L28.989,15.025L28.905,15.018L28.823,15.008L28.742,14.994L28.664,14.977L28.587,14.957L28.513,14.934L28.441,14.909L28.372,14.881L28.305,14.851L28.24,14.82L28.178,14.787L28.118,14.752L28.061,14.717L28.006,14.68L27.952,14.642L27.901,14.604L27.852,14.565L27.804,14.525L27.758,14.485L27.709,14.439L27.631,14.362L27.552,14.277L27.479,14.192L27.41,14.106L27.345,14.019L27.283,13.931L27.225,13.843L27.17,13.754L27.119,13.664L27.069,13.575L27.023,13.485L26.979,13.394L26.937,13.304L26.897,13.213L26.86,13.123L26.837,13.063L26.766,13.124L26.59,13.277L26.509,13.348L26.432,13.417L26.358,13.485L26.288,13.55L26.223,13.614L26.161,13.676L26.104,13.736L26.048,13.798L26.025,13.824L26.001,13.852L25.978,13.88L25.956,13.908L25.934,13.936L25.914,13.963L25.894,13.991L25.875,14.018L25.857,14.045L25.84,14.072L25.823,14.099L25.807,14.126L25.792,14.154L25.777,14.181L25.763,14.209L25.75,14.237L25.737,14.266L25.724,14.295L25.712,14.325L25.7,14.356L25.689,14.387L25.678,14.419L25.668,14.452L25.658,14.488L25.643,14.544L25.628,14.601L25.615,14.659L25.603,14.718L25.591,14.777L25.581,14.837L25.571,14.897L25.562,14.958L25.554,15.02L25.547,15.082L25.541,15.145L25.536,15.209L25.531,15.273L25.528,15.338L25.525,15.404L25.523,15.47L25.522,15.537L25.522,15.604L25.523,15.672L25.524,15.741L25.526,15.81L25.53,15.88L25.533,15.951L25.538,16.022L25.543,16.094L25.549,16.166L25.556,16.239L25.564,16.31L25.581,16.462L25.601,16.613L25.624,16.765L25.649,16.92L25.676,17.077L25.705,17.235L25.737,17.395L25.77,17.557L25.805,17.72L25.841,17.885L25.879,18.051L25.918,18.218L25.999,18.558L26.166,19.248L26.249,19.598L26.29,19.777L26.33,19.955L26.369,20.134L26.407,20.313L26.444,20.494L26.478,20.676L26.512,20.858L26.543,21.041L26.571,21.226L26.597,21.411L26.62,21.594L26.631,21.69L26.641,21.783L26.649,21.877L26.657,21.971L26.664,22.065L26.67,22.159L26.676,22.254L26.68,22.349L26.683,22.444L26.684,22.539L26.685,22.635L26.685,22.73L26.683,22.826L26.68,22.922L26.676,23.018L26.67,23.115L26.663,23.211L26.655,23.308L26.645,23.405L26.634,23.502L26.62,23.599L26.606,23.696L26.59,23.793L26.572,23.891L26.552,23.988L26.53,24.085L26.507,24.182L26.482,24.28L26.454,24.377L26.425,24.474L26.394,24.57L26.361,24.667L26.326,24.763L26.289,24.859L26.249,24.955L26.208,25.05L26.164,25.145L26.122,25.233L25.941,25.597L25.853,25.775L25.767,25.953L25.682,26.131L25.598,26.308L25.516,26.485L25.437,26.662L25.359,26.838L25.284,27.013L25.211,27.19L25.177,27.276L25.143,27.363L25.11,27.45L25.077,27.537L25.045,27.624L25.014,27.711L24.985,27.797L24.956,27.883L24.927,27.969L24.9,28.056L24.874,28.141L24.849,28.227L24.825,28.312L24.802,28.398L24.78,28.483L24.759,28.568L24.74,28.653L24.721,28.737L24.704,28.822L24.688,28.906L24.673,28.99L24.659,29.074L24.646,29.158L24.635,29.241L24.625,29.325L24.616,29.408L24.608,29.491L24.602,29.574L24.597,29.657L24.593,29.74L24.591,29.822L24.59,29.905L24.591,29.988L24.592,30.07L24.596,30.153L24.6,30.236L24.607,30.319L24.614,30.401L24.624,30.484L24.634,30.567L24.647,30.651L24.672,30.802L24.683,30.876L24.702,31.02L24.721,31.183L24.739,31.363L24.756,31.56L24.774,31.775L24.792,32.01L24.809,32.263L24.827,32.535L24.845,32.825L24.863,33.134L24.882,33.461L24.9,33.805L24.919,34.168L24.956,34.944L24.995,35.786L25.033,36.693L25.073,37.662L25.113,38.689L25.153,39.773L25.194,40.91L25.236,42.097L25.278,43.333L25.32,44.614L25.363,45.938L25.406,47.301L25.45,48.702L25.538,51.604L25.627,54.621L25.717,57.732L25.807,60.915L25.898,64.147L25.989,67.406L26.17,73.921L26.259,77.131L26.348,80.281L26.436,83.349L26.523,86.312L26.608,89.149L26.65,90.513L26.691,91.837L26.732,93.118L26.773,94.354L26.812,95.541L26.852,96.678L26.89,97.761L26.928,98.787L26.966,99.754L27.002,100.658L27.038,101.498L27.073,102.269L27.107,102.97L27.124,103.292L27.141,103.596L27.157,103.88L27.173,104.144L27.189,104.388L27.204,104.611L27.219,104.812L27.234,104.991L27.248,105.146L27.262,105.284L27.275,105.41L27.287,105.544L27.298,105.677L27.308,105.81L27.316,105.943L27.323,106.075L27.329,106.207L27.334,106.339L27.337,106.47L27.34,106.601L27.342,106.731L27.344,106.862L27.344,107.118L27.343,107.373L27.339,107.627L27.335,107.878L27.325,108.372L27.32,108.615L27.316,108.855L27.313,109.092L27.312,109.341L27.311,109.395L27.307,109.462L27.301,109.525L27.294,109.58L27.413,109.577L27.579,109.572L27.75,109.565L27.925,109.557L28.103,109.547L28.282,109.536L28.462,109.524L28.641,109.512L28.996,109.486L29.337,109.46L29.657,109.437L29.81,109.426L29.955,109.417L30.093,109.409L30.225,109.403L30.351,109.398L30.464,109.397L32.329,109.396L35.995,109.393L41.208,109.387L44.313,109.383L47.707,109.377L51.357,109.37L55.231,109.361L59.295,109.351L63.517,109.34L67.864,109.326L72.303,109.311L76.803,109.293L81.329,109.273L85.85,109.251L90.333,109.226L92.55,109.213L94.745,109.199L96.914,109.184L99.053,109.169L101.158,109.153L103.224,109.136L105.249,109.118L107.227,109.1L109.154,109.081L111.027,109.061L112.841,109.04L114.593,109.019L116.277,108.996L117.891,108.973L119.429,108.949L120.888,108.924L122.264,108.898L123.552,108.871L124.161,108.857L124.748,108.843L125.31,108.829L125.848,108.815L126.36,108.8L126.847,108.785L127.308,108.77L127.742,108.754L128.149,108.739L128.527,108.723L128.877,108.707L129.197,108.691L129.487,108.674L129.745,108.658L129.971,108.642L130.164,108.625L130.243,108.618L130.315,108.61L130.376,108.603L130.425,108.596L130.46,108.591L130.477,108.588L130.534,108.572L130.618,108.552L130.699,108.534L130.779,108.518L130.859,108.502L130.94,108.488L131.096,108.462L131.41,108.412L131.462,108.404L131.425,108.366L131.384,108.325L131.341,108.284L131.298,108.245L131.255,108.206L131.21,108.168L131.165,108.13L131.118,108.093L131.071,108.056L131.023,108.02L130.974,107.984L130.924,107.949L130.873,107.914L130.821,107.88L130.769,107.845L130.715,107.812L130.661,107.778L130.605,107.745L130.549,107.713L130.492,107.68L130.436,107.649L130.315,107.584L130.192,107.521L130.067,107.459L129.938,107.397L129.806,107.336L129.671,107.274L129.534,107.213L129.248,107.088L128.957,106.961L128.807,106.895L128.656,106.828L128.503,106.758L128.348,106.686L128.192,106.612L128.035,106.534L127.877,106.453L127.721,106.37L127.639,106.325L127.56,106.28L127.48,106.234L127.399,106.186L127.255,106.098L127.108,106.005L126.96,105.908L126.81,105.808L126.658,105.704L126.506,105.596L126.352,105.485L126.196,105.37L126.04,105.252L125.882,105.13L125.724,105.005L125.564,104.877L125.404,104.746L125.242,104.612L125.081,104.475L124.918,104.336L124.756,104.193L124.593,104.048L124.429,103.9L124.266,103.75L124.103,103.597L123.94,103.442L123.777,103.285L123.615,103.125L123.453,102.964L123.292,102.8L123.132,102.635L122.972,102.468L122.814,102.299L122.657,102.128L122.501,101.956L122.346,101.782L122.193,101.607L122.041,101.431L121.892,101.253L121.744,101.074L121.598,100.894L121.455,100.713L121.313,100.531L121.174,100.348L121.038,100.165L120.904,99.98L120.773,99.795L120.645,99.609L120.52,99.423L120.398,99.236L120.28,99.05L120.221,98.955L120.164,98.861L120.108,98.767L120.052,98.672L119.998,98.578L119.944,98.484L119.892,98.389L119.84,98.295L119.789,98.2L119.74,98.105L119.691,98.011L119.644,97.916L119.597,97.821L119.552,97.726L119.508,97.631L119.465,97.535L119.423,97.44L119.382,97.345L119.343,97.249L119.304,97.153L119.267,97.058L119.231,96.962L119.197,96.866L119.164,96.77L119.132,96.674L119.101,96.578L119.072,96.481L119.045,96.385L119.018,96.288L118.994,96.191L118.971,96.094L118.949,95.997L118.93,95.9L118.91,95.795L118.894,95.691L118.875,95.553L118.852,95.382L118.826,95.181L118.768,94.715L118.706,94.206L118.677,93.952L118.649,93.707L118.624,93.479L118.602,93.272L118.584,93.092L118.572,92.944L118.567,92.869L118.564,92.783L118.565,92.726L118.579,92.561L118.58,92.555L118.616,92.395L118.674,92.241L118.752,92.097L118.753,92.094L118.865,91.943L119,91.811L119.153,91.702L119.321,91.617L119.501,91.559L119.59,91.538L119.69,91.517L119.788,91.497L119.885,91.479L119.98,91.464L120.073,91.449L120.164,91.437L120.255,91.425L120.424,91.405L120.587,91.389L120.882,91.362L121.013,91.35L121.135,91.337L121.187,91.331L121.237,91.324L121.284,91.318L121.306,91.314L121.305,91.303L121.3,91.246L121.293,91.181L121.282,91.109L121.269,91.03L121.253,90.945L121.234,90.852L121.211,90.753L121.185,90.647L121.156,90.54L121.151,90.522L121.146,90.508L121.141,90.493L121.135,90.478L121.128,90.462L121.119,90.444L121.11,90.426L121.099,90.407L121.087,90.386L121.074,90.365L121.06,90.343L121.044,90.319L121.026,90.295L121.008,90.27L120.987,90.245L120.965,90.218L120.942,90.191L120.917,90.163L120.891,90.134L120.864,90.105L120.835,90.075L120.805,90.045L120.773,90.015L120.742,89.986L120.67,89.92L120.596,89.855L120.517,89.789L120.435,89.722L120.349,89.654L120.26,89.585L120.168,89.515L120.074,89.444L119.877,89.298L119.678,89.149L119.575,89.072L119.472,88.993L119.369,88.912L119.266,88.828L119.163,88.742L119.06,88.652L118.961,88.562L118.907,88.51L118.859,88.463L118.684,88.287L118.511,88.112L118.34,87.937L118.169,87.761L117.999,87.584L117.831,87.406L117.663,87.227L117.497,87.046L117.331,86.865L117.167,86.681L117.005,86.496L116.843,86.31L116.683,86.121L116.525,85.931L116.369,85.739L116.214,85.544L116.06,85.348L115.909,85.149L115.761,84.949L115.686,84.846L115.612,84.744L115.539,84.641L115.467,84.538L115.395,84.434L115.324,84.329L115.253,84.223L115.183,84.117L115.113,84.01L115.044,83.903L114.976,83.794L114.908,83.685L114.841,83.575L114.774,83.465L114.708,83.353L114.643,83.241L114.579,83.128L114.515,83.015L114.452,82.9L114.389,82.785L114.327,82.668L114.266,82.551L114.206,82.434L114.146,82.315L114.087,82.195L114.03,82.078L113.804,81.606L113.577,81.135L113.348,80.664L113.118,80.191L112.653,79.241L112.185,78.287L111.715,77.329L111.481,76.847L111.246,76.364L111.013,75.88L110.78,75.395L110.548,74.909L110.318,74.421L110.089,73.932L109.863,73.442L109.638,72.95L109.416,72.458L109.306,72.211L109.196,71.964L109.088,71.716L108.98,71.468L108.873,71.22L108.767,70.971L108.661,70.722L108.557,70.473L108.453,70.224L108.351,69.974L108.249,69.724L108.149,69.473L108.049,69.222L107.951,68.971L107.853,68.719L107.757,68.467L107.662,68.215L107.568,67.962L107.476,67.709L107.385,67.456L107.295,67.202L107.206,66.948L107.119,66.693L107.033,66.437L106.981,66.278L106.93,66.117L106.88,65.956L106.832,65.795L106.785,65.633L106.739,65.471L106.694,65.309L106.65,65.146L106.607,64.984L106.566,64.821L106.525,64.658L106.484,64.494L106.407,64.169L106.331,63.843L106.257,63.518L106.185,63.193L106.042,62.546L105.972,62.225L105.9,61.905L105.828,61.588L105.755,61.273L105.68,60.959L105.642,60.805L105.603,60.65L105.564,60.497L105.524,60.344L105.483,60.192L105.442,60.042L105.399,59.892L105.356,59.743L105.312,59.595L105.267,59.448L105.221,59.302L105.174,59.158L105.126,59.015L105.077,58.873L105.027,58.732L104.975,58.592L104.922,58.454L104.868,58.317L104.813,58.182L104.756,58.048L104.698,57.915L104.639,57.784L104.578,57.654L104.516,57.526L104.452,57.399L104.386,57.274L104.319,57.151L104.25,57.029L104.18,56.909L104.106,56.787L104.018,56.647L103.929,56.505L103.838,56.364L103.746,56.223L103.654,56.083L103.561,55.943L103.467,55.803L103.372,55.664L103.277,55.526L103.181,55.387L103.084,55.25L102.986,55.112L102.888,54.976L102.789,54.839L102.689,54.703L102.59,54.568L102.387,54.296L102.183,54.027L101.976,53.758L101.767,53.491L101.557,53.224L101.345,52.958L101.131,52.693L100.916,52.428L100.699,52.163L100.482,51.899L100.043,51.37L99.159,50.311L98.717,49.778L98.496,49.51L98.275,49.241L98.055,48.971L97.835,48.7L97.617,48.427L97.399,48.153L97.183,47.877L96.968,47.599L96.755,47.319L96.543,47.037L96.334,46.754L96.229,46.61L96.125,46.467L96.022,46.322L95.92,46.178L95.818,46.032L95.717,45.886L95.616,45.739L95.516,45.592L95.417,45.444L95.318,45.295L95.22,45.145L95.123,44.994L95.027,44.843L94.931,44.691L94.836,44.538L94.743,44.384L94.65,44.23L94.557,44.074L94.466,43.918L94.376,43.761L94.287,43.603L94.198,43.444L94.111,43.284L94.025,43.123L93.939,42.961L93.855,42.798L93.772,42.634L93.69,42.469L93.609,42.303L93.53,42.136L93.451,41.968L93.374,41.799L93.298,41.628L93.223,41.457L93.15,41.285L93.078,41.111L93.007,40.936L92.938,40.761L92.87,40.584L92.803,40.405L92.738,40.226L92.674,40.045L92.612,39.864L92.551,39.681L92.492,39.496L92.434,39.311L92.378,39.124L92.323,38.936L92.271,38.747L92.219,38.557L92.17,38.365L92.122,38.172L92.076,37.977L92.032,37.783L91.982,37.555L91.933,37.331L91.838,36.889L91.79,36.671L91.742,36.456L91.694,36.243L91.644,36.033L91.593,35.825L91.54,35.618L91.513,35.519L91.485,35.418L91.457,35.318L91.428,35.219L91.398,35.12L91.368,35.022L91.337,34.925L91.305,34.829L91.272,34.733L91.239,34.638L91.204,34.543L91.163,34.435L91.13,34.342L91.095,34.233L91.065,34.125L91.039,34.017L91.015,33.908L90.995,33.799L90.977,33.689L90.961,33.578L90.948,33.466L90.937,33.353L90.928,33.239L90.922,33.125L90.917,33.009L90.914,32.892L90.913,32.775L90.915,32.657L90.918,32.538L90.923,32.419L90.931,32.299L90.94,32.179L90.952,32.059L90.965,31.938L90.981,31.818L90.999,31.698L91.019,31.577L91.042,31.457L91.067,31.337L91.095,31.218L91.125,31.099L91.158,30.98L91.195,30.862L91.235,30.744L91.278,30.627L91.323,30.516L91.35,30.453L91.376,30.396L91.404,30.338L91.432,30.28L91.462,30.223L91.493,30.166L91.526,30.109L91.56,30.052L91.596,29.996L91.634,29.939L91.673,29.883L91.715,29.828L91.758,29.773L91.804,29.718L91.852,29.664L91.902,29.61L91.955,29.558L92.01,29.506L92.068,29.455L92.129,29.406L92.193,29.358L92.26,29.312L92.329,29.268L92.402,29.226L92.477,29.187L92.555,29.151L92.636,29.118L92.719,29.088L92.804,29.062L92.891,29.04L92.979,29.021L93.068,29.007L93.159,28.997L93.249,28.992L93.339,28.991L93.429,28.994L93.519,29L93.607,29.011L93.694,29.026L93.78,29.044L93.864,29.065L93.947,29.09L94.028,29.117L94.108,29.147L94.186,29.18L94.262,29.215L94.337,29.253L94.41,29.293L94.482,29.334L94.552,29.378L94.622,29.423L94.69,29.471L94.757,29.52L94.823,29.571L94.889,29.624L94.953,29.678L95.018,29.735L95.081,29.793L95.144,29.853L95.207,29.915L95.273,29.982L95.338,30.051L95.402,30.121L95.464,30.191L95.525,30.263L95.585,30.334L95.643,30.407L95.7,30.48L95.755,30.553L95.809,30.627L95.862,30.702L95.914,30.777L95.965,30.852L96.015,30.927L96.064,31.003L96.111,31.08L96.158,31.156L96.204,31.233L96.249,31.31L96.294,31.389L96.378,31.541L96.46,31.696L96.539,31.851L96.616,32.006L96.69,32.161L96.761,32.316L96.831,32.47L96.899,32.623L96.965,32.775L97.03,32.927L97.154,33.222L97.274,33.512L97.392,33.794L97.449,33.93L97.506,34.064L97.562,34.194L97.618,34.32L97.673,34.443L97.729,34.563L97.787,34.685L97.847,34.806L97.907,34.928L97.968,35.049L98.03,35.17L98.093,35.29L98.157,35.411L98.222,35.531L98.287,35.651L98.353,35.769L98.488,36.01L98.625,36.249L98.765,36.488L98.906,36.727L99.05,36.967L99.195,37.207L99.341,37.448L99.636,37.934L99.785,38.18L99.933,38.427L100.082,38.676L100.23,38.928L100.377,39.182L100.522,39.437L100.595,39.568L100.667,39.698L100.738,39.83L100.809,39.962L100.879,40.095L100.949,40.229L101.018,40.363L101.087,40.499L101.155,40.636L101.222,40.774L101.288,40.913L101.353,41.053L101.417,41.194L101.481,41.336L101.543,41.479L101.604,41.624L101.664,41.77L101.723,41.917L101.781,42.065L101.838,42.215L101.893,42.366L101.947,42.518L101.999,42.672L102.05,42.826L102.082,42.926L102.113,43.026L102.142,43.126L102.172,43.227L102.226,43.424L102.279,43.622L102.329,43.82L102.376,44.017L102.422,44.214L102.467,44.409L102.552,44.794L102.636,45.175L102.678,45.362L102.72,45.547L102.763,45.73L102.807,45.91L102.852,46.088L102.898,46.263L102.947,46.437L102.971,46.519L102.996,46.603L103.022,46.686L103.048,46.768L103.074,46.849L103.102,46.929L103.129,47.009L103.158,47.087L103.187,47.164L103.216,47.241L103.247,47.316L103.278,47.39L103.309,47.464L103.342,47.536L103.375,47.607L103.409,47.677L103.443,47.746L103.479,47.814L103.515,47.881L103.552,47.947L103.59,48.012L103.628,48.076L103.668,48.138L103.708,48.2L103.75,48.26L103.79,48.317L103.799,48.328L103.814,48.347L103.837,48.376L103.868,48.412L103.905,48.454L103.948,48.501L103.996,48.554L104.049,48.61L104.107,48.671L104.169,48.735L104.235,48.803L104.306,48.873L104.379,48.947L104.457,49.022L104.537,49.1L104.621,49.18L104.707,49.262L104.797,49.345L104.889,49.429L104.983,49.515L105.079,49.602L105.178,49.689L105.278,49.777L105.38,49.865L105.483,49.953L105.588,50.041L105.694,50.128L105.801,50.215L105.908,50.302L106.016,50.387L106.125,50.471L106.233,50.554L106.342,50.635L106.451,50.715L106.559,50.792L106.666,50.867L106.772,50.94L106.878,51.01L106.982,51.077L107.084,51.142L107.184,51.202L107.282,51.26L107.378,51.313L107.471,51.363L107.56,51.409L107.649,51.452L107.687,51.469L107.727,51.487L107.766,51.504L107.803,51.519L107.84,51.534L107.874,51.547L107.908,51.559L107.939,51.57L107.969,51.58L107.998,51.588L108.024,51.596L108.04,51.6L108.056,51.582L108.087,51.548L108.117,51.512L108.147,51.474L108.176,51.436L108.205,51.397L108.234,51.356L108.262,51.315L108.29,51.272L108.318,51.228L108.345,51.183L108.372,51.137L108.398,51.09L108.424,51.041L108.45,50.991L108.475,50.94L108.5,50.888L108.524,50.835L108.548,50.781L108.572,50.725L108.595,50.668L108.617,50.611L108.639,50.552L108.661,50.492L108.682,50.431L108.703,50.369L108.723,50.306L108.743,50.242L108.762,50.177L108.781,50.111L108.799,50.044L108.817,49.976L108.834,49.907L108.851,49.837L108.867,49.767L108.882,49.698L108.913,49.55L108.941,49.402L108.968,49.25L108.992,49.096L109.015,48.94L109.036,48.781L109.056,48.619L109.074,48.456L109.09,48.29L109.105,48.123L109.119,47.955L109.131,47.784L109.142,47.613L109.152,47.44L109.161,47.267L109.169,47.092L109.176,46.917L109.183,46.742L109.194,46.388L109.203,46.035L109.211,45.682L109.218,45.331L109.227,44.981L109.236,44.637L109.242,44.464L109.248,44.294L109.255,44.125L109.263,43.957L109.272,43.79L109.283,43.625L109.294,43.461L109.307,43.299L109.322,43.138L109.339,42.979L109.357,42.821L109.378,42.665L109.401,42.51L109.425,42.362L109.488,42.008L109.554,41.651L109.589,41.468L109.624,41.284L109.661,41.098L109.699,40.91L109.739,40.721L109.78,40.531L109.823,40.34L109.867,40.148L109.913,39.955L109.961,39.762L110.011,39.568L110.063,39.374L110.117,39.181L110.174,38.987L110.233,38.793L110.294,38.6L110.358,38.407L110.425,38.216L110.494,38.027L110.531,37.93L110.568,37.835L110.605,37.74L110.644,37.646L110.683,37.552L110.723,37.459L110.764,37.365L110.805,37.273L110.848,37.18L110.892,37.088L110.936,36.997L110.982,36.906L111.029,36.815L111.076,36.725L111.125,36.636L111.175,36.547L111.225,36.459L111.281,36.364L111.329,36.288L111.384,36.207L111.44,36.131L111.498,36.057L111.557,35.987L111.616,35.92L111.676,35.856L111.737,35.795L111.799,35.735L111.86,35.678L111.922,35.624L111.984,35.571L112.046,35.52L112.108,35.47L112.17,35.422L112.235,35.374L112.355,35.287L112.478,35.202L112.599,35.121L112.718,35.043L112.834,34.969L112.947,34.897L113.165,34.759L113.266,34.694L113.363,34.631L113.454,34.569L113.541,34.508L113.578,34.481L113.616,34.454L113.651,34.426L113.685,34.4L113.716,34.375L113.745,34.35L113.772,34.327L113.797,34.305L113.819,34.284L113.838,34.264L113.856,34.246L113.87,34.23L113.883,34.216L113.893,34.203L113.901,34.193L113.906,34.185L113.907,34.184L113.909,34.172L113.912,34.157L113.914,34.142L113.915,34.129L113.916,34.115L113.916,34.102L113.916,34.089L113.916,34.076L113.915,34.063L113.914,34.049L113.913,34.035L113.911,34.02L113.908,34.005L113.905,33.989L113.901,33.972L113.897,33.954L113.891,33.936L113.885,33.916L113.879,33.895L113.871,33.874L113.862,33.851L113.853,33.827L113.842,33.803L113.831,33.777L113.819,33.75L113.805,33.722L113.793,33.697L113.759,33.633L113.723,33.57L113.684,33.503L113.641,33.432L113.594,33.358L113.545,33.283L113.436,33.117L113.321,32.943L113.26,32.85L113.198,32.753L113.135,32.653L113.072,32.548L113.009,32.44L112.947,32.326L112.887,32.212L112.856,32.147L112.824,32.08L112.779,31.979L112.734,31.869L112.69,31.755L112.647,31.634L112.602,31.507L112.557,31.373L112.51,31.23L112.462,31.081L112.413,30.923L112.363,30.759L112.312,30.586L112.258,30.406L112.149,30.028L112.035,29.623L111.916,29.195L111.793,28.745L111.667,28.276L111.538,27.79L111.405,27.29L111.271,26.778L110.997,25.73L110.444,23.599L110.172,22.557L110.039,22.052L109.909,21.56L109.782,21.084L109.659,20.626L109.54,20.189L109.425,19.777L109.316,19.391L109.213,19.034L109.164,18.869L109.117,18.712L109.072,18.564L109.026,18.416L108.987,18.289L108.948,18.15L108.91,18.008L108.873,17.864L108.801,17.574L108.728,17.278L108.695,17.146L108.619,17.205L108.515,17.283L108.408,17.36L108.299,17.435L108.188,17.508L108.074,17.58L107.959,17.651L107.841,17.721L107.721,17.79L107.599,17.857L107.475,17.923L107.349,17.988L107.222,18.052L107.093,18.114L106.962,18.176L106.83,18.236L106.697,18.294L106.563,18.352L106.427,18.408L106.29,18.462L106.153,18.516L106.014,18.567L105.875,18.617L105.736,18.666L105.596,18.713L105.455,18.758L105.314,18.802L105.173,18.843L105.032,18.883L104.891,18.921L104.75,18.957L104.609,18.991L104.468,19.023L104.327,19.052L104.187,19.08L104.047,19.105L103.908,19.127L103.769,19.147L103.631,19.165L103.493,19.179L103.355,19.191L103.219,19.2L103.082,19.206L102.946,19.208L102.815,19.207L102.742,19.205L102.675,19.202L102.607,19.198L102.539,19.193L102.471,19.186L102.403,19.179L102.336,19.17L102.268,19.16L102.199,19.149L102.131,19.136L102.063,19.122L101.994,19.106L101.926,19.088L101.857,19.069L101.788,19.047L101.719,19.024L101.65,18.998L101.581,18.97L101.512,18.94L101.441,18.906L101.357,18.862L101.274,18.815L101.194,18.766L101.116,18.714L101.042,18.661L100.971,18.607L100.903,18.552L100.838,18.495L100.775,18.438L100.715,18.381L100.658,18.323L100.604,18.265L100.552,18.207L100.502,18.149L100.454,18.092L100.408,18.035L100.364,17.978L100.32,17.919L100.243,17.812L100.169,17.705L100.099,17.601L100.035,17.501L99.974,17.406L99.859,17.227L99.807,17.148L99.756,17.073L99.706,17.001L99.684,16.972L99.662,16.942L99.64,16.913L99.618,16.886L99.597,16.861L99.577,16.838L99.558,16.816L99.539,16.796L99.521,16.777L99.503,16.76L99.487,16.745L99.471,16.73L99.455,16.718L99.441,16.706L99.427,16.696L99.413,16.686L99.4,16.678L99.388,16.67L99.375,16.663L99.362,16.657L99.349,16.651L99.336,16.645L99.322,16.639L99.307,16.634L99.291,16.629L99.269,16.623L99.238,16.616L99.207,16.609L99.178,16.604L99.152,16.6L99.129,16.597L99.109,16.594L99.091,16.593L99.076,16.592L99.063,16.592L99.053,16.592L99.044,16.593L99.038,16.593L99.033,16.594L99.029,16.594L99.026,16.595L99.024,16.595L99.023,16.596L99.022,16.596L99.021,16.596L99.019,16.597L99.017,16.598L99.015,16.599L99.011,16.601L99.006,16.603L99.001,16.606L98.994,16.61L98.985,16.615L98.976,16.621L98.965,16.629L98.957,16.635L98.922,16.661L98.887,16.689L98.847,16.724L98.801,16.764L98.75,16.811L98.629,16.922L98.56,16.985L98.485,17.053L98.404,17.124L98.315,17.198L98.224,17.271L98.169,17.312L98.117,17.35L98.062,17.389L98.005,17.427L97.947,17.466L97.886,17.503L97.823,17.541L97.758,17.577L97.691,17.613L97.62,17.649L97.554,17.68L97.487,17.709L97.42,17.736L97.353,17.762L97.287,17.785L97.22,17.807L97.154,17.827L97.088,17.846L97.022,17.864L96.956,17.88L96.89,17.896L96.82,17.911L96.693,17.936L96.561,17.958L96.428,17.977L96.296,17.993L96.163,18.006L96.03,18.017L95.897,18.026L95.763,18.033L95.63,18.038L95.498,18.041L95.365,18.042L95.234,18.041L95.103,18.039L94.974,18.036L94.846,18.031L94.719,18.025L94.594,18.018L94.472,18.009L94.351,18L94.233,17.989L94.117,17.978L94.004,17.966L93.895,17.952L93.788,17.938L93.684,17.923L93.583,17.907L93.488,17.891L93.392,17.872L93.298,17.853L93.204,17.832L93.111,17.81L93.019,17.786L92.928,17.761L92.838,17.734L92.748,17.707L92.66,17.678L92.572,17.648L92.485,17.617L92.399,17.585L92.314,17.551L92.23,17.517L92.147,17.482L92.065,17.445L91.983,17.408L91.902,17.37L91.823,17.331L91.744,17.291L91.665,17.251L91.588,17.209L91.512,17.167L91.436,17.124L91.361,17.081L91.287,17.037L91.213,16.992L91.141,16.947L91.066,16.9L90.927,16.808L90.788,16.714L90.652,16.617L90.518,16.52L90.386,16.421L90.257,16.321L90.129,16.221L90.004,16.12L89.88,16.018L89.758,15.917L89.637,15.814L89.402,15.613L89.171,15.412L88.944,15.214L88.719,15.019L88.609,14.924L88.499,14.831L88.389,14.739L88.28,14.649L88.172,14.561L88.064,14.474L87.956,14.39L87.848,14.309L87.741,14.229L87.634,14.152L87.527,14.078L87.42,14.006L87.31,13.936L87.259,13.904L87.205,13.871L87.152,13.839L87.098,13.808L87.045,13.777L86.991,13.748L86.937,13.719L86.883,13.69L86.829,13.663L86.775,13.636L86.721,13.61L86.667,13.585L86.612,13.561L86.558,13.537L86.503,13.515L86.448,13.493L86.392,13.471L86.337,13.451L86.281,13.431L86.225,13.413L86.169,13.395L86.112,13.377L86.055,13.361L85.998,13.346L85.94,13.331L85.882,13.317L85.823,13.304L85.763,13.292L85.704,13.281L85.681,13.277L85.656,13.322L85.601,13.412L85.543,13.501L85.506,13.554L85.47,13.602L85.433,13.65L85.394,13.698L85.353,13.746L85.31,13.794L85.266,13.842L85.195,13.914L85.145,13.958L85.019,14.054L85.004,14.064L84.877,14.137L84.86,14.146L84.74,14.199L84.722,14.206L84.611,14.241L84.542,14.26L84.427,14.28L84.322,14.292L84.226,14.296L84.138,14.295L84.057,14.29L83.981,14.282L83.91,14.273L83.843,14.261L83.778,14.248L83.717,14.235L83.652,14.218L83.545,14.188L83.436,14.154L83.331,14.117L83.228,14.079L83.128,14.04L83.029,13.999L82.932,13.958L82.835,13.916L82.653,13.834L82.478,13.753L82.317,13.679L82.171,13.612L82.109,13.585L82.053,13.561L82.006,13.541L81.976,13.529L81.974,13.529L81.94,13.526L81.906,13.524L81.87,13.522L81.833,13.521L81.795,13.521L81.756,13.521L81.716,13.522L81.676,13.524L81.634,13.526L81.591,13.53L81.548,13.534L81.504,13.539L81.459,13.544L81.414,13.551L81.368,13.558L81.321,13.566L81.275,13.574L81.227,13.584L81.179,13.594L81.131,13.605L81.083,13.616L81.034,13.629L80.986,13.642L80.937,13.656L80.888,13.67L80.839,13.685L80.79,13.701L80.74,13.717L80.691,13.734L80.643,13.752L80.594,13.77L80.545,13.789L80.497,13.809L80.449,13.829L80.401,13.849L80.354,13.87L80.307,13.892L80.261,13.914L80.215,13.936L80.169,13.959L80.125,13.982L80.08,14.005L80.037,14.029L79.994,14.053L79.952,14.078L79.911,14.102L79.87,14.127L79.83,14.152L79.792,14.177L79.754,14.203L79.717,14.228L79.681,14.253L79.647,14.279L79.613,14.304L79.58,14.329L79.549,14.354L79.519,14.379L79.49,14.404L79.463,14.428L79.437,14.452L79.412,14.476L79.36,14.527L79.326,14.557L79.229,14.634L79.173,14.675L79.074,14.734L78.984,14.78L78.9,14.815L78.823,14.843L78.752,14.866L78.685,14.884L78.622,14.899L78.555,14.912L78.45,14.929L78.343,14.942L78.239,14.951L78.139,14.957L78.04,14.96L77.942,14.962L77.845,14.962L77.748,14.96L77.652,14.958L77.556,14.954L77.46,14.949L77.277,14.939L77.099,14.926L76.933,14.914L76.781,14.901L76.649,14.89L76.543,14.882L76.468,14.877L76.458,14.877L76.45,14.876L76.295,14.876L76.129,14.874L75.965,14.87L75.804,14.866L75.491,14.857L75.187,14.849L75.04,14.845L74.896,14.843L74.754,14.842L74.616,14.842L74.48,14.843L74.347,14.847L74.217,14.852L74.087,14.859L74.028,14.864L73.966,14.869L73.905,14.874L73.845,14.88L73.785,14.887L73.726,14.895L73.668,14.903L73.61,14.912L73.554,14.921L73.497,14.932L73.442,14.943L73.387,14.954L73.332,14.967L73.278,14.98L73.225,14.994L73.172,15.009L73.119,15.024L73.067,15.041L73.015,15.058L72.964,15.076L72.913,15.095L72.862,15.115L72.811,15.136L72.761,15.158L72.711,15.182L72.661,15.206L72.61,15.231L72.56,15.258L72.51,15.286L72.46,15.315L72.41,15.346L72.359,15.378L72.263,15.441L72.166,15.508L72.068,15.578L71.968,15.651L71.868,15.727L71.767,15.805L71.664,15.887L71.561,15.971L71.457,16.058L71.352,16.148L71.246,16.239L71.14,16.333L71.032,16.429L70.924,16.527L70.816,16.627L70.707,16.728L70.485,16.937L70.261,17.151L70.035,17.37L69.806,17.592L69.574,17.817L69.339,18.044L69.101,18.271L68.86,18.498L68.737,18.613L68.615,18.726L68.491,18.839L68.366,18.951L68.24,19.063L68.113,19.174L67.985,19.284L67.856,19.393L67.726,19.501L67.595,19.608L67.462,19.713L67.328,19.817L67.193,19.919L67.056,20.019L66.918,20.118L66.778,20.214L66.637,20.309L66.494,20.401L66.349,20.49L66.206,20.576L66.129,20.62L66.055,20.662L65.98,20.703L65.904,20.743L65.828,20.783L65.752,20.821L65.675,20.859L65.598,20.896L65.52,20.933L65.441,20.968L65.362,21.002L65.283,21.036L65.203,21.069L65.122,21.1L65.041,21.131L64.959,21.16L64.877,21.188L64.794,21.216L64.711,21.242L64.627,21.267L64.543,21.291L64.457,21.313L64.372,21.335L64.276,21.357L64.175,21.377L64.063,21.393L63.95,21.404L63.837,21.408L63.724,21.406L63.612,21.398L63.501,21.384L63.393,21.364L63.288,21.338L63.185,21.308L63.087,21.273L62.993,21.235L62.902,21.193L62.817,21.148L62.735,21.101L62.657,21.053L62.584,21.002L62.514,20.951L62.448,20.899L62.386,20.847L62.326,20.795L62.27,20.742L62.216,20.69L62.165,20.637L62.116,20.586L62.066,20.531L61.981,20.434L61.9,20.336L61.824,20.241L61.753,20.151L61.688,20.066L61.566,19.907L61.513,19.84L61.463,19.778L61.414,19.721L61.396,19.7L61.376,19.679L61.358,19.66L61.342,19.644L61.327,19.629L61.314,19.618L61.309,19.613L61.306,19.612L61.284,19.608L61.261,19.605L61.237,19.601L61.212,19.598L61.19,19.596L61.13,19.59L61.07,19.587L61.007,19.585L60.94,19.584L60.87,19.585L60.795,19.588L60.718,19.592L60.637,19.597L60.554,19.604L60.469,19.611L60.284,19.629L59.891,19.671L59.684,19.692L59.573,19.701L59.462,19.71L59.349,19.717L59.233,19.723L59.116,19.726L58.995,19.727L58.873,19.726L58.748,19.722L58.625,19.714L58.556,19.708L58.485,19.701L58.409,19.691L58.329,19.677L58.251,19.661L58.176,19.643L58.102,19.623L58.031,19.6L57.962,19.576L57.895,19.551L57.83,19.525L57.767,19.497L57.706,19.469L57.647,19.439L57.589,19.409L57.529,19.376L57.427,19.317L57.324,19.253L57.227,19.188L57.134,19.123L57.045,19.058L56.959,18.993L56.877,18.929L56.797,18.865L56.72,18.803L56.577,18.685L56.441,18.573L56.378,18.523L56.319,18.475L56.262,18.432L56.209,18.392L56.16,18.356L56.115,18.325L56.075,18.299L56.036,18.275L56.026,18.27L56.013,18.262L56.002,18.257L55.992,18.252L55.985,18.249L55.98,18.247L55.978,18.246L55.974,18.244L55.944,18.234L55.91,18.223L55.874,18.212L55.838,18.202L55.801,18.192L55.762,18.182L55.723,18.173L55.683,18.164L55.641,18.155L55.599,18.147L55.556,18.14L55.512,18.133L55.467,18.126L55.424,18.12L55.327,18.108L55.229,18.098L55.129,18.091L55.025,18.084L54.919,18.079L54.811,18.076L54.7,18.074L54.588,18.074L54.473,18.075L54.357,18.077L54.239,18.079L54.119,18.083L54,18.087L53.753,18.098L53.504,18.11L53.253,18.121L53.002,18.131L52.873,18.135L52.745,18.138L52.617,18.14L52.486,18.141L52.356,18.14L52.225,18.136L52.095,18.13L51.967,18.121L51.841,18.109L51.716,18.095L51.593,18.079L51.471,18.06L51.351,18.038L51.233,18.015L51.116,17.988L51.001,17.96L50.888,17.929L50.776,17.896L50.666,17.861L50.558,17.824L50.451,17.784L50.347,17.743L50.244,17.7L50.143,17.655L50.044,17.608L49.947,17.56L49.851,17.51L49.758,17.459L49.666,17.406L49.576,17.352L49.488,17.297L49.401,17.24L49.317,17.183L49.234,17.125L49.152,17.066L49.072,17.006L48.994,16.945L48.918,16.884L48.842,16.822L48.769,16.76L48.696,16.698L48.625,16.635L48.555,16.572L48.487,16.508L48.419,16.445L48.351,16.379L48.223,16.254L48.097,16.127L47.974,16L47.854,15.875L47.737,15.75L47.651,15.659L47.576,15.701L47.472,15.758L47.365,15.817L47.254,15.876L47.139,15.935L47.021,15.993L46.9,16.05L46.779,16.104L46.712,16.132L46.648,16.159L46.582,16.184L46.515,16.209L46.446,16.233L46.376,16.256L46.305,16.277L46.231,16.298L46.155,16.317L46.077,16.334L45.996,16.349L45.911,16.362L45.823,16.372L45.731,16.379L45.634,16.381L45.532,16.379L45.425,16.37L45.314,16.354L45.197,16.329L45.098,16.301L44.937,16.247L44.795,16.198L44.517,16.1L44.237,16L43.958,15.896L43.679,15.791L43.401,15.683L43.123,15.574L42.845,15.464L42.567,15.352L42.289,15.239L41.737,15.013L41.184,14.786L40.632,14.561L40.357,14.45L40.082,14.34L39.807,14.231L39.533,14.124L39.258,14.019L38.985,13.916L38.711,13.815L38.438,13.717L38.164,13.622L38.03,13.576L37.894,13.53L37.758,13.485L37.622,13.441L37.487,13.398L37.351,13.356L37.216,13.315L37.08,13.275L36.945,13.236L36.81,13.198L36.676,13.161L36.541,13.125L36.407,13.09L36.277,13.057L36.205,13.04L36.134,13.025L36.06,13.011L35.984,12.999L35.904,12.987L35.821,12.977L35.736,12.967L35.649,12.96L35.559,12.953L35.467,12.948L35.373,12.944L35.277,12.942L35.18,12.94L35.08,12.941ZM93.487,31.666L93.469,31.728L93.453,31.793L93.437,31.861L93.422,31.931L93.408,32.004L93.396,32.078L93.384,32.155L93.374,32.232L93.365,32.31L93.358,32.389L93.352,32.468L93.347,32.547L93.343,32.626L93.341,32.704L93.34,32.781L93.341,32.857L93.343,32.931L93.346,33.004L93.35,33.074L93.355,33.142L93.361,33.207L93.368,33.268L93.376,33.326L93.385,33.38L93.394,33.428L93.404,33.472L93.413,33.509L93.421,33.54L93.429,33.563L93.44,33.595L93.48,33.699L93.523,33.818L93.565,33.937L93.606,34.056L93.645,34.175L93.683,34.293L93.72,34.412L93.755,34.53L93.789,34.648L93.823,34.765L93.855,34.883L93.887,35.001L93.946,35.232L94.003,35.464L94.058,35.694L94.11,35.922L94.16,36.149L94.209,36.374L94.305,36.819L94.353,37.038L94.4,37.254L94.44,37.428L94.48,37.599L94.522,37.769L94.566,37.938L94.611,38.105L94.658,38.272L94.706,38.437L94.755,38.601L94.806,38.765L94.858,38.927L94.911,39.088L94.966,39.248L95.022,39.408L95.08,39.566L95.139,39.723L95.199,39.88L95.26,40.035L95.323,40.19L95.387,40.344L95.452,40.497L95.518,40.649L95.586,40.8L95.655,40.951L95.725,41.1L95.796,41.249L95.868,41.398L95.941,41.545L96.016,41.692L96.091,41.838L96.168,41.984L96.245,42.129L96.324,42.273L96.404,42.417L96.485,42.56L96.567,42.702L96.649,42.844L96.733,42.985L96.818,43.126L96.904,43.267L96.99,43.406L97.078,43.546L97.166,43.685L97.255,43.823L97.346,43.961L97.437,44.098L97.529,44.236L97.621,44.372L97.715,44.509L97.809,44.645L97.904,44.78L98,44.915L98.096,45.05L98.193,45.185L98.291,45.318L98.489,45.587L98.69,45.854L98.893,46.12L99.098,46.386L99.305,46.65L99.515,46.914L99.726,47.178L99.939,47.441L100.154,47.704L100.37,47.968L100.586,48.23L101.025,48.758L101.723,49.595L101.693,49.552L101.628,49.453L101.565,49.354L101.505,49.254L101.446,49.154L101.389,49.053L101.335,48.952L101.282,48.85L101.231,48.748L101.182,48.646L101.134,48.544L101.088,48.441L101.044,48.338L101.001,48.236L100.959,48.133L100.919,48.03L100.881,47.926L100.843,47.823L100.807,47.72L100.772,47.617L100.738,47.514L100.706,47.412L100.674,47.309L100.643,47.206L100.613,47.102L100.557,46.9L100.503,46.697L100.452,46.495L100.403,46.294L100.356,46.095L100.311,45.898L100.267,45.702L100.182,45.318L100.099,44.942L100.057,44.759L100.015,44.579L99.972,44.401L99.929,44.228L99.884,44.058L99.837,43.889L99.814,43.81L99.79,43.73L99.766,43.65L99.741,43.572L99.698,43.443L99.655,43.315L99.609,43.187L99.563,43.061L99.515,42.935L99.467,42.809L99.417,42.685L99.365,42.56L99.313,42.437L99.259,42.314L99.205,42.191L99.149,42.069L99.092,41.947L99.035,41.826L98.976,41.705L98.916,41.584L98.855,41.464L98.794,41.344L98.731,41.224L98.668,41.104L98.604,40.984L98.539,40.865L98.473,40.746L98.407,40.628L98.271,40.388L98.133,40.15L97.993,39.912L97.851,39.673L97.707,39.433L97.561,39.193L97.267,38.708L97.118,38.464L96.97,38.217L96.821,37.969L96.672,37.718L96.525,37.465L96.378,37.209L96.233,36.951L96.16,36.819L96.088,36.687L96.017,36.555L95.946,36.421L95.876,36.287L95.806,36.151L95.737,36.015L95.669,35.878L95.601,35.739L95.534,35.599L95.468,35.456L95.403,35.312L95.338,35.167L95.276,35.022L95.214,34.877L95.153,34.731L95.033,34.443L94.914,34.157L94.795,33.873L94.736,33.734L94.676,33.597L94.616,33.461L94.555,33.327L94.494,33.196L94.433,33.067L94.37,32.94L94.307,32.817L94.243,32.696L94.177,32.576L94.146,32.522L94.113,32.465L94.08,32.41L94.047,32.355L94.013,32.302L93.98,32.249L93.946,32.198L93.912,32.147L93.877,32.098L93.843,32.05L93.808,32.003L93.774,31.956L93.739,31.911L93.703,31.868L93.668,31.825L93.632,31.783L93.597,31.743L93.561,31.704L93.525,31.666L93.496,31.636L93.487,31.666ZM27.566,12.673L27.608,12.691L27.659,12.708L27.683,12.715L27.556,12.669L27.566,12.673Z" style="fill:rgb(0,18,12);"/>
            </g>
        </g>
    </g>
</svg>
