<?xml version="1.0" standalone="no"?>
<!DOCTYPE svg PUBLIC "-//W3C//DTD SVG 1.1//EN" "http://www.w3.org/Graphics/SVG/1.1/DTD/svg11.dtd">
<svg width="100%" height="100%" viewBox="0 0 160 120" version="1.1" xmlns="http://www.w3.org/2000/svg" xmlns:xlink="http://www.w3.org/1999/xlink" xml:space="preserve" style="fill-rule:evenodd;clip-rule:evenodd;stroke-linejoin:round;stroke-miterlimit:1.41421;">
    <g transform="matrix(1,0,0,1,0,-1)">
        <g id="Layer1">
            <g>
                <path d="M64.052,4.883C66.903,5.139 76.161,4.263 76.757,4.564C81.267,6.844 116.112,30.462 120.008,33.586C121.615,34.875 120.128,37.899 121.401,38.693C122.563,39.417 123.509,38.437 124.359,38.867C125.135,39.259 124.41,40.846 125.113,41.132C126.119,41.539 128.148,40.348 128.305,40.435C129.07,40.86 128.943,42.157 129.552,42.525C130.496,43.095 131.53,42.341 132.366,42.525C133.331,42.737 133.783,44.383 134.483,44.962C134.917,45.322 136.038,44.907 136.34,45.223C138.122,47.086 134.687,49.679 136.079,51.986C136.824,53.219 140.857,52.053 141.793,51.637C142.367,51.381 142.973,50.235 143.418,50.68C144.094,51.356 143.418,56.463 143.418,57.586C143.418,64.726 142.417,72.521 138.4,78.569C138.027,79.13 136.077,79.059 135.47,79.178C133.138,79.636 122.444,79.345 120.53,80.31C118.436,81.365 118.338,83.053 115.773,83.474C113.528,83.843 111.732,81.757 110.059,80.921C108.497,80.14 105.394,81.975 104.083,82.574C102.289,83.395 100.868,84.503 99.326,85.651C98.45,86.303 96.361,86.451 95.612,87.189C95.052,87.74 96.201,89.351 95.439,89.539C94.175,89.851 92.089,88.604 90.971,89.626C89.731,90.76 89.999,92.98 89.289,93.69C88.695,94.285 86.793,93.179 86.126,93.922C85.675,94.425 85.656,96.841 85.518,96.911C83.586,97.899 82.236,92.454 80.238,94.444C78.208,96.466 81.623,99.037 80.645,100.016C79.541,101.119 77.965,102.109 76.671,102.977C76.306,103.221 76.777,104.145 76.352,104.254C75.649,104.433 72.995,104.369 72.579,104.979C71.772,106.163 73.745,110.057 73.508,111.741C73.434,112.265 72.589,112.373 72.376,112.872C72.099,113.523 72.585,115.495 71.826,115.949C71.236,116.302 70.566,115.992 70.027,116.53C69.482,117.075 68.866,118.766 67.823,118.561C66.391,118.28 67.958,114.259 65.879,113.918C63.472,113.523 64.057,115.712 62.862,116.906C62.644,117.125 61.034,117.419 60.658,117.546C60.075,117.741 60.264,116.94 59.758,116.878C59.426,116.837 54.391,116.509 54.014,116.646C53.617,116.79 52.058,118.956 51.839,118.823C49.957,117.687 50.871,113.748 49.983,111.973C49.68,111.366 48.62,111.35 48.039,111.422C47.781,111.454 47.697,112.191 47.517,112.003C46.941,111.401 49.899,110.076 50.012,109.275C50.148,108.311 47.921,108.515 47.517,107.707C46.934,106.542 47.28,104.544 46.733,103.586C46.577,103.312 45.412,101.558 45.051,101.439C43.292,100.861 43.538,103.274 42.586,103.76C40.501,104.826 37.428,102.094 35.536,102.861C34.22,103.394 35.444,105.813 33.245,105.357C31.716,105.04 32.236,103.339 31.447,102.745C30.405,101.961 29.079,104.148 28.43,103.499C27.924,102.993 28.368,100.55 28.546,99.9C29.055,98.038 28.84,95.477 28.023,93.806C27.54,92.818 24.695,95.25 23.788,93.138C23.195,91.758 25.44,88.734 24.832,87.914C23.815,86.543 20.392,85.453 21.236,83.212C21.674,82.047 24.761,83.386 25.645,81.993C26.5,80.645 25.386,79.586 25.964,78.424C26.232,77.885 27.024,77.794 27.53,77.669C27.807,77.601 29.474,77.004 29.734,77.35C30.209,77.981 31.141,81.957 32.81,80.949C33.476,80.547 33.935,79.069 34.637,78.888C36.812,78.326 39.095,79.494 41.309,78.947C42.246,78.715 42.22,76.343 43.165,76.654C43.809,76.865 43.765,77.967 44.443,78.134C48.768,79.203 53.095,79.379 57.583,79.063C61.1,78.815 65.045,79.588 68.461,78.743C69.308,78.534 71.483,78.797 72.145,78.105C72.379,77.861 73.466,73.069 73.219,72.707C72.842,72.154 71.724,72.632 71.332,71.865C69.71,68.691 64.052,4.883 64.052,4.883Z" style="fill:rgb(38,142,105);"/>
                <path d="M29.538,75.998L29.613,76.004L29.692,76.013L29.775,76.026L29.863,76.045L29.956,76.069L30.056,76.102L30.162,76.145L30.274,76.201L30.339,76.24L30.439,76.308L30.456,76.321L30.558,76.406L30.573,76.42L30.673,76.524L30.686,76.54L30.755,76.629L30.796,76.686L30.849,76.77L30.895,76.849L30.935,76.924L30.973,76.998L31.009,77.072L31.043,77.146L31.078,77.222L31.142,77.37L31.207,77.526L31.272,77.686L31.339,77.851L31.407,78.019L31.477,78.19L31.548,78.361L31.622,78.532L31.698,78.704L31.735,78.785L31.773,78.867L31.812,78.948L31.851,79.027L31.89,79.104L31.929,79.179L31.968,79.252L32.007,79.322L32.046,79.39L32.085,79.454L32.123,79.515L32.16,79.572L32.197,79.626L32.232,79.675L32.266,79.719L32.278,79.733L32.316,79.68L32.359,79.619L32.404,79.553L32.45,79.483L32.553,79.325L32.66,79.157L32.718,79.068L32.779,78.977L32.842,78.884L32.908,78.789L32.978,78.693L33.052,78.595L33.128,78.5L33.173,78.447L33.217,78.397L33.262,78.347L33.31,78.297L33.36,78.247L33.412,78.197L33.468,78.146L33.526,78.097L33.587,78.047L33.652,77.999L33.721,77.951L33.794,77.904L33.871,77.859L33.952,77.816L34.039,77.776L34.129,77.739L34.225,77.706L34.314,77.68L34.454,77.646L34.584,77.617L34.714,77.591L34.843,77.569L34.972,77.549L35.1,77.532L35.227,77.518L35.353,77.506L35.479,77.497L35.604,77.489L35.728,77.485L35.851,77.482L35.973,77.481L36.095,77.481L36.215,77.484L36.335,77.488L36.454,77.493L36.571,77.5L36.688,77.508L36.804,77.517L36.92,77.527L37.036,77.538L37.259,77.562L37.482,77.588L37.7,77.616L37.916,77.644L38.127,77.673L38.336,77.702L38.54,77.729L38.742,77.755L38.939,77.778L39.135,77.799L39.229,77.808L39.323,77.817L39.417,77.824L39.509,77.831L39.601,77.836L39.691,77.84L39.781,77.844L39.869,77.846L39.957,77.847L40.043,77.846L40.129,77.845L40.213,77.842L40.297,77.837L40.379,77.832L40.461,77.825L40.541,77.816L40.621,77.806L40.7,77.795L40.778,77.782L40.803,77.777L40.805,77.773L40.82,77.744L40.836,77.711L40.853,77.675L40.869,77.64L40.907,77.552L40.945,77.459L40.985,77.359L41.071,77.139L41.118,77.021L41.168,76.899L41.22,76.776L41.251,76.708L41.282,76.642L41.315,76.575L41.35,76.507L41.387,76.437L41.428,76.366L41.472,76.294L41.52,76.22L41.572,76.145L41.631,76.069L41.695,75.991L41.767,75.913L41.847,75.835L41.937,75.758L42.037,75.682L42.137,75.617L42.206,75.578L42.268,75.546L42.333,75.516L42.4,75.488L42.469,75.463L42.54,75.441L42.613,75.421L42.687,75.405L42.763,75.393L42.838,75.383L42.914,75.378L42.99,75.375L43.065,75.377L43.139,75.381L43.213,75.388L43.285,75.399L43.355,75.412L43.423,75.428L43.49,75.446L43.559,75.467L43.643,75.497L43.728,75.532L43.81,75.57L43.889,75.612L43.965,75.657L44.037,75.704L44.106,75.754L44.17,75.804L44.231,75.856L44.288,75.909L44.341,75.962L44.391,76.015L44.437,76.068L44.48,76.12L44.52,76.172L44.562,76.229L44.625,76.321L44.683,76.415L44.735,76.505L44.78,76.59L44.821,76.668L44.857,76.743L44.917,76.867L44.97,76.976L45.133,77.015L45.329,77.06L45.524,77.104L45.72,77.147L45.915,77.188L46.111,77.228L46.307,77.268L46.502,77.305L46.698,77.342L46.894,77.378L47.09,77.412L47.286,77.445L47.482,77.478L47.678,77.509L47.874,77.538L48.071,77.567L48.267,77.595L48.464,77.621L48.66,77.647L48.857,77.671L49.054,77.695L49.251,77.717L49.448,77.738L49.646,77.758L49.843,77.777L50.041,77.795L50.238,77.812L50.436,77.828L50.634,77.843L50.833,77.857L51.031,77.87L51.229,77.883L51.428,77.894L51.627,77.904L51.826,77.913L52.026,77.921L52.225,77.928L52.425,77.935L52.625,77.94L52.825,77.945L53.025,77.948L53.226,77.951L53.427,77.953L53.628,77.954L53.829,77.954L54.03,77.953L54.232,77.951L54.434,77.949L54.636,77.946L54.839,77.941L55.041,77.936L55.244,77.931L55.448,77.924L55.651,77.917L55.855,77.908L56.059,77.899L56.263,77.89L56.468,77.879L56.672,77.868L57.084,77.843L57.5,77.815L57.672,77.804L57.848,77.794L58.025,77.785L58.202,77.778L58.378,77.772L58.555,77.768L58.732,77.764L58.909,77.762L59.085,77.761L59.262,77.761L59.438,77.762L59.616,77.763L59.967,77.769L60.319,77.777L60.671,77.788L61.021,77.799L61.371,77.813L61.719,77.826L62.412,77.853L62.756,77.866L63.098,77.877L63.438,77.887L63.777,77.894L63.944,77.897L64.112,77.899L64.279,77.9L64.445,77.9L64.61,77.9L64.775,77.898L64.939,77.896L65.102,77.892L65.264,77.887L65.425,77.882L65.586,77.875L65.746,77.867L65.904,77.857L66.062,77.846L66.219,77.834L66.375,77.82L66.53,77.805L66.684,77.789L66.837,77.771L66.988,77.751L67.139,77.729L67.288,77.706L67.437,77.682L67.584,77.655L67.73,77.626L67.875,77.596L68.018,77.564L68.174,77.527L68.233,77.513L68.304,77.498L68.373,77.486L68.442,77.474L68.51,77.464L68.581,77.455L68.71,77.441L68.843,77.429L68.976,77.419L69.109,77.411L69.243,77.404L69.508,77.393L69.774,77.383L70.039,77.372L70.166,77.365L70.292,77.358L70.414,77.35L70.533,77.34L70.646,77.329L70.758,77.316L70.806,77.309L70.856,77.302L70.904,77.295L70.95,77.287L70.994,77.279L71.036,77.271L71.075,77.262L71.112,77.253L71.137,77.247L71.152,77.197L71.194,77.05L71.238,76.886L71.286,76.707L71.335,76.514L71.385,76.31L71.436,76.097L71.487,75.877L71.539,75.652L71.59,75.422L71.639,75.191L71.688,74.96L71.734,74.73L71.778,74.504L71.82,74.284L71.858,74.07L71.893,73.866L71.924,73.674L71.938,73.581L71.851,73.567L71.743,73.546L71.635,73.521L71.569,73.503L71.507,73.486L71.443,73.466L71.378,73.443L71.311,73.418L71.243,73.389L71.173,73.358L71.102,73.323L71.031,73.284L70.96,73.242L70.888,73.195L70.817,73.145L70.746,73.09L70.677,73.031L70.61,72.968L70.545,72.901L70.482,72.83L70.422,72.756L70.366,72.679L70.313,72.6L70.264,72.518L70.218,72.432L70.175,72.342L70.137,72.254L70.103,72.168L70.072,72.082L70.043,71.995L70.015,71.907L69.989,71.816L69.962,71.722L69.937,71.625L69.911,71.525L69.886,71.42L69.86,71.312L69.835,71.2L69.809,71.082L69.758,70.839L69.706,70.576L69.653,70.297L69.6,70L69.545,69.686L69.49,69.355L69.433,69.007L69.376,68.643L69.318,68.262L69.258,67.866L69.198,67.453L69.137,67.025L69.075,66.582L69.012,66.124L68.948,65.652L68.884,65.166L68.818,64.665L68.752,64.152L68.685,63.625L68.617,63.085L68.549,62.533L68.48,61.968L68.41,61.392L68.269,60.206L68.125,58.977L67.979,57.708L67.832,56.401L67.682,55.06L67.532,53.688L67.379,52.286L67.226,50.858L67.073,49.407L66.918,47.936L66.763,46.448L66.609,44.944L66.454,43.429L66.299,41.905L66.145,40.374L65.992,38.841L65.84,37.307L65.689,35.775L65.539,34.248L65.391,32.73L65.245,31.222L64.959,28.251L64.683,25.357L64.419,22.565L64.169,19.895L63.934,17.372L63.717,15.017L63.518,12.854L63.34,10.906L63.185,9.194L63.053,7.743L62.871,5.712L62.807,4.994L62.809,4.752L62.857,4.516L62.95,4.293L63.084,4.092L63.254,3.921L63.453,3.785L63.675,3.691L63.912,3.641L64.153,3.637L64.281,3.647L64.41,3.656L64.551,3.663L64.701,3.669L64.862,3.674L65.031,3.677L65.209,3.679L65.395,3.68L65.588,3.68L65.789,3.679L65.996,3.676L66.209,3.673L66.428,3.668L66.652,3.663L66.882,3.657L67.115,3.649L67.596,3.632L68.09,3.613L68.594,3.591L69.107,3.566L69.625,3.541L70.145,3.514L71.183,3.458L72.195,3.403L73.162,3.352L73.622,3.328L74.063,3.307L74.482,3.289L74.877,3.273L75.244,3.262L75.419,3.257L75.585,3.254L75.744,3.251L75.896,3.25L76.041,3.25L76.178,3.252L76.309,3.255L76.434,3.26L76.555,3.267L76.674,3.277L76.788,3.29L76.859,3.302L76.928,3.314L77.004,3.332L77.092,3.356L77.197,3.392L77.295,3.435L77.448,3.514L77.583,3.586L77.727,3.664L77.879,3.75L78.041,3.841L78.212,3.94L78.392,4.045L78.581,4.156L78.779,4.274L78.986,4.399L79.202,4.53L79.428,4.668L79.903,4.96L80.413,5.277L80.955,5.618L81.528,5.981L82.132,6.365L82.764,6.769L83.424,7.193L84.109,7.636L84.819,8.097L85.552,8.574L86.307,9.068L87.083,9.576L87.878,10.098L88.69,10.633L89.519,11.18L90.362,11.738L91.219,12.307L92.089,12.884L92.969,13.47L93.858,14.063L94.755,14.663L95.659,15.268L96.568,15.877L97.48,16.49L98.395,17.105L99.311,17.722L100.227,18.34L101.14,18.957L102.956,20.186L104.748,21.403L105.631,22.004L106.504,22.599L107.366,23.187L108.214,23.767L109.048,24.338L109.866,24.899L110.667,25.45L111.449,25.988L112.211,26.514L112.952,27.026L113.67,27.524L114.363,28.006L115.032,28.471L115.673,28.919L116.286,29.348L116.869,29.758L117.421,30.148L117.94,30.517L118.426,30.864L118.877,31.187L119.292,31.487L119.669,31.763L120.008,32.013L120.307,32.237L120.443,32.34L120.568,32.436L120.684,32.527L120.793,32.614L120.851,32.661L120.911,32.713L120.969,32.766L121.025,32.82L121.08,32.875L121.133,32.931L121.185,32.988L121.234,33.046L121.282,33.105L121.328,33.165L121.373,33.225L121.415,33.286L121.456,33.347L121.496,33.409L121.533,33.472L121.569,33.534L121.603,33.597L121.636,33.661L121.667,33.724L121.696,33.788L121.724,33.851L121.75,33.914L121.776,33.978L121.799,34.042L121.822,34.105L121.843,34.168L121.862,34.231L121.882,34.299L121.915,34.419L121.944,34.543L121.97,34.666L121.992,34.788L122.011,34.909L122.027,35.028L122.041,35.146L122.052,35.262L122.06,35.377L122.067,35.491L122.073,35.603L122.076,35.713L122.079,35.822L122.081,35.931L122.081,36.137L122.079,36.338L122.075,36.714L122.073,36.888L122.074,37.053L122.076,37.126L122.078,37.199L122.081,37.268L122.085,37.333L122.089,37.393L122.095,37.45L122.101,37.501L122.107,37.548L122.114,37.589L122.121,37.625L122.129,37.655L122.133,37.671L122.14,37.674L122.156,37.681L122.172,37.688L122.186,37.693L122.2,37.697L122.214,37.701L122.227,37.705L122.24,37.708L122.254,37.711L122.268,37.713L122.282,37.715L122.297,37.716L122.313,37.718L122.33,37.718L122.348,37.719L122.367,37.719L122.387,37.718L122.409,37.717L122.432,37.716L122.456,37.714L122.482,37.711L122.51,37.708L122.535,37.704L122.602,37.693L122.671,37.681L122.744,37.666L122.916,37.63L123.009,37.61L123.11,37.589L123.219,37.568L123.335,37.547L123.454,37.53L123.524,37.522L123.592,37.515L123.662,37.51L123.734,37.506L123.809,37.504L123.886,37.504L123.965,37.506L124.046,37.51L124.129,37.518L124.214,37.529L124.301,37.543L124.389,37.56L124.478,37.582L124.567,37.608L124.657,37.637L124.746,37.671L124.836,37.709L124.929,37.754L125.029,37.808L125.13,37.872L125.226,37.943L125.318,38.018L125.403,38.099L125.481,38.183L125.553,38.27L125.617,38.359L125.675,38.448L125.726,38.537L125.77,38.626L125.809,38.713L125.843,38.798L125.872,38.882L125.897,38.963L125.918,39.043L125.936,39.12L125.951,39.194L125.964,39.267L125.974,39.337L125.983,39.405L125.991,39.476L126,39.597L126.007,39.715L126.01,39.827L126.012,39.909L126.036,39.903L126.084,39.891L126.133,39.878L126.18,39.865L126.286,39.834L126.39,39.801L126.496,39.765L126.603,39.728L126.709,39.688L126.815,39.648L126.92,39.607L127.021,39.566L127.223,39.484L127.409,39.407L127.5,39.37L127.591,39.335L127.683,39.3L127.782,39.266L127.887,39.235L127.968,39.215L128.058,39.198L128.116,39.19L128.236,39.181L128.25,39.181L128.431,39.189L128.443,39.19L128.584,39.215L128.722,39.257L128.731,39.26L128.934,39.355L128.992,39.389L129.071,39.439L129.146,39.492L129.218,39.547L129.286,39.604L129.351,39.662L129.413,39.722L129.471,39.783L129.526,39.845L129.578,39.907L129.626,39.969L129.672,40.031L129.714,40.093L129.754,40.154L129.791,40.216L129.826,40.276L129.859,40.336L129.89,40.395L129.918,40.453L129.947,40.514L129.994,40.62L130.038,40.727L130.077,40.83L130.112,40.928L130.144,41.02L130.173,41.108L130.225,41.266L130.249,41.335L130.27,41.397L130.29,41.452L130.304,41.488L130.322,41.49L130.336,41.491L130.352,41.491L130.369,41.492L130.388,41.492L130.408,41.491L130.43,41.49L130.453,41.489L130.477,41.486L130.499,41.484L130.56,41.477L130.621,41.468L130.688,41.456L130.76,41.443L130.837,41.427L130.919,41.41L131.097,41.372L131.194,41.351L131.295,41.331L131.402,41.311L131.514,41.292L131.632,41.275L131.75,41.262L131.819,41.255L131.885,41.251L131.953,41.247L132.022,41.245L132.094,41.245L132.166,41.246L132.241,41.25L132.317,41.255L132.394,41.263L132.473,41.274L132.553,41.287L132.638,41.305L132.737,41.329L132.836,41.358L132.933,41.392L133.027,41.429L133.118,41.469L133.205,41.513L133.288,41.559L133.369,41.607L133.445,41.657L133.519,41.709L133.589,41.762L133.657,41.816L133.721,41.871L133.783,41.926L133.842,41.983L133.899,42.039L133.953,42.096L134.006,42.153L134.056,42.21L134.105,42.268L134.151,42.325L134.197,42.382L134.241,42.439L134.285,42.499L134.364,42.609L134.44,42.721L134.513,42.831L134.582,42.94L134.648,43.045L134.711,43.149L134.829,43.344L134.94,43.526L134.991,43.607L135.04,43.683L135.086,43.753L135.129,43.815L135.168,43.869L135.216,43.868L135.27,43.866L135.399,43.86L135.542,43.853L135.695,43.847L135.785,43.845L135.875,43.845L135.972,43.847L136.075,43.852L136.186,43.863L136.296,43.878L136.368,43.892L136.434,43.906L136.504,43.924L136.577,43.946L136.654,43.973L136.733,44.005L136.816,44.044L136.9,44.089L136.987,44.143L137.074,44.206L137.16,44.277L137.232,44.347L137.306,44.426L137.368,44.496L137.426,44.566L137.483,44.638L137.538,44.711L137.59,44.785L137.64,44.861L137.688,44.938L137.733,45.015L137.775,45.094L137.815,45.174L137.853,45.254L137.887,45.335L137.92,45.416L137.949,45.498L137.976,45.58L138.001,45.663L138.023,45.745L138.042,45.827L138.059,45.91L138.074,45.992L138.086,46.073L138.096,46.154L138.104,46.235L138.11,46.315L138.113,46.394L138.115,46.473L138.116,46.551L138.114,46.628L138.111,46.704L138.106,46.78L138.1,46.855L138.092,46.929L138.084,47.002L138.074,47.075L138.063,47.147L138.05,47.217L138.037,47.287L138.023,47.357L138.008,47.429L137.976,47.56L137.942,47.693L137.904,47.823L137.865,47.95L137.824,48.075L137.782,48.198L137.739,48.319L137.696,48.438L137.651,48.556L137.607,48.672L137.519,48.896L137.432,49.114L137.349,49.328L137.31,49.43L137.272,49.532L137.236,49.631L137.202,49.728L137.17,49.823L137.141,49.916L137.113,50.007L137.089,50.095L137.067,50.181L137.046,50.267L137.038,50.304L137.03,50.344L137.023,50.383L137.017,50.421L137.011,50.458L137.006,50.495L137.001,50.531L136.997,50.566L136.994,50.6L136.992,50.634L136.99,50.666L136.989,50.698L136.988,50.729L136.988,50.76L136.989,50.79L136.99,50.819L136.992,50.848L136.994,50.875L136.997,50.903L137.001,50.93L137.005,50.956L137.01,50.982L137.015,51.007L137.021,51.033L137.027,51.058L137.035,51.083L137.042,51.108L137.051,51.133L137.06,51.158L137.07,51.183L137.081,51.208L137.091,51.23L137.11,51.235L137.128,51.24L137.148,51.244L137.169,51.249L137.188,51.252L137.243,51.261L137.299,51.268L137.36,51.274L137.425,51.279L137.496,51.283L137.57,51.285L137.648,51.286L137.729,51.285L137.814,51.283L137.901,51.279L137.991,51.273L138.083,51.266L138.178,51.258L138.274,51.248L138.372,51.237L138.471,51.224L138.571,51.21L138.672,51.195L138.774,51.178L138.877,51.161L138.98,51.142L139.083,51.123L139.186,51.102L139.289,51.081L139.392,51.059L139.493,51.036L139.595,51.013L139.695,50.989L139.794,50.965L139.89,50.94L140.083,50.889L140.267,50.838L140.443,50.787L140.608,50.736L140.762,50.687L140.902,50.64L141.027,50.596L141.135,50.556L141.226,50.52L141.253,50.508L141.255,50.507L141.274,50.492L141.3,50.47L141.332,50.441L141.369,50.407L141.411,50.368L141.455,50.324L141.558,50.221L141.669,50.11L141.732,50.048L141.798,49.985L141.868,49.92L141.944,49.853L142.026,49.785L142.11,49.719L142.164,49.68L142.216,49.644L142.271,49.609L142.33,49.573L142.393,49.538L142.461,49.503L142.534,49.469L142.613,49.437L142.697,49.407L142.789,49.38L142.887,49.358L142.992,49.341L143.103,49.33L143.22,49.328L143.34,49.334L143.463,49.351L143.587,49.378L143.708,49.416L143.825,49.463L143.936,49.518L144.04,49.581L144.135,49.649L144.223,49.72L144.303,49.796L144.372,49.87L144.434,49.944L144.488,50.018L144.536,50.09L144.578,50.161L144.615,50.229L144.648,50.296L144.678,50.362L144.704,50.426L144.728,50.489L144.749,50.551L144.769,50.612L144.787,50.673L144.805,50.738L144.832,50.851L144.856,50.969L144.877,51.087L144.895,51.206L144.91,51.325L144.924,51.446L144.935,51.569L144.944,51.693L144.951,51.819L144.957,51.947L144.962,52.076L144.965,52.208L144.967,52.341L144.968,52.476L144.968,52.612L144.967,52.75L144.965,52.889L144.962,53.03L144.958,53.173L144.948,53.457L144.935,53.745L144.92,54.035L144.902,54.325L144.883,54.613L144.863,54.899L144.843,55.18L144.8,55.722L144.759,56.229L144.722,56.687L144.706,56.893L144.693,57.08L144.682,57.247L144.674,57.39L144.669,57.509L144.668,57.55L144.668,57.593L144.667,57.927L144.665,58.268L144.661,58.611L144.656,58.955L144.648,59.299L144.639,59.645L144.629,59.991L144.616,60.338L144.602,60.685L144.585,61.034L144.567,61.382L144.547,61.732L144.524,62.081L144.5,62.432L144.473,62.782L144.444,63.133L144.413,63.484L144.379,63.835L144.344,64.187L144.305,64.538L144.265,64.89L144.221,65.241L144.175,65.592L144.127,65.944L144.076,66.295L144.022,66.646L143.965,66.996L143.906,67.346L143.843,67.696L143.778,68.046L143.71,68.393L143.675,68.569L143.639,68.743L143.602,68.917L143.564,69.091L143.526,69.264L143.487,69.438L143.447,69.611L143.406,69.784L143.365,69.957L143.322,70.13L143.279,70.302L143.235,70.474L143.19,70.647L143.145,70.818L143.098,70.99L143.051,71.161L143.002,71.332L142.953,71.503L142.903,71.674L142.852,71.844L142.8,72.014L142.748,72.184L142.694,72.353L142.64,72.523L142.584,72.691L142.528,72.86L142.471,73.028L142.413,73.196L142.353,73.364L142.293,73.531L142.232,73.698L142.17,73.864L142.107,74.031L142.043,74.196L141.978,74.362L141.912,74.527L141.846,74.691L141.778,74.856L141.709,75.02L141.639,75.183L141.568,75.346L141.496,75.509L141.423,75.671L141.349,75.832L141.273,75.994L141.197,76.154L141.12,76.315L141.042,76.474L140.962,76.634L140.882,76.793L140.8,76.951L140.717,77.109L140.634,77.266L140.549,77.423L140.463,77.579L140.376,77.735L140.287,77.89L140.198,78.045L140.107,78.199L140.016,78.352L139.923,78.505L139.829,78.657L139.734,78.809L139.637,78.96L139.54,79.111L139.429,79.279L139.369,79.362L139.292,79.454L139.213,79.537L139.133,79.61L139.053,79.676L138.973,79.735L138.894,79.787L138.817,79.834L138.74,79.876L138.665,79.914L138.59,79.949L138.517,79.98L138.445,80.008L138.374,80.034L138.303,80.058L138.233,80.08L138.163,80.101L138.094,80.119L138.026,80.137L137.953,80.154L137.822,80.182L137.688,80.208L137.554,80.23L137.422,80.249L137.29,80.267L137.16,80.282L137.032,80.295L136.906,80.307L136.782,80.318L136.66,80.327L136.432,80.344L136.219,80.359L136.028,80.372L135.947,80.379L135.873,80.385L135.81,80.392L135.76,80.398L135.727,80.402L135.694,80.408L135.637,80.419L135.559,80.433L135.408,80.456L135.247,80.478L135.079,80.498L134.903,80.517L134.719,80.534L134.528,80.55L134.328,80.566L134.12,80.58L133.905,80.594L133.683,80.606L133.453,80.619L133.217,80.63L132.973,80.641L132.469,80.662L131.943,80.681L131.397,80.699L130.835,80.716L130.259,80.733L129.08,80.767L128.483,80.785L127.885,80.804L127.289,80.824L126.698,80.846L126.115,80.87L125.829,80.884L125.546,80.897L125.267,80.912L124.991,80.927L124.721,80.943L124.456,80.96L124.196,80.977L123.942,80.996L123.695,81.015L123.454,81.036L123.221,81.057L122.996,81.08L122.78,81.103L122.572,81.127L122.374,81.153L122.186,81.179L122.007,81.206L121.925,81.22L121.844,81.234L121.767,81.248L121.692,81.262L121.621,81.277L121.553,81.291L121.489,81.306L121.429,81.32L121.373,81.334L121.321,81.348L121.274,81.361L121.231,81.374L121.194,81.387L121.162,81.398L121.135,81.408L121.114,81.416L121.1,81.423L121.088,81.429L121.017,81.465L120.945,81.504L120.875,81.544L120.807,81.584L120.741,81.625L120.677,81.666L120.615,81.708L120.554,81.75L120.494,81.793L120.436,81.837L120.379,81.881L120.323,81.926L120.268,81.972L120.213,82.019L120.159,82.066L120.106,82.114L120.052,82.163L119.999,82.213L119.946,82.264L119.895,82.315L119.786,82.424L119.678,82.534L119.453,82.768L119.335,82.89L119.211,83.014L119.084,83.14L119.015,83.206L118.945,83.271L118.874,83.336L118.801,83.401L118.725,83.466L118.647,83.531L118.567,83.596L118.484,83.661L118.399,83.725L118.311,83.788L118.22,83.851L118.127,83.912L118.031,83.972L117.932,84.031L117.831,84.089L117.726,84.145L117.619,84.199L117.509,84.251L117.397,84.301L117.281,84.35L117.163,84.396L117.042,84.44L116.919,84.482L116.792,84.521L116.663,84.558L116.532,84.593L116.397,84.625L116.26,84.655L116.119,84.683L115.977,84.707L115.904,84.719L115.831,84.729L115.759,84.738L115.687,84.745L115.615,84.752L115.544,84.757L115.472,84.761L115.401,84.764L115.33,84.766L115.26,84.767L115.189,84.767L115.12,84.766L115.05,84.763L114.981,84.76L114.912,84.755L114.838,84.749L114.707,84.736L114.573,84.718L114.44,84.697L114.309,84.672L114.179,84.644L114.052,84.614L113.926,84.58L113.802,84.543L113.68,84.504L113.559,84.463L113.44,84.419L113.324,84.373L113.208,84.326L113.095,84.276L112.983,84.225L112.873,84.173L112.764,84.119L112.657,84.064L112.552,84.007L112.448,83.95L112.345,83.892L112.243,83.833L112.144,83.773L112.045,83.713L111.948,83.652L111.851,83.591L111.756,83.53L111.661,83.467L111.479,83.345L111.3,83.222L111.125,83.1L110.954,82.98L110.625,82.748L110.467,82.638L110.314,82.533L110.163,82.432L110.092,82.385L110.02,82.339L109.95,82.295L109.881,82.253L109.814,82.212L109.748,82.173L109.683,82.136L109.62,82.102L109.559,82.069L109.502,82.04L109.493,82.035L109.486,82.032L109.477,82.029L109.468,82.025L109.459,82.022L109.448,82.018L109.436,82.015L109.423,82.011L109.41,82.007L109.395,82.004L109.379,82.001L109.362,81.998L109.344,81.995L109.326,81.992L109.306,81.989L109.284,81.987L109.262,81.985L109.239,81.983L109.215,81.982L109.195,81.981L109.136,81.98L109.079,81.981L109.019,81.984L108.955,81.989L108.888,81.996L108.817,82.004L108.744,82.015L108.669,82.028L108.59,82.042L108.51,82.059L108.428,82.078L108.343,82.098L108.257,82.121L108.169,82.145L108.08,82.171L107.989,82.199L107.897,82.228L107.805,82.259L107.711,82.292L107.616,82.325L107.521,82.361L107.425,82.397L107.329,82.434L107.232,82.473L107.135,82.512L107.038,82.553L106.941,82.594L106.846,82.635L106.651,82.722L106.459,82.809L106.269,82.898L106.082,82.987L105.899,83.077L105.719,83.165L105.544,83.252L105.208,83.419L105.048,83.498L104.894,83.573L104.746,83.645L104.611,83.707L104.451,83.782L104.3,83.854L104.151,83.928L104.003,84.004L103.857,84.081L103.712,84.16L103.569,84.24L103.426,84.321L103.284,84.405L103.143,84.489L103.003,84.575L102.864,84.662L102.725,84.751L102.586,84.841L102.448,84.932L102.311,85.025L102.173,85.119L102.035,85.214L101.898,85.31L101.76,85.408L101.623,85.506L101.486,85.605L101.207,85.809L100.928,86.015L100.646,86.225L100.065,86.659L99.999,86.707L99.925,86.756L99.851,86.803L99.778,86.847L99.704,86.889L99.63,86.929L99.557,86.966L99.483,87.002L99.41,87.037L99.337,87.069L99.263,87.101L99.19,87.131L99.117,87.16L99.041,87.189L98.899,87.241L98.754,87.291L98.609,87.338L98.465,87.383L98.321,87.427L98.044,87.509L97.77,87.588L97.639,87.626L97.511,87.664L97.388,87.702L97.269,87.74L97.156,87.777L97.049,87.814L96.945,87.852L96.901,87.869L96.856,87.887L96.812,87.905L96.772,87.922L96.75,87.932L96.752,87.939L96.771,88.02L96.816,88.203L96.84,88.302L96.865,88.408L96.889,88.52L96.911,88.634L96.922,88.701L96.932,88.766L96.941,88.834L96.949,88.905L96.955,88.979L96.959,89.057L96.96,89.139L96.958,89.226L96.952,89.318L96.94,89.416L96.922,89.52L96.896,89.63L96.861,89.745L96.813,89.864L96.753,89.986L96.709,90.057L96.644,90.155L96.626,90.178L96.549,90.271L96.53,90.293L96.442,90.38L96.42,90.399L96.325,90.477L96.301,90.495L96.2,90.561L96.174,90.577L96.073,90.631L95.995,90.668L95.866,90.717L95.749,90.75L95.631,90.777L95.524,90.797L95.418,90.813L95.314,90.825L95.212,90.833L95.111,90.838L95.012,90.841L94.915,90.841L94.819,90.838L94.725,90.834L94.631,90.828L94.54,90.82L94.449,90.811L94.36,90.801L94.272,90.79L94.182,90.777L94.014,90.751L93.847,90.722L93.684,90.692L93.526,90.661L93.22,90.601L93.074,90.573L92.934,90.548L92.795,90.524L92.733,90.514L92.669,90.505L92.607,90.496L92.547,90.489L92.489,90.482L92.433,90.477L92.379,90.473L92.327,90.469L92.278,90.467L92.231,90.466L92.186,90.466L92.145,90.467L92.106,90.468L92.07,90.471L92.036,90.474L92.006,90.478L91.979,90.483L91.954,90.488L91.933,90.493L91.914,90.498L91.897,90.503L91.883,90.508L91.871,90.513L91.855,90.52L91.852,90.522L91.848,90.525L91.844,90.527L91.84,90.529L91.837,90.531L91.833,90.534L91.83,90.537L91.826,90.539L91.823,90.542L91.819,90.545L91.817,90.547L91.788,90.574L91.762,90.601L91.737,90.628L91.712,90.657L91.687,90.687L91.663,90.719L91.639,90.752L91.615,90.787L91.591,90.823L91.568,90.862L91.545,90.902L91.523,90.943L91.501,90.987L91.479,91.032L91.457,91.079L91.436,91.127L91.415,91.178L91.395,91.23L91.375,91.283L91.356,91.338L91.337,91.394L91.318,91.452L91.3,91.511L91.282,91.571L91.264,91.633L91.248,91.693L91.214,91.824L91.182,91.957L91.151,92.092L91.12,92.231L91.089,92.373L91.027,92.661L90.994,92.809L90.958,92.958L90.921,93.106L90.9,93.185L90.878,93.262L90.855,93.34L90.831,93.418L90.804,93.496L90.777,93.576L90.746,93.656L90.714,93.737L90.679,93.819L90.64,93.901L90.599,93.984L90.553,94.068L90.503,94.153L90.449,94.238L90.389,94.323L90.323,94.408L90.251,94.492L90.176,94.571L90.124,94.622L90.072,94.667L90.02,94.71L89.957,94.758L89.859,94.824L89.749,94.888L89.639,94.941L89.53,94.986L89.423,95.022L89.32,95.052L89.219,95.075L89.122,95.092L89.027,95.105L88.936,95.115L88.848,95.12L88.763,95.123L88.68,95.124L88.599,95.122L88.521,95.119L88.445,95.114L88.37,95.108L88.293,95.101L88.156,95.084L88.019,95.065L87.888,95.045L87.761,95.024L87.523,94.982L87.412,94.963L87.307,94.946L87.209,94.932L87.115,94.92L87.076,94.916L87.069,94.915L87.061,94.955L87.042,95.05L87.025,95.152L87.007,95.26L86.991,95.372L86.975,95.487L86.961,95.604L86.947,95.722L86.92,95.962L86.896,96.196L86.872,96.42L86.85,96.628L86.838,96.73L86.825,96.828L86.81,96.926L86.791,97.029L86.768,97.135L86.746,97.214L86.718,97.3L86.696,97.354L86.644,97.467L86.638,97.478L86.533,97.645L86.527,97.653L86.419,97.779L86.296,97.89L86.29,97.895L86.181,97.971L86.065,98.036L85.997,98.069L85.905,98.109L85.811,98.145L85.715,98.178L85.618,98.206L85.52,98.23L85.42,98.25L85.321,98.265L85.221,98.275L85.121,98.281L85.022,98.283L84.923,98.28L84.827,98.272L84.731,98.261L84.638,98.246L84.546,98.227L84.456,98.206L84.369,98.181L84.285,98.153L84.202,98.123L84.122,98.091L84.045,98.057L83.97,98.021L83.897,97.983L83.826,97.944L83.757,97.904L83.69,97.862L83.625,97.82L83.562,97.777L83.501,97.733L83.441,97.688L83.383,97.642L83.326,97.596L83.27,97.55L83.216,97.503L83.159,97.453L83.059,97.36L82.959,97.263L82.862,97.165L82.769,97.066L82.678,96.967L82.589,96.868L82.503,96.77L82.417,96.67L82.255,96.477L82.097,96.288L81.945,96.104L81.872,96.018L81.8,95.933L81.729,95.852L81.661,95.774L81.594,95.701L81.529,95.632L81.467,95.567L81.407,95.508L81.347,95.451L81.323,95.429L81.297,95.406L81.272,95.384L81.247,95.364L81.224,95.346L81.203,95.329L81.182,95.313L81.163,95.3L81.157,95.295L81.142,95.308L81.12,95.331L81.094,95.356L81.07,95.382L81.048,95.408L81.027,95.432L81.008,95.456L80.99,95.479L80.974,95.501L80.959,95.522L80.946,95.543L80.933,95.564L80.922,95.583L80.912,95.602L80.902,95.621L80.894,95.639L80.886,95.657L80.879,95.675L80.872,95.693L80.866,95.71L80.861,95.728L80.856,95.745L80.852,95.763L80.848,95.781L80.844,95.799L80.841,95.817L80.838,95.836L80.836,95.856L80.834,95.876L80.833,95.896L80.832,95.918L80.831,95.939L80.831,95.962L80.832,95.985L80.833,96.01L80.835,96.035L80.837,96.06L80.84,96.087L80.843,96.114L80.848,96.142L80.852,96.171L80.858,96.201L80.864,96.231L80.87,96.262L80.878,96.294L80.885,96.322L80.904,96.394L80.925,96.463L80.949,96.535L80.975,96.609L81.003,96.685L81.034,96.763L81.068,96.843L81.103,96.924L81.14,97.007L81.179,97.09L81.219,97.175L81.26,97.26L81.348,97.438L81.53,97.799L81.621,97.984L81.667,98.081L81.712,98.178L81.756,98.276L81.8,98.377L81.841,98.48L81.882,98.586L81.92,98.695L81.956,98.808L81.988,98.92L82.004,98.986L82.019,99.048L82.032,99.112L82.043,99.178L82.053,99.245L82.062,99.314L82.068,99.385L82.073,99.458L82.075,99.533L82.075,99.61L82.071,99.689L82.064,99.77L82.054,99.852L82.04,99.936L82.022,100.021L81.999,100.107L81.972,100.193L81.94,100.279L81.903,100.364L81.862,100.448L81.816,100.53L81.766,100.61L81.712,100.688L81.654,100.762L81.593,100.833L81.536,100.893L81.409,101.017L81.288,101.132L81.165,101.246L81.04,101.358L80.914,101.469L80.786,101.579L80.657,101.687L80.527,101.793L80.395,101.899L80.263,102.003L80.129,102.106L79.995,102.208L79.86,102.308L79.725,102.408L79.59,102.506L79.454,102.603L79.318,102.699L79.182,102.795L78.912,102.981L78.643,103.164L78.377,103.342L77.86,103.687L77.79,103.733L77.792,103.779L77.793,103.86L77.792,103.95L77.787,104.051L77.776,104.165L77.757,104.28L77.739,104.361L77.719,104.435L77.694,104.514L77.662,104.596L77.624,104.683L77.577,104.772L77.52,104.862L77.454,104.953L77.378,105.043L77.292,105.128L77.197,105.207L77.095,105.278L76.989,105.34L76.88,105.392L76.77,105.434L76.674,105.462L76.593,105.481L76.528,105.495L76.464,105.508L76.397,105.519L76.277,105.537L76.152,105.553L76.025,105.567L75.895,105.58L75.762,105.592L75.625,105.603L75.347,105.625L75.06,105.647L74.769,105.672L74.627,105.685L74.486,105.698L74.348,105.713L74.214,105.729L74.085,105.746L73.963,105.764L73.844,105.784L73.792,105.793L73.74,105.803L73.69,105.813L73.644,105.823L73.635,105.825L73.635,105.862L73.638,105.926L73.643,105.995L73.649,106.069L73.658,106.148L73.669,106.232L73.682,106.319L73.697,106.411L73.714,106.506L73.733,106.604L73.753,106.706L73.776,106.81L73.8,106.917L73.825,107.026L73.852,107.138L73.88,107.251L73.909,107.365L73.971,107.603L74.036,107.845L74.104,108.091L74.173,108.34L74.243,108.593L74.312,108.847L74.38,109.102L74.446,109.356L74.479,109.485L74.51,109.612L74.54,109.74L74.569,109.867L74.597,109.994L74.624,110.121L74.649,110.248L74.672,110.374L74.693,110.501L74.713,110.627L74.731,110.753L74.746,110.879L74.758,111.006L74.768,111.133L74.775,111.26L74.778,111.388L74.777,111.513L74.775,111.583L74.772,111.648L74.767,111.715L74.762,111.781L74.754,111.848L74.745,111.923L74.732,112L74.714,112.083L74.692,112.164L74.667,112.244L74.638,112.321L74.606,112.395L74.572,112.467L74.535,112.535L74.497,112.599L74.457,112.66L74.416,112.718L74.375,112.772L74.333,112.823L74.285,112.878L74.209,112.958L74.128,113.034L74.049,113.101L73.974,113.161L73.902,113.213L73.835,113.26L73.769,113.304L73.662,113.373L73.568,113.431L73.534,113.453L73.532,113.506L73.53,113.588L73.529,113.68L73.529,113.779L73.53,114.002L73.532,114.241L73.532,114.369L73.532,114.501L73.529,114.636L73.524,114.774L73.517,114.916L73.506,115.056L73.498,115.134L73.49,115.208L73.48,115.284L73.469,115.36L73.456,115.437L73.441,115.515L73.424,115.595L73.405,115.675L73.383,115.757L73.358,115.84L73.33,115.924L73.298,116.01L73.262,116.097L73.221,116.185L73.176,116.273L73.124,116.363L73.067,116.453L73.003,116.542L72.931,116.63L72.853,116.716L72.767,116.8L72.674,116.879L72.574,116.954L72.478,117.016L72.41,117.055L72.352,117.087L72.295,117.116L72.237,117.143L72.18,117.169L72.116,117.195L72.012,117.234L71.903,117.269L71.798,117.298L71.698,117.322L71.603,117.342L71.513,117.357L71.429,117.37L71.35,117.38L71.275,117.389L71.151,117.401L71.043,117.413L71.001,117.417L70.965,117.422L70.934,117.427L70.91,117.431L70.894,117.434L70.864,117.472L70.83,117.517L70.791,117.572L70.747,117.636L70.699,117.708L70.648,117.788L70.532,117.965L70.407,118.157L70.338,118.261L70.265,118.366L70.189,118.473L70.108,118.582L70.025,118.689L69.977,118.748L69.931,118.804L69.883,118.86L69.833,118.915L69.781,118.971L69.728,119.027L69.672,119.083L69.615,119.138L69.554,119.193L69.492,119.247L69.426,119.301L69.358,119.353L69.286,119.405L69.211,119.456L69.133,119.505L69.051,119.552L68.965,119.596L68.876,119.639L68.782,119.678L68.685,119.713L68.585,119.745L68.481,119.772L68.374,119.795L68.264,119.812L68.152,119.823L68.039,119.828L67.925,119.828L67.81,119.821L67.696,119.807L67.584,119.789L67.492,119.768L67.403,119.744L67.314,119.716L67.227,119.683L67.141,119.645L67.057,119.603L66.975,119.557L66.896,119.508L66.82,119.455L66.748,119.399L66.68,119.34L66.615,119.279L66.554,119.216L66.498,119.152L66.445,119.088L66.396,119.022L66.351,118.956L66.31,118.89L66.271,118.824L66.236,118.759L66.204,118.694L66.174,118.629L66.147,118.565L66.122,118.502L66.099,118.439L66.078,118.377L66.058,118.316L66.039,118.249L66.01,118.136L65.983,118.018L65.961,117.902L65.943,117.788L65.927,117.676L65.914,117.564L65.903,117.454L65.893,117.345L65.886,117.237L65.879,117.128L65.868,116.921L65.86,116.714L65.853,116.513L65.845,116.318L65.836,116.128L65.83,116.039L65.824,115.951L65.817,115.867L65.81,115.785L65.801,115.706L65.792,115.631L65.781,115.561L65.77,115.494L65.758,115.432L65.746,115.375L65.731,115.319L65.726,115.3L65.72,115.277L65.713,115.257L65.707,115.237L65.7,115.22L65.694,115.203L65.688,115.189L65.683,115.176L65.677,115.164L65.672,115.154L65.671,115.151L65.637,115.145L65.6,115.14L65.564,115.135L65.529,115.131L65.497,115.128L65.466,115.126L65.437,115.124L65.409,115.122L65.383,115.121L65.359,115.121L65.336,115.121L65.315,115.121L65.296,115.122L65.278,115.123L65.262,115.125L65.247,115.126L65.234,115.128L65.222,115.13L65.211,115.131L65.202,115.133L65.194,115.135L65.187,115.136L65.182,115.138L65.177,115.139L65.174,115.14L65.171,115.141L65.171,115.141L65.168,115.144L65.163,115.15L65.156,115.158L65.148,115.169L65.137,115.183L65.126,115.201L65.112,115.223L65.097,115.249L65.082,115.278L65.065,115.311L65.047,115.348L65.028,115.388L65.009,115.433L64.989,115.48L64.969,115.528L64.925,115.643L64.879,115.767L64.777,116.043L64.72,116.193L64.688,116.274L64.655,116.355L64.62,116.438L64.584,116.523L64.545,116.609L64.504,116.696L64.46,116.785L64.413,116.875L64.363,116.966L64.31,117.058L64.254,117.15L64.194,117.242L64.13,117.335L64.062,117.428L63.989,117.52L63.913,117.611L63.832,117.702L63.734,117.802L63.66,117.87L63.581,117.933L63.509,117.982L63.445,118.022L63.386,118.056L63.324,118.089L63.23,118.133L63.135,118.173L63.042,118.208L62.952,118.24L62.862,118.27L62.771,118.299L62.68,118.326L62.587,118.352L62.492,118.379L62.306,118.427L62.117,118.475L61.93,118.52L61.748,118.562L61.417,118.64L61.277,118.673L61.163,118.702L61.077,118.724L61.06,118.729L61.034,118.737L60.983,118.754L60.909,118.774L60.832,118.791L60.751,118.806L60.667,118.817L60.578,118.824L60.486,118.827L60.392,118.823L60.295,118.814L60.196,118.798L60.096,118.776L59.999,118.746L59.904,118.71L59.812,118.668L59.725,118.621L59.644,118.57L59.569,118.516L59.501,118.461L59.439,118.405L59.374,118.339L59.292,118.243L59.219,118.144L59.182,118.086L59.051,118.076L58.692,118.052L58.277,118.026L57.82,117.998L57.336,117.97L56.838,117.943L56.341,117.919L55.857,117.897L55.627,117.888L55.404,117.88L55.193,117.873L54.996,117.868L54.813,117.865L54.648,117.863L54.505,117.863L54.504,117.863L54.453,117.917L54.384,117.992L54.311,118.074L54.233,118.162L54.152,118.254L53.982,118.45L53.807,118.654L53.63,118.859L53.455,119.059L53.366,119.158L53.279,119.253L53.193,119.346L53.107,119.436L53.019,119.523L52.932,119.605L52.88,119.651L52.829,119.695L52.774,119.74L52.712,119.786L52.642,119.835L52.558,119.887L52.454,119.942L52.386,119.971L52.247,120.021L52.231,120.026L52.034,120.067L52.019,120.069L51.817,120.078L51.81,120.078L51.654,120.062L51.648,120.061L51.474,120.019L51.468,120.018L51.286,119.944L51.281,119.941L51.178,119.884L51.12,119.848L51.049,119.801L50.98,119.752L50.912,119.702L50.846,119.65L50.781,119.597L50.719,119.542L50.658,119.486L50.599,119.429L50.542,119.371L50.487,119.311L50.433,119.251L50.382,119.19L50.332,119.128L50.284,119.065L50.237,119.001L50.193,118.937L50.15,118.872L50.108,118.807L50.068,118.741L50.03,118.675L49.993,118.609L49.958,118.542L49.924,118.475L49.892,118.408L49.86,118.34L49.83,118.273L49.802,118.205L49.774,118.137L49.748,118.069L49.723,118L49.697,117.928L49.653,117.795L49.611,117.658L49.573,117.521L49.538,117.384L49.506,117.246L49.477,117.109L49.451,116.971L49.426,116.834L49.404,116.697L49.384,116.56L49.365,116.423L49.348,116.287L49.332,116.151L49.318,116.016L49.305,115.881L49.293,115.745L49.271,115.48L49.252,115.217L49.217,114.706L49.2,114.459L49.182,114.217L49.172,114.102L49.162,113.987L49.151,113.875L49.14,113.766L49.128,113.659L49.115,113.556L49.102,113.455L49.087,113.358L49.072,113.265L49.056,113.175L49.039,113.089L49.022,113.008L49.003,112.93L48.984,112.858L48.964,112.79L48.943,112.723L48.934,112.698L48.928,112.681L48.915,112.678L48.883,112.671L48.847,112.665L48.808,112.659L48.767,112.655L48.724,112.65L48.707,112.649L48.663,112.715L48.621,112.768L48.539,112.862L48.525,112.877L48.4,112.991L48.385,113.002L48.249,113.096L48.242,113.1L48.124,113.162L48.117,113.165L47.978,113.219L47.97,113.222L47.811,113.262L47.803,113.263L47.628,113.282L47.62,113.282L47.443,113.276L47.435,113.276L47.264,113.246L47.256,113.244L47.099,113.193L47.091,113.19L46.957,113.128L46.949,113.124L46.835,113.054L46.827,113.049L46.736,112.98L46.689,112.941L46.616,112.87L46.551,112.798L46.491,112.722L46.434,112.641L46.381,112.554L46.334,112.462L46.292,112.365L46.258,112.265L46.23,112.164L46.21,112.061L46.198,111.96L46.192,111.86L46.193,111.763L46.2,111.67L46.212,111.581L46.228,111.497L46.248,111.417L46.27,111.342L46.295,111.272L46.321,111.206L46.353,111.133L46.406,111.03L46.466,110.928L46.528,110.836L46.59,110.752L46.653,110.674L46.716,110.602L46.779,110.534L46.842,110.469L46.906,110.406L46.969,110.346L47.034,110.288L47.098,110.231L47.164,110.176L47.231,110.119L47.36,110.015L47.493,109.911L47.627,109.81L47.76,109.71L48.02,109.518L48.077,109.476L48.03,109.461L47.9,109.418L47.828,109.393L47.759,109.368L47.688,109.34L47.616,109.311L47.543,109.28L47.469,109.246L47.393,109.21L47.317,109.17L47.239,109.127L47.16,109.08L47.081,109.028L47,108.971L46.92,108.908L46.839,108.839L46.758,108.763L46.679,108.679L46.603,108.588L46.529,108.488L46.467,108.39L46.429,108.324L46.4,108.268L46.357,108.179L46.318,108.093L46.282,108.006L46.248,107.919L46.216,107.832L46.187,107.746L46.16,107.66L46.135,107.574L46.112,107.489L46.091,107.404L46.071,107.319L46.052,107.235L46.035,107.151L46.019,107.068L46.005,106.985L45.99,106.899L45.967,106.739L45.946,106.577L45.928,106.418L45.912,106.26L45.899,106.105L45.886,105.952L45.865,105.66L45.844,105.378L45.834,105.245L45.823,105.117L45.811,104.994L45.798,104.878L45.784,104.768L45.769,104.662L45.762,104.617L45.753,104.571L45.745,104.527L45.736,104.486L45.728,104.447L45.719,104.41L45.71,104.377L45.701,104.346L45.693,104.317L45.684,104.292L45.676,104.27L45.669,104.251L45.662,104.235L45.656,104.222L45.651,104.212L45.648,104.207L45.627,104.172L45.577,104.092L45.505,103.981L45.416,103.846L45.314,103.694L45.201,103.531L45.082,103.362L44.958,103.19L44.898,103.107L44.836,103.025L44.775,102.945L44.716,102.868L44.659,102.795L44.633,102.763L44.629,102.772L44.61,102.814L44.568,102.913L44.524,103.018L44.478,103.132L44.428,103.253L44.375,103.382L44.317,103.513L44.284,103.585L44.25,103.656L44.214,103.729L44.176,103.803L44.135,103.878L44.091,103.955L44.043,104.033L43.991,104.112L43.935,104.191L43.874,104.272L43.808,104.353L43.736,104.433L43.657,104.513L43.571,104.592L43.485,104.663L43.429,104.705L43.377,104.741L43.324,104.776L43.27,104.81L43.213,104.843L43.157,104.872L43.077,104.912L42.999,104.948L42.921,104.982L42.841,105.014L42.762,105.044L42.683,105.072L42.603,105.097L42.523,105.121L42.443,105.142L42.363,105.162L42.283,105.179L42.203,105.195L42.124,105.209L42.045,105.221L41.965,105.231L41.887,105.24L41.808,105.247L41.73,105.253L41.652,105.257L41.575,105.259L41.498,105.261L41.421,105.26L41.345,105.259L41.27,105.256L41.195,105.253L41.12,105.248L41.045,105.242L40.971,105.235L40.898,105.227L40.821,105.217L40.68,105.197L40.537,105.173L40.396,105.147L40.256,105.117L40.118,105.085L39.981,105.051L39.845,105.016L39.711,104.978L39.579,104.939L39.448,104.899L39.318,104.858L39.189,104.816L39.06,104.772L38.812,104.687L38.567,104.6L38.095,104.43L37.868,104.349L37.759,104.311L37.65,104.274L37.544,104.239L37.44,104.205L37.338,104.174L37.239,104.144L37.142,104.116L37.048,104.091L36.957,104.068L36.869,104.047L36.785,104.029L36.704,104.014L36.626,104.001L36.548,103.99L36.517,103.986L36.483,103.982L36.45,103.979L36.418,103.977L36.387,103.975L36.357,103.974L36.328,103.973L36.301,103.973L36.274,103.973L36.249,103.974L36.225,103.975L36.202,103.977L36.18,103.979L36.16,103.981L36.14,103.984L36.122,103.987L36.104,103.99L36.099,103.991L36.095,104.007L36.086,104.037L36.077,104.071L36.068,104.109L36.06,104.148L36.039,104.247L36.019,104.354L35.997,104.474L35.972,104.605L35.944,104.742L35.926,104.821L35.907,104.899L35.886,104.98L35.862,105.064L35.835,105.151L35.803,105.24L35.768,105.333L35.726,105.428L35.679,105.526L35.625,105.625L35.564,105.726L35.499,105.82L35.456,105.877L35.415,105.928L35.372,105.977L35.327,106.026L35.279,106.075L35.23,106.122L35.178,106.168L35.123,106.213L35.067,106.256L35.009,106.297L34.949,106.337L34.888,106.374L34.825,106.409L34.76,106.442L34.695,106.472L34.629,106.501L34.562,106.526L34.494,106.55L34.426,106.571L34.358,106.589L34.289,106.606L34.221,106.62L34.152,106.632L34.083,106.642L34.015,106.65L33.947,106.656L33.878,106.66L33.81,106.663L33.742,106.664L33.674,106.663L33.607,106.661L33.539,106.657L33.471,106.652L33.403,106.646L33.335,106.638L33.267,106.629L33.198,106.619L33.13,106.607L33.061,106.595L32.985,106.58L32.877,106.555L32.764,106.525L32.653,106.491L32.544,106.453L32.437,106.411L32.332,106.364L32.23,106.313L32.131,106.258L32.035,106.199L31.942,106.136L31.853,106.07L31.768,106.001L31.687,105.929L31.611,105.855L31.539,105.779L31.471,105.701L31.408,105.623L31.349,105.544L31.295,105.464L31.244,105.385L31.197,105.306L31.154,105.227L31.114,105.149L31.078,105.073L31.044,104.997L31.013,104.923L30.984,104.85L30.958,104.779L30.933,104.709L30.909,104.637L30.87,104.511L30.835,104.388L30.804,104.271L30.75,104.066L30.726,103.976L30.721,103.957L30.707,103.965L30.67,103.989L30.582,104.046L30.491,104.107L30.292,104.242L30.186,104.314L30.073,104.389L29.957,104.462L29.89,104.502L29.825,104.54L29.756,104.579L29.684,104.616L29.609,104.654L29.529,104.69L29.444,104.725L29.354,104.759L29.257,104.791L29.153,104.819L29.041,104.842L28.92,104.86L28.804,104.869L28.725,104.871L28.655,104.87L28.583,104.866L28.51,104.858L28.436,104.847L28.361,104.833L28.286,104.814L28.21,104.792L28.135,104.766L28.061,104.735L27.988,104.701L27.917,104.664L27.848,104.623L27.782,104.58L27.718,104.534L27.657,104.485L27.6,104.435L27.535,104.373L27.451,104.281L27.37,104.177L27.301,104.073L27.243,103.972L27.194,103.874L27.153,103.778L27.118,103.685L27.088,103.595L27.062,103.506L27.04,103.419L27.022,103.334L27.006,103.25L26.992,103.167L26.981,103.085L26.972,103.003L26.964,102.922L26.958,102.841L26.953,102.761L26.949,102.68L26.947,102.6L26.946,102.519L26.945,102.435L26.947,102.279L26.953,102.118L26.962,101.958L26.973,101.798L26.986,101.638L27.002,101.48L27.02,101.324L27.039,101.169L27.059,101.017L27.081,100.868L27.104,100.723L27.127,100.582L27.151,100.445L27.175,100.314L27.199,100.188L27.223,100.069L27.247,99.956L27.271,99.849L27.294,99.75L27.317,99.657L27.337,99.58L27.359,99.499L27.377,99.427L27.394,99.354L27.411,99.279L27.427,99.203L27.442,99.126L27.456,99.048L27.469,98.969L27.482,98.889L27.494,98.808L27.505,98.727L27.515,98.644L27.524,98.56L27.533,98.476L27.54,98.391L27.547,98.306L27.553,98.219L27.558,98.133L27.562,98.046L27.565,97.958L27.568,97.87L27.569,97.781L27.57,97.693L27.57,97.604L27.568,97.514L27.566,97.425L27.564,97.335L27.56,97.246L27.555,97.156L27.55,97.066L27.544,96.977L27.536,96.887L27.528,96.798L27.519,96.709L27.51,96.62L27.499,96.531L27.488,96.443L27.475,96.355L27.462,96.268L27.449,96.181L27.434,96.094L27.418,96.008L27.402,95.923L27.385,95.838L27.367,95.754L27.349,95.671L27.329,95.588L27.309,95.507L27.288,95.426L27.267,95.346L27.245,95.268L27.222,95.19L27.198,95.113L27.174,95.038L27.149,94.963L27.127,94.899L27.042,94.922L26.726,95.011L26.554,95.058L26.461,95.083L26.367,95.106L26.27,95.13L26.171,95.153L26.069,95.175L25.965,95.196L25.859,95.215L25.75,95.232L25.638,95.248L25.524,95.261L25.406,95.271L25.286,95.278L25.164,95.281L25.044,95.28L24.974,95.277L24.909,95.273L24.844,95.268L24.778,95.261L24.711,95.253L24.644,95.243L24.576,95.231L24.507,95.218L24.438,95.202L24.369,95.185L24.299,95.165L24.229,95.144L24.158,95.12L24.088,95.093L24.018,95.065L23.948,95.033L23.878,95L23.809,94.963L23.74,94.925L23.672,94.884L23.605,94.84L23.54,94.794L23.475,94.745L23.411,94.694L23.35,94.641L23.289,94.586L23.23,94.528L23.174,94.469L23.119,94.407L23.065,94.344L23.014,94.279L22.965,94.213L22.917,94.145L22.872,94.075L22.828,94.004L22.787,93.932L22.747,93.859L22.709,93.784L22.673,93.708L22.638,93.629L22.61,93.56L22.583,93.489L22.559,93.417L22.538,93.346L22.519,93.275L22.502,93.205L22.488,93.135L22.475,93.065L22.465,92.997L22.456,92.928L22.449,92.86L22.444,92.793L22.44,92.727L22.438,92.661L22.437,92.596L22.438,92.531L22.439,92.467L22.442,92.398L22.451,92.279L22.463,92.155L22.479,92.034L22.498,91.914L22.52,91.796L22.544,91.679L22.571,91.564L22.599,91.449L22.63,91.336L22.662,91.224L22.695,91.113L22.73,91.002L22.766,90.893L22.802,90.785L22.84,90.677L22.878,90.57L22.918,90.463L22.996,90.257L23.075,90.053L23.154,89.854L23.307,89.473L23.377,89.293L23.443,89.122L23.504,88.957L23.531,88.883L23.556,88.809L23.58,88.739L23.601,88.672L23.62,88.609L23.637,88.551L23.651,88.497L23.657,88.47L23.63,88.443L23.581,88.398L23.528,88.351L23.472,88.303L23.411,88.253L23.348,88.201L23.281,88.148L23.211,88.094L23.139,88.04L22.983,87.924L22.821,87.806L22.65,87.684L22.473,87.558L22.292,87.427L22.108,87.293L22.013,87.223L21.919,87.152L21.825,87.08L21.73,87.006L21.635,86.931L21.541,86.853L21.446,86.775L21.352,86.694L21.259,86.611L21.166,86.525L21.074,86.438L20.983,86.347L20.893,86.254L20.804,86.158L20.718,86.059L20.633,85.956L20.553,85.854L20.509,85.796L20.47,85.74L20.43,85.683L20.392,85.626L20.354,85.567L20.317,85.507L20.281,85.446L20.246,85.384L20.212,85.321L20.179,85.256L20.148,85.19L20.117,85.124L20.088,85.056L20.06,84.987L20.034,84.916L20.009,84.845L19.985,84.772L19.964,84.699L19.944,84.624L19.926,84.548L19.909,84.472L19.895,84.394L19.883,84.316L19.872,84.237L19.864,84.157L19.858,84.077L19.855,83.996L19.853,83.914L19.854,83.833L19.857,83.751L19.862,83.669L19.87,83.586L19.879,83.504L19.891,83.422L19.906,83.34L19.922,83.258L19.941,83.176L19.962,83.095L19.985,83.013L20.01,82.933L20.037,82.852L20.068,82.766L20.096,82.695L20.13,82.62L20.167,82.546L20.208,82.474L20.252,82.403L20.299,82.335L20.348,82.27L20.4,82.207L20.454,82.146L20.51,82.089L20.567,82.036L20.626,81.985L20.685,81.937L20.745,81.893L20.806,81.852L20.867,81.813L20.928,81.778L20.988,81.745L21.049,81.715L21.109,81.687L21.168,81.662L21.227,81.639L21.285,81.617L21.349,81.595L21.456,81.564L21.567,81.535L21.675,81.512L21.782,81.493L21.886,81.477L21.988,81.464L22.089,81.454L22.189,81.447L22.287,81.441L22.383,81.436L22.479,81.434L22.576,81.432L22.759,81.431L22.941,81.433L23.292,81.438L23.46,81.441L23.625,81.441L23.701,81.441L23.777,81.44L23.851,81.438L23.923,81.435L23.992,81.432L24.058,81.427L24.122,81.422L24.182,81.416L24.239,81.409L24.292,81.402L24.341,81.393L24.387,81.384L24.428,81.375L24.465,81.366L24.497,81.356L24.531,81.345L24.537,81.342L24.548,81.338L24.558,81.334L24.566,81.33L24.574,81.327L24.58,81.323L24.586,81.32L24.59,81.318L24.593,81.316L24.594,81.315L24.608,81.293L24.625,81.263L24.64,81.235L24.653,81.208L24.665,81.182L24.675,81.158L24.684,81.134L24.692,81.111L24.699,81.089L24.705,81.067L24.711,81.045L24.715,81.022L24.719,81L24.723,80.977L24.726,80.953L24.728,80.929L24.73,80.904L24.731,80.877L24.731,80.849L24.731,80.82L24.73,80.79L24.729,80.758L24.727,80.725L24.724,80.689L24.72,80.653L24.716,80.618L24.705,80.532L24.692,80.444L24.676,80.35L24.639,80.137L24.619,80.022L24.599,79.898L24.58,79.767L24.563,79.632L24.556,79.556L24.549,79.481L24.544,79.404L24.541,79.325L24.539,79.244L24.539,79.161L24.541,79.077L24.545,78.99L24.552,78.902L24.562,78.812L24.574,78.72L24.59,78.627L24.609,78.533L24.631,78.439L24.658,78.344L24.687,78.248L24.721,78.152L24.758,78.057L24.799,77.962L24.844,77.868L24.877,77.804L24.912,77.742L24.949,77.683L24.987,77.624L25.026,77.568L25.067,77.514L25.11,77.462L25.153,77.412L25.197,77.363L25.242,77.317L25.287,77.273L25.34,77.226L25.426,77.153L25.519,77.082L25.613,77.018L25.706,76.96L25.798,76.908L25.889,76.861L25.978,76.819L26.065,76.781L26.151,76.746L26.235,76.715L26.317,76.687L26.397,76.661L26.475,76.637L26.55,76.616L26.623,76.596L26.697,76.578L26.827,76.547L26.949,76.519L27.058,76.495L27.152,76.474L27.22,76.458L27.251,76.45L27.331,76.426L27.594,76.345L27.762,76.295L27.944,76.243L28.043,76.216L28.143,76.189L28.246,76.163L28.351,76.138L28.458,76.113L28.567,76.09L28.677,76.068L28.79,76.048L28.904,76.03L29.022,76.015L29.136,76.004L29.203,75.999L29.266,75.996L29.331,75.994L29.398,75.993L29.467,75.994L29.538,75.998ZM27.702,92.314L27.767,92.319L27.835,92.327L27.905,92.338L27.976,92.352L28.05,92.369L28.126,92.39L28.203,92.415L28.281,92.445L28.36,92.48L28.44,92.52L28.519,92.565L28.597,92.616L28.674,92.671L28.748,92.732L28.818,92.798L28.885,92.868L28.947,92.941L29.005,93.017L29.057,93.096L29.105,93.176L29.142,93.247L29.193,93.353L29.237,93.451L29.281,93.549L29.323,93.648L29.364,93.748L29.404,93.849L29.442,93.95L29.479,94.052L29.515,94.156L29.55,94.259L29.583,94.364L29.616,94.469L29.647,94.575L29.677,94.681L29.706,94.788L29.733,94.896L29.76,95.004L29.786,95.113L29.81,95.222L29.833,95.332L29.855,95.442L29.877,95.552L29.896,95.663L29.915,95.775L29.933,95.886L29.95,95.998L29.966,96.111L29.98,96.223L29.994,96.336L30.006,96.449L30.017,96.562L30.027,96.675L30.036,96.789L30.044,96.902L30.051,97.016L30.057,97.13L30.062,97.244L30.066,97.357L30.068,97.471L30.07,97.585L30.07,97.698L30.069,97.812L30.067,97.925L30.064,98.038L30.06,98.151L30.054,98.264L30.048,98.376L30.04,98.489L30.032,98.601L30.022,98.712L30.01,98.824L29.998,98.935L29.984,99.045L29.97,99.155L29.954,99.265L29.936,99.374L29.918,99.483L29.898,99.591L29.877,99.699L29.854,99.807L29.831,99.913L29.806,100.019L29.779,100.125L29.754,100.22L29.739,100.275L29.725,100.334L29.708,100.404L29.69,100.485L29.671,100.575L29.652,100.672L29.632,100.776L29.612,100.885L29.592,101L29.572,101.119L29.553,101.24L29.535,101.365L29.518,101.49L29.503,101.617L29.488,101.743L29.484,101.783L29.524,101.76L29.595,101.719L29.668,101.679L29.744,101.639L29.822,101.601L29.904,101.562L29.989,101.526L30.078,101.49L30.17,101.457L30.267,101.426L30.368,101.398L30.473,101.373L30.583,101.352L30.697,101.336L30.816,101.326L30.93,101.322L31.001,101.323L31.065,101.326L31.129,101.331L31.194,101.337L31.259,101.346L31.325,101.358L31.391,101.371L31.457,101.387L31.523,101.405L31.588,101.425L31.653,101.448L31.718,101.473L31.782,101.5L31.845,101.529L31.907,101.561L31.968,101.594L32.027,101.629L32.086,101.667L32.143,101.705L32.204,101.75L32.286,101.815L32.368,101.888L32.445,101.963L32.517,102.04L32.583,102.119L32.644,102.198L32.7,102.277L32.751,102.357L32.798,102.435L32.84,102.513L32.879,102.589L32.914,102.664L32.946,102.738L32.975,102.81L33.002,102.88L33.026,102.949L33.049,103.015L33.071,103.084L33.107,103.204L33.14,103.322L33.169,103.432L33.221,103.632L33.244,103.719L33.267,103.798L33.29,103.874L33.299,103.901L33.309,103.931L33.319,103.957L33.329,103.982L33.338,104.004L33.347,104.023L33.355,104.04L33.362,104.054L33.369,104.066L33.375,104.076L33.379,104.084L33.386,104.093L33.389,104.097L33.394,104.1L33.4,104.103L33.408,104.106L33.419,104.111L33.433,104.115L33.451,104.121L33.472,104.127L33.505,104.134L33.516,104.136L33.519,104.122L33.539,104.016L33.561,103.896L33.586,103.763L33.615,103.624L33.633,103.544L33.652,103.465L33.673,103.383L33.697,103.298L33.724,103.211L33.755,103.121L33.789,103.028L33.828,102.934L33.872,102.837L33.922,102.738L33.978,102.639L34.037,102.546L34.075,102.489L34.112,102.439L34.15,102.389L34.189,102.34L34.231,102.291L34.275,102.243L34.321,102.195L34.369,102.149L34.418,102.103L34.47,102.059L34.523,102.016L34.578,101.974L34.635,101.934L34.693,101.895L34.752,101.859L34.813,101.823L34.875,101.79L34.938,101.759L35.002,101.73L35.066,101.702L35.144,101.672L35.221,101.644L35.299,101.619L35.377,101.596L35.455,101.575L35.532,101.556L35.61,101.54L35.687,101.525L35.765,101.512L35.841,101.502L35.918,101.493L35.994,101.486L36.069,101.48L36.144,101.476L36.219,101.474L36.293,101.473L36.367,101.473L36.44,101.475L36.513,101.478L36.585,101.482L36.657,101.488L36.728,101.494L36.799,101.502L36.873,101.511L37.008,101.53L37.146,101.553L37.282,101.579L37.416,101.608L37.549,101.639L37.681,101.672L37.811,101.708L37.94,101.744L38.069,101.783L38.196,101.822L38.322,101.863L38.447,101.904L38.571,101.947L38.695,101.99L38.936,102.075L39.41,102.246L39.64,102.328L39.867,102.406L39.976,102.443L40.085,102.478L40.192,102.512L40.297,102.545L40.4,102.575L40.502,102.603L40.601,102.63L40.698,102.654L40.793,102.675L40.885,102.695L40.975,102.712L41.061,102.726L41.149,102.739L41.186,102.743L41.226,102.747L41.265,102.751L41.303,102.754L41.34,102.757L41.377,102.759L41.412,102.76L41.447,102.76L41.481,102.76L41.514,102.76L41.546,102.759L41.577,102.757L41.608,102.755L41.637,102.752L41.666,102.749L41.694,102.746L41.721,102.742L41.747,102.737L41.773,102.732L41.797,102.726L41.822,102.721L41.845,102.714L41.868,102.708L41.89,102.7L41.912,102.693L41.934,102.685L41.938,102.683L41.942,102.677L41.954,102.655L41.969,102.629L41.984,102.599L42.001,102.566L42.018,102.529L42.035,102.492L42.076,102.398L42.118,102.298L42.163,102.188L42.211,102.069L42.264,101.942L42.32,101.812L42.352,101.74L42.384,101.67L42.419,101.598L42.455,101.524L42.494,101.449L42.536,101.373L42.581,101.295L42.629,101.217L42.681,101.137L42.737,101.057L42.798,100.976L42.863,100.896L42.935,100.815L43.012,100.735L43.095,100.656L43.185,100.579L43.275,100.511L43.333,100.47L43.385,100.436L43.439,100.402L43.495,100.37L43.552,100.339L43.611,100.31L43.671,100.282L43.733,100.256L43.795,100.232L43.859,100.21L43.923,100.19L43.988,100.172L44.054,100.156L44.121,100.141L44.188,100.129L44.255,100.119L44.322,100.112L44.39,100.106L44.458,100.102L44.525,100.1L44.592,100.1L44.66,100.102L44.726,100.106L44.793,100.111L44.859,100.119L44.925,100.127L44.991,100.138L45.056,100.15L45.121,100.163L45.185,100.178L45.249,100.194L45.313,100.212L45.377,100.231L45.465,100.259L45.567,100.298L45.672,100.349L45.759,100.399L45.832,100.447L45.897,100.493L45.954,100.537L46.006,100.58L46.06,100.627L46.144,100.706L46.227,100.79L46.307,100.875L46.384,100.962L46.46,101.05L46.536,101.141L46.611,101.234L46.686,101.328L46.76,101.424L46.834,101.521L46.907,101.619L46.98,101.719L47.119,101.913L47.254,102.104L47.38,102.287L47.495,102.458L47.597,102.612L47.685,102.748L47.758,102.864L47.818,102.965L47.865,103.051L47.908,103.135L47.947,103.22L47.982,103.304L48.015,103.387L48.045,103.47L48.073,103.553L48.098,103.635L48.122,103.717L48.143,103.798L48.162,103.879L48.18,103.959L48.197,104.039L48.212,104.118L48.226,104.197L48.24,104.279L48.262,104.431L48.281,104.586L48.298,104.739L48.313,104.89L48.325,105.04L48.337,105.189L48.358,105.477L48.379,105.76L48.39,105.895L48.402,106.027L48.414,106.155L48.428,106.278L48.443,106.397L48.461,106.513L48.469,106.564L48.478,106.617L48.488,106.668L48.498,106.717L48.508,106.765L48.519,106.81L48.53,106.854L48.541,106.895L48.553,106.935L48.565,106.972L48.575,107.002L48.604,107.014L48.636,107.026L48.67,107.039L48.704,107.051L48.79,107.079L48.881,107.107L48.979,107.136L49.086,107.167L49.314,107.232L49.437,107.268L49.564,107.307L49.691,107.349L49.761,107.373L49.829,107.398L49.899,107.425L49.97,107.454L50.042,107.486L50.116,107.52L50.191,107.557L50.267,107.598L50.345,107.643L50.424,107.693L50.505,107.749L50.587,107.811L50.669,107.88L50.751,107.957L50.832,108.044L50.911,108.14L50.986,108.245L51.049,108.349L51.087,108.421L51.117,108.484L51.145,108.549L51.17,108.616L51.192,108.684L51.212,108.753L51.229,108.823L51.242,108.894L51.253,108.965L51.261,109.036L51.266,109.107L51.268,109.177L51.267,109.246L51.264,109.315L51.258,109.383L51.249,109.455L51.236,109.531L51.219,109.61L51.199,109.684L51.176,109.755L51.152,109.822L51.126,109.886L51.099,109.946L51.066,110.011L51.013,110.108L50.952,110.204L50.891,110.292L50.828,110.374L50.765,110.45L50.702,110.523L50.638,110.591L50.574,110.657L50.518,110.711L50.544,110.731L50.601,110.778L50.658,110.829L50.714,110.882L50.769,110.938L50.823,110.998L50.875,111.06L50.925,111.125L50.973,111.193L51.019,111.264L51.061,111.338L51.098,111.407L51.133,111.478L51.162,111.542L51.191,111.607L51.218,111.672L51.244,111.737L51.269,111.802L51.292,111.867L51.316,111.936L51.356,112.061L51.394,112.192L51.428,112.322L51.459,112.453L51.488,112.583L51.513,112.714L51.537,112.844L51.558,112.975L51.577,113.106L51.595,113.237L51.611,113.367L51.626,113.498L51.639,113.629L51.651,113.759L51.663,113.89L51.674,114.021L51.693,114.278L51.711,114.535L51.745,115.041L51.763,115.287L51.783,115.53L51.794,115.647L51.805,115.763L51.817,115.877L51.83,115.99L51.844,116.1L51.859,116.207L51.874,116.312L51.891,116.415L51.909,116.514L51.927,116.61L51.947,116.703L51.968,116.793L51.99,116.879L52.001,116.92L52.089,116.818L52.266,116.613L52.356,116.51L52.445,116.409L52.534,116.311L52.622,116.215L52.71,116.121L52.798,116.03L52.888,115.942L52.977,115.859L53.031,115.812L53.083,115.768L53.139,115.723L53.202,115.677L53.273,115.628L53.357,115.577L53.46,115.523L53.527,115.495L53.667,115.445L53.741,115.424L53.856,115.401L53.946,115.388L54.026,115.38L54.101,115.375L54.175,115.37L54.249,115.367L54.329,115.365L54.488,115.363L54.663,115.363L54.851,115.365L55.052,115.369L55.265,115.374L55.488,115.381L55.721,115.39L55.962,115.399L56.458,115.421L56.967,115.447L57.475,115.474L57.968,115.502L58.432,115.531L58.855,115.558L59.223,115.582L59.524,115.604L59.746,115.621L59.833,115.629L59.915,115.637L59.998,115.65L60.084,115.667L60.171,115.689L60.256,115.717L60.34,115.748L60.422,115.785L60.5,115.825L60.576,115.869L60.647,115.916L60.714,115.965L60.776,116.015L60.833,116.066L60.886,116.118L60.943,116.178L60.946,116.183L61.177,116.129L61.35,116.088L61.521,116.047L61.686,116.005L61.844,115.964L61.913,115.945L61.98,115.926L62.041,115.908L62.087,115.893L62.093,115.884L62.116,115.852L62.139,115.817L62.161,115.78L62.184,115.741L62.207,115.699L62.229,115.656L62.252,115.61L62.275,115.562L62.297,115.511L62.32,115.459L62.343,115.404L62.366,115.348L62.388,115.291L62.436,115.166L62.535,114.896L62.589,114.753L62.646,114.606L62.678,114.526L62.712,114.446L62.747,114.366L62.784,114.284L62.825,114.201L62.868,114.116L62.914,114.031L62.964,113.944L63.018,113.856L63.076,113.768L63.139,113.68L63.207,113.592L63.28,113.504L63.359,113.418L63.438,113.338L63.488,113.292L63.534,113.251L63.581,113.211L63.63,113.172L63.68,113.133L63.732,113.096L63.785,113.059L63.84,113.024L63.895,112.99L63.952,112.958L64.01,112.927L64.069,112.897L64.129,112.869L64.189,112.842L64.251,112.816L64.313,112.793L64.377,112.771L64.441,112.75L64.505,112.731L64.57,112.714L64.635,112.698L64.701,112.684L64.767,112.671L64.833,112.66L64.9,112.65L64.968,112.642L65.035,112.635L65.102,112.629L65.17,112.625L65.239,112.623L65.307,112.621L65.376,112.621L65.445,112.622L65.514,112.624L65.583,112.628L65.653,112.633L65.724,112.638L65.794,112.645L65.865,112.653L65.937,112.663L66.009,112.673L66.087,112.685L66.169,112.7L66.255,112.719L66.341,112.74L66.427,112.764L66.511,112.792L66.595,112.822L66.677,112.855L66.758,112.891L66.837,112.93L66.915,112.972L66.991,113.016L67.065,113.064L67.136,113.113L67.206,113.165L67.273,113.219L67.337,113.275L67.399,113.333L67.458,113.392L67.515,113.453L67.568,113.514L67.619,113.577L67.668,113.641L67.714,113.705L67.757,113.769L67.798,113.835L67.836,113.9L67.872,113.965L67.906,114.031L67.938,114.097L67.968,114.162L67.996,114.227L68.023,114.293L68.047,114.357L68.07,114.422L68.092,114.487L68.112,114.551L68.131,114.614L68.149,114.683L68.18,114.804L68.207,114.928L68.231,115.052L68.251,115.174L68.269,115.294L68.284,115.414L68.297,115.532L68.308,115.648L68.317,115.763L68.325,115.877L68.332,115.991L68.342,116.206L68.351,116.417L68.358,116.618L68.362,116.716L68.437,116.602L68.552,116.425L68.612,116.332L68.675,116.238L68.739,116.144L68.808,116.047L68.88,115.95L68.955,115.855L69.001,115.801L69.045,115.75L69.093,115.698L69.143,115.646L69.194,115.596L69.247,115.549L69.3,115.502L69.354,115.458L69.409,115.416L69.465,115.375L69.522,115.337L69.579,115.3L69.637,115.266L69.695,115.234L69.752,115.204L69.81,115.176L69.867,115.15L69.931,115.123L70.036,115.083L70.145,115.047L70.249,115.018L70.35,114.994L70.445,114.974L70.535,114.959L70.619,114.946L70.697,114.936L70.772,114.927L70.895,114.915L71.004,114.903L71.008,114.903L71.012,114.873L71.015,114.839L71.022,114.753L71.026,114.664L71.03,114.569L71.032,114.468L71.032,114.362L71.032,114.254L71.03,114.022L71.029,113.787L71.029,113.664L71.03,113.539L71.034,113.413L71.04,113.284L71.049,113.157L71.056,113.085L71.064,113.016L71.074,112.945L71.085,112.873L71.099,112.798L71.116,112.721L71.136,112.641L71.161,112.558L71.191,112.471L71.225,112.385L71.258,112.311L71.292,112.243L71.328,112.178L71.366,112.116L71.405,112.056L71.445,112L71.486,111.947L71.527,111.896L71.568,111.849L71.615,111.798L71.691,111.722L71.771,111.649L71.849,111.584L71.924,111.527L71.995,111.475L72.062,111.429L72.127,111.385L72.234,111.317L72.273,111.293L72.268,111.225L72.26,111.151L72.251,111.073L72.239,110.99L72.226,110.903L72.21,110.812L72.193,110.717L72.174,110.619L72.152,110.517L72.13,110.413L72.105,110.307L72.079,110.198L72.052,110.086L72.024,109.974L71.963,109.739L71.899,109.5L71.832,109.256L71.763,109.007L71.694,108.755L71.624,108.5L71.555,108.244L71.488,107.989L71.455,107.859L71.423,107.73L71.392,107.602L71.362,107.473L71.334,107.344L71.306,107.216L71.28,107.088L71.256,106.96L71.233,106.832L71.212,106.704L71.193,106.577L71.176,106.449L71.162,106.321L71.15,106.193L71.142,106.064L71.136,105.935L71.134,105.805L71.136,105.679L71.139,105.608L71.143,105.542L71.148,105.475L71.154,105.408L71.162,105.34L71.172,105.272L71.183,105.203L71.196,105.134L71.211,105.064L71.228,104.994L71.247,104.923L71.268,104.852L71.292,104.78L71.319,104.708L71.349,104.635L71.382,104.563L71.418,104.49L71.457,104.418L71.5,104.346L71.547,104.273L71.59,104.214L71.643,104.147L71.726,104.054L71.819,103.965L71.913,103.887L72.005,103.819L72.096,103.76L72.184,103.709L72.271,103.663L72.357,103.622L72.441,103.585L72.524,103.552L72.607,103.522L72.689,103.494L72.77,103.469L72.851,103.445L72.931,103.424L73.012,103.404L73.093,103.385L73.173,103.367L73.254,103.351L73.335,103.335L73.419,103.32L73.578,103.294L73.742,103.27L73.905,103.248L74.068,103.229L74.23,103.212L74.391,103.196L74.551,103.181L74.858,103.155L75.152,103.133L75.284,103.122L75.3,103.013L75.314,102.939L75.33,102.871L75.349,102.799L75.373,102.725L75.402,102.647L75.437,102.567L75.479,102.484L75.527,102.401L75.583,102.317L75.647,102.234L75.719,102.153L75.798,102.075L75.883,102.003L75.957,101.95L76.224,101.772L76.476,101.605L76.988,101.264L77.244,101.092L77.499,100.918L77.754,100.742L77.879,100.655L78.004,100.566L78.128,100.478L78.251,100.389L78.372,100.3L78.492,100.21L78.61,100.12L78.727,100.03L78.841,99.94L78.953,99.85L79.064,99.76L79.172,99.67L79.277,99.58L79.38,99.49L79.479,99.4L79.507,99.375L79.493,99.342L79.467,99.282L79.438,99.216L79.405,99.146L79.371,99.074L79.291,98.912L79.111,98.555L79.015,98.361L78.965,98.257L78.915,98.152L78.865,98.044L78.816,97.934L78.767,97.821L78.718,97.705L78.671,97.586L78.625,97.464L78.582,97.34L78.54,97.212L78.5,97.081L78.465,96.952L78.447,96.879L78.431,96.81L78.416,96.741L78.402,96.67L78.389,96.598L78.377,96.526L78.366,96.453L78.357,96.379L78.349,96.304L78.342,96.228L78.337,96.152L78.333,96.075L78.332,95.997L78.331,95.918L78.333,95.839L78.336,95.759L78.342,95.678L78.349,95.597L78.359,95.515L78.37,95.433L78.384,95.351L78.4,95.268L78.419,95.186L78.44,95.103L78.463,95.02L78.488,94.937L78.517,94.855L78.547,94.773L78.58,94.691L78.615,94.609L78.653,94.529L78.694,94.448L78.736,94.369L78.782,94.29L78.829,94.213L78.879,94.136L78.931,94.06L78.985,93.985L79.042,93.911L79.1,93.838L79.161,93.767L79.224,93.696L79.289,93.627L79.357,93.557L79.427,93.489L79.5,93.422L79.575,93.358L79.652,93.296L79.73,93.236L79.811,93.179L79.894,93.125L79.979,93.073L80.066,93.025L80.155,92.98L80.246,92.938L80.34,92.9L80.435,92.866L80.532,92.837L80.63,92.811L80.729,92.79L80.829,92.774L80.929,92.762L81.029,92.755L81.128,92.753L81.227,92.755L81.325,92.761L81.42,92.771L81.514,92.785L81.607,92.803L81.696,92.824L81.784,92.849L81.869,92.876L81.952,92.905L82.032,92.937L82.11,92.971L82.186,93.007L82.259,93.044L82.33,93.083L82.399,93.123L82.466,93.164L82.531,93.207L82.594,93.25L82.656,93.294L82.716,93.338L82.774,93.384L82.831,93.429L82.887,93.476L82.941,93.523L82.994,93.57L83.05,93.62L83.148,93.713L83.246,93.811L83.341,93.909L83.433,94.007L83.522,94.106L83.61,94.205L83.695,94.303L83.779,94.401L83.861,94.499L84.019,94.689L84.172,94.873L84.321,95.05L84.392,95.132L84.461,95.212L84.487,95.24L84.497,95.161L84.516,95.022L84.536,94.881L84.559,94.74L84.583,94.598L84.611,94.457L84.64,94.319L84.657,94.245L84.675,94.174L84.693,94.103L84.713,94.032L84.735,93.961L84.757,93.889L84.782,93.816L84.81,93.743L84.84,93.668L84.873,93.592L84.91,93.514L84.952,93.434L85,93.351L85.055,93.265L85.12,93.177L85.188,93.096L85.24,93.039L85.286,92.993L85.333,92.948L85.382,92.906L85.431,92.865L85.49,92.82L85.584,92.754L85.689,92.691L85.795,92.635L85.901,92.587L86.006,92.546L86.109,92.512L86.211,92.484L86.31,92.461L86.407,92.443L86.502,92.429L86.595,92.418L86.685,92.411L86.773,92.407L86.858,92.405L86.942,92.405L87.024,92.407L87.104,92.41L87.183,92.415L87.259,92.422L87.334,92.429L87.411,92.438L87.55,92.455L87.688,92.476L87.82,92.497L87.946,92.518L88.181,92.559L88.287,92.577L88.386,92.592L88.466,92.603L88.476,92.568L88.489,92.521L88.502,92.475L88.53,92.364L88.558,92.247L88.586,92.122L88.646,91.844L88.678,91.696L88.712,91.542L88.749,91.382L88.789,91.217L88.832,91.051L88.856,90.962L88.881,90.875L88.907,90.787L88.934,90.698L88.963,90.609L88.994,90.519L89.026,90.428L89.06,90.336L89.096,90.244L89.134,90.152L89.174,90.059L89.217,89.966L89.262,89.873L89.31,89.78L89.36,89.686L89.414,89.593L89.47,89.5L89.529,89.408L89.592,89.316L89.658,89.225L89.727,89.134L89.8,89.045L89.877,88.957L89.957,88.871L90.04,88.786L90.126,88.706L90.177,88.66L90.226,88.618L90.277,88.577L90.328,88.538L90.38,88.499L90.433,88.463L90.486,88.428L90.54,88.394L90.594,88.362L90.649,88.331L90.704,88.301L90.765,88.27L90.87,88.222L90.982,88.176L91.094,88.135L91.205,88.1L91.316,88.069L91.427,88.043L91.536,88.022L91.644,88.004L91.751,87.99L91.857,87.98L91.961,87.972L92.064,87.968L92.166,87.966L92.266,87.966L92.365,87.969L92.462,87.973L92.559,87.979L92.653,87.987L92.747,87.996L92.839,88.006L92.93,88.017L93.02,88.03L93.109,88.043L93.199,88.057L93.368,88.085L93.534,88.116L93.696,88.147L94.004,88.208L94.15,88.236L94.264,88.257L94.244,88.141L94.233,88.069L94.224,88L94.216,87.928L94.209,87.854L94.205,87.777L94.202,87.697L94.202,87.613L94.205,87.527L94.212,87.437L94.223,87.343L94.239,87.245L94.26,87.144L94.289,87.04L94.325,86.933L94.37,86.824L94.423,86.714L94.487,86.605L94.56,86.498L94.643,86.395L94.726,86.306L94.806,86.231L94.878,86.167L94.952,86.107L95.025,86.051L95.099,85.998L95.173,85.949L95.248,85.902L95.322,85.857L95.396,85.815L95.47,85.775L95.544,85.737L95.619,85.701L95.693,85.666L95.767,85.633L95.841,85.601L95.915,85.571L95.989,85.541L96.065,85.512L96.209,85.459L96.356,85.408L96.502,85.36L96.646,85.314L96.79,85.271L96.932,85.228L97.072,85.187L97.343,85.109L97.605,85.032L97.727,84.995L97.845,84.958L97.957,84.921L98.063,84.884L98.166,84.847L98.209,84.83L98.253,84.813L98.295,84.796L98.335,84.779L98.372,84.762L98.407,84.746L98.439,84.73L98.468,84.715L98.495,84.701L98.518,84.688L98.538,84.676L98.555,84.665L98.568,84.656L98.586,84.643L99.152,84.221L99.438,84.007L99.727,83.794L100.016,83.583L100.163,83.477L100.31,83.371L100.458,83.266L100.607,83.162L100.757,83.058L100.909,82.955L101.061,82.852L101.215,82.75L101.371,82.649L101.528,82.549L101.687,82.45L101.847,82.351L102.009,82.254L102.173,82.158L102.339,82.063L102.508,81.969L102.678,81.877L102.85,81.786L103.025,81.696L103.202,81.608L103.382,81.522L103.556,81.441L103.677,81.385L103.804,81.324L103.944,81.255L104.096,81.18L104.431,81.013L104.613,80.923L104.802,80.83L104.998,80.735L105.201,80.638L105.41,80.54L105.625,80.442L105.843,80.345L105.956,80.296L106.069,80.249L106.182,80.201L106.297,80.154L106.412,80.108L106.529,80.063L106.646,80.019L106.763,79.975L106.882,79.933L107.001,79.892L107.122,79.852L107.242,79.813L107.364,79.776L107.485,79.74L107.608,79.706L107.731,79.674L107.855,79.644L107.979,79.616L108.104,79.59L108.23,79.566L108.356,79.545L108.484,79.526L108.611,79.511L108.74,79.498L108.87,79.488L109,79.482L109.131,79.48L109.258,79.482L109.329,79.484L109.396,79.488L109.463,79.493L109.53,79.499L109.597,79.506L109.665,79.515L109.733,79.525L109.801,79.536L109.869,79.549L109.937,79.563L110.005,79.579L110.074,79.597L110.142,79.616L110.21,79.637L110.279,79.66L110.347,79.685L110.415,79.711L110.483,79.74L110.551,79.77L110.615,79.801L110.715,79.852L110.811,79.903L110.906,79.956L111,80.009L111.093,80.064L111.184,80.119L111.275,80.175L111.365,80.232L111.454,80.289L111.544,80.348L111.716,80.464L111.888,80.582L112.059,80.7L112.392,80.935L112.557,81.051L112.721,81.165L112.882,81.276L113.044,81.384L113.122,81.436L113.201,81.487L113.28,81.537L113.358,81.586L113.436,81.633L113.513,81.679L113.59,81.724L113.667,81.767L113.743,81.809L113.818,81.849L113.893,81.888L113.967,81.925L114.04,81.96L114.113,81.993L114.185,82.024L114.257,82.054L114.327,82.082L114.398,82.107L114.467,82.131L114.535,82.153L114.603,82.173L114.671,82.191L114.737,82.207L114.803,82.221L114.868,82.234L114.933,82.244L114.997,82.252L115.065,82.259L115.093,82.262L115.124,82.264L115.156,82.265L115.188,82.266L115.219,82.267L115.251,82.267L115.282,82.267L115.314,82.266L115.346,82.265L115.378,82.263L115.41,82.26L115.441,82.257L115.474,82.254L115.506,82.25L115.538,82.246L115.57,82.241L115.665,82.224L115.754,82.207L115.84,82.188L115.921,82.168L116,82.148L116.074,82.126L116.146,82.104L116.214,82.081L116.28,82.057L116.343,82.032L116.403,82.007L116.461,81.981L116.518,81.954L116.572,81.927L116.625,81.899L116.676,81.869L116.726,81.839L116.775,81.809L116.824,81.777L116.872,81.744L116.919,81.71L116.966,81.675L117.013,81.638L117.059,81.6L117.106,81.561L117.153,81.521L117.2,81.479L117.248,81.435L117.296,81.39L117.343,81.345L117.445,81.245L117.548,81.14L117.656,81.03L117.884,80.793L118.008,80.666L118.136,80.538L118.206,80.47L118.276,80.402L118.348,80.334L118.422,80.266L118.499,80.197L118.578,80.128L118.659,80.058L118.743,79.989L118.83,79.919L118.919,79.85L119.011,79.781L119.105,79.713L119.203,79.645L119.303,79.577L119.406,79.511L119.513,79.445L119.622,79.38L119.734,79.317L119.849,79.255L119.972,79.191L120.053,79.152L120.138,79.115L120.223,79.08L120.308,79.048L120.393,79.018L120.479,78.99L120.566,78.964L120.654,78.939L120.743,78.915L120.833,78.892L120.925,78.87L121.018,78.849L121.113,78.829L121.209,78.809L121.308,78.791L121.407,78.772L121.509,78.755L121.614,78.737L121.823,78.705L122.042,78.675L122.268,78.646L122.5,78.619L122.738,78.593L122.983,78.569L123.234,78.545L123.491,78.524L123.753,78.503L124.02,78.484L124.292,78.465L124.568,78.448L124.849,78.431L125.133,78.415L125.421,78.4L125.712,78.386L126.006,78.373L126.599,78.348L127.199,78.326L127.802,78.305L128.406,78.286L129.007,78.268L130.187,78.234L130.76,78.217L131.318,78.2L131.856,78.182L132.373,78.164L132.865,78.144L133.099,78.133L133.326,78.122L133.545,78.11L133.755,78.098L133.955,78.085L134.146,78.072L134.327,78.058L134.496,78.044L134.654,78.029L134.799,78.014L134.93,77.998L135.047,77.982L135.151,77.966L135.191,77.959L135.246,77.949L135.335,77.933L135.437,77.918L135.537,77.907L135.637,77.897L135.737,77.888L135.839,77.88L136.044,77.865L136.255,77.85L136.471,77.835L136.576,77.826L136.681,77.817L136.784,77.807L136.885,77.797L136.983,77.785L137.077,77.773L137.167,77.76L137.251,77.746L137.328,77.731L137.402,77.715L137.429,77.709L137.458,77.702L137.477,77.696L137.534,77.608L137.621,77.473L137.706,77.336L137.791,77.2L137.874,77.062L137.957,76.924L138.038,76.786L138.119,76.646L138.198,76.506L138.277,76.366L138.354,76.225L138.431,76.083L138.507,75.941L138.582,75.798L138.656,75.655L138.728,75.511L138.8,75.367L138.872,75.222L138.942,75.076L139.011,74.93L139.079,74.784L139.147,74.636L139.213,74.489L139.279,74.341L139.344,74.192L139.407,74.043L139.47,73.893L139.532,73.743L139.594,73.592L139.654,73.441L139.714,73.29L139.772,73.138L139.83,72.985L139.887,72.832L139.943,72.679L139.998,72.525L140.053,72.371L140.106,72.216L140.159,72.061L140.211,71.906L140.262,71.75L140.313,71.593L140.362,71.437L140.411,71.28L140.459,71.122L140.506,70.964L140.552,70.806L140.598,70.648L140.643,70.489L140.687,70.329L140.73,70.17L140.773,70.01L140.814,69.85L140.855,69.689L140.896,69.528L140.935,69.367L140.974,69.206L141.012,69.044L141.049,68.882L141.086,68.72L141.122,68.557L141.157,68.394L141.192,68.231L141.225,68.068L141.258,67.905L141.323,67.576L141.384,67.248L141.443,66.918L141.499,66.588L141.552,66.257L141.603,65.925L141.652,65.593L141.698,65.26L141.741,64.926L141.782,64.593L141.821,64.259L141.857,63.924L141.892,63.589L141.924,63.255L141.953,62.92L141.981,62.584L142.006,62.249L142.03,61.914L142.051,61.579L142.071,61.244L142.088,60.91L142.104,60.575L142.118,60.241L142.13,59.907L142.14,59.574L142.149,59.241L142.156,58.909L142.161,58.577L142.165,58.246L142.167,57.916L142.168,57.579L142.169,57.51L142.17,57.43L142.177,57.272L142.186,57.097L142.199,56.909L142.213,56.707L142.23,56.491L142.267,56.027L142.308,55.523L142.35,54.99L142.37,54.719L142.389,54.444L142.407,54.169L142.423,53.895L142.438,53.624L142.45,53.356L142.459,53.094L142.463,52.968L142.465,52.842L142.467,52.72L142.467,52.695L142.437,52.712L142.371,52.746L142.308,52.776L142.237,52.807L142.167,52.836L142.031,52.89L141.879,52.946L141.716,53.004L141.542,53.063L141.356,53.122L141.159,53.182L140.952,53.243L140.737,53.302L140.516,53.361L140.399,53.39L140.283,53.419L140.166,53.447L140.047,53.474L139.926,53.501L139.805,53.527L139.682,53.553L139.558,53.577L139.434,53.601L139.308,53.623L139.183,53.645L139.056,53.665L138.929,53.684L138.802,53.702L138.674,53.718L138.546,53.733L138.418,53.746L138.29,53.758L138.162,53.768L138.034,53.775L137.906,53.781L137.778,53.785L137.65,53.786L137.522,53.785L137.394,53.781L137.266,53.775L137.138,53.765L137.01,53.752L136.882,53.735L136.759,53.715L136.69,53.702L136.625,53.689L136.56,53.675L136.496,53.659L136.431,53.642L136.366,53.623L136.3,53.603L136.235,53.581L136.17,53.557L136.104,53.532L136.038,53.505L135.972,53.475L135.907,53.443L135.841,53.409L135.775,53.373L135.71,53.334L135.645,53.292L135.581,53.247L135.517,53.199L135.454,53.148L135.392,53.094L135.331,53.038L135.272,52.977L135.215,52.914L135.159,52.848L135.107,52.778L135.056,52.706L135.012,52.637L134.962,52.551L134.916,52.469L134.873,52.387L134.833,52.304L134.795,52.22L134.759,52.136L134.725,52.052L134.694,51.967L134.665,51.883L134.639,51.798L134.614,51.712L134.593,51.627L134.573,51.542L134.555,51.458L134.54,51.373L134.527,51.289L134.516,51.205L134.506,51.121L134.499,51.038L134.494,50.955L134.49,50.873L134.488,50.792L134.488,50.711L134.489,50.631L134.492,50.551L134.497,50.472L134.503,50.394L134.51,50.317L134.518,50.24L134.527,50.164L134.538,50.089L134.55,50.014L134.563,49.941L134.576,49.868L134.591,49.795L134.607,49.72L134.639,49.583L134.675,49.445L134.713,49.309L134.753,49.176L134.794,49.046L134.837,48.918L134.881,48.793L134.926,48.669L134.971,48.549L135.016,48.429L135.105,48.201L135.193,47.98L135.276,47.766L135.315,47.665L135.353,47.566L135.388,47.469L135.422,47.375L135.453,47.284L135.482,47.196L135.508,47.111L135.531,47.03L135.551,46.953L135.57,46.875L135.577,46.844L135.583,46.809L135.59,46.776L135.595,46.744L135.6,46.713L135.604,46.683L135.608,46.654L135.61,46.627L135.612,46.6L135.614,46.575L135.615,46.551L135.616,46.528L135.615,46.506L135.615,46.485L135.614,46.466L135.613,46.447L135.611,46.429L135.609,46.413L135.606,46.397L135.604,46.381L135.601,46.367L135.598,46.353L135.523,46.357L135.372,46.364L135.286,46.367L135.197,46.369L135.103,46.37L135.005,46.368L134.901,46.363L134.792,46.354L134.684,46.342L134.617,46.332L134.555,46.321L134.491,46.307L134.425,46.292L134.357,46.274L134.288,46.252L134.216,46.228L134.143,46.199L134.068,46.166L133.993,46.129L133.916,46.086L133.838,46.038L133.761,45.985L133.691,45.93L133.622,45.871L133.562,45.816L133.505,45.761L133.451,45.705L133.399,45.65L133.35,45.595L133.303,45.539L133.257,45.484L133.214,45.429L133.169,45.37L133.092,45.265L133.017,45.157L132.946,45.05L132.878,44.945L132.813,44.839L132.692,44.641L132.575,44.448L132.52,44.358L132.467,44.272L132.414,44.19L132.364,44.113L132.315,44.042L132.266,43.974L132.246,43.947L132.224,43.918L132.203,43.892L132.183,43.867L132.164,43.844L132.146,43.824L132.128,43.805L132.112,43.788L132.098,43.774L132.085,43.761L132.073,43.751L132.067,43.745L132.065,43.745L132.052,43.746L132.036,43.746L132.018,43.748L132.004,43.749L131.952,43.755L131.899,43.763L131.838,43.773L131.771,43.785L131.697,43.8L131.617,43.817L131.44,43.855L131.342,43.876L131.239,43.896L131.13,43.917L131.016,43.936L130.896,43.954L130.775,43.969L130.706,43.976L130.639,43.982L130.571,43.986L130.502,43.989L130.43,43.991L130.358,43.992L130.284,43.991L130.209,43.988L130.132,43.983L130.054,43.976L129.975,43.967L129.895,43.955L129.814,43.941L129.732,43.925L129.65,43.905L129.567,43.883L129.484,43.858L129.4,43.83L129.316,43.798L129.233,43.764L129.15,43.726L129.068,43.686L128.987,43.642L128.901,43.592L128.824,43.543L128.747,43.488L128.673,43.43L128.604,43.37L128.54,43.309L128.48,43.247L128.425,43.184L128.373,43.121L128.326,43.058L128.282,42.996L128.241,42.934L128.203,42.873L128.169,42.814L128.137,42.755L128.107,42.697L128.077,42.635L128.03,42.532L127.986,42.427L127.947,42.326L127.913,42.23L127.881,42.139L127.852,42.053L127.816,41.941L127.718,41.979L127.587,42.029L127.452,42.079L127.312,42.129L127.167,42.178L127.017,42.225L126.867,42.269L126.786,42.292L126.707,42.313L126.627,42.333L126.545,42.352L126.463,42.37L126.38,42.387L126.295,42.403L126.21,42.417L126.123,42.43L126.035,42.441L125.946,42.451L125.855,42.458L125.763,42.463L125.67,42.466L125.575,42.467L125.478,42.464L125.379,42.458L125.279,42.449L125.177,42.435L125.073,42.417L124.968,42.394L124.86,42.365L124.752,42.331L124.638,42.288L124.528,42.239L124.416,42.178L124.308,42.109L124.206,42.032L124.112,41.949L124.026,41.861L123.948,41.769L123.88,41.676L123.82,41.583L123.768,41.49L123.724,41.399L123.686,41.31L123.655,41.224L123.628,41.141L123.606,41.06L123.587,40.983L123.572,40.908L123.559,40.836L123.549,40.767L123.541,40.7L123.534,40.635L123.529,40.569L123.522,40.455L123.517,40.344L123.515,40.238L123.513,40.058L123.441,40.074L123.25,40.115L123.139,40.137L123.022,40.158L122.902,40.177L122.832,40.187L122.765,40.195L122.695,40.202L122.624,40.209L122.55,40.213L122.475,40.217L122.397,40.219L122.318,40.219L122.237,40.217L122.155,40.213L122.071,40.206L121.986,40.197L121.899,40.186L121.812,40.171L121.723,40.154L121.634,40.134L121.544,40.11L121.454,40.084L121.363,40.054L121.273,40.021L121.183,39.984L121.093,39.945L121.003,39.902L120.915,39.855L120.827,39.806L120.738,39.753L120.673,39.711L120.609,39.666L120.546,39.618L120.485,39.569L120.427,39.518L120.37,39.465L120.316,39.411L120.264,39.355L120.214,39.298L120.167,39.24L120.122,39.181L120.08,39.121L120.04,39.061L120.002,39L119.967,38.939L119.934,38.878L119.903,38.817L119.874,38.756L119.847,38.695L119.822,38.634L119.799,38.573L119.777,38.513L119.758,38.453L119.738,38.388L119.707,38.277L119.679,38.161L119.656,38.047L119.637,37.934L119.621,37.823L119.608,37.714L119.598,37.606L119.59,37.499L119.584,37.394L119.579,37.29L119.576,37.187L119.574,37.083L119.573,36.886L119.575,36.69L119.58,36.312L119.581,36.13L119.581,35.952L119.579,35.869L119.577,35.786L119.575,35.705L119.571,35.626L119.566,35.55L119.561,35.475L119.554,35.404L119.546,35.335L119.537,35.269L119.527,35.205L119.516,35.145L119.504,35.088L119.492,35.035L119.477,34.98L119.471,34.961L119.464,34.937L119.456,34.915L119.449,34.894L119.441,34.873L119.433,34.854L119.426,34.835L119.418,34.816L119.41,34.799L119.401,34.782L119.393,34.766L119.385,34.751L119.376,34.736L119.368,34.722L119.359,34.709L119.351,34.696L119.342,34.683L119.333,34.671L119.324,34.659L119.314,34.648L119.305,34.637L119.295,34.626L119.285,34.615L119.274,34.604L119.263,34.593L119.251,34.583L119.239,34.572L119.222,34.558L119.138,34.491L119.037,34.413L118.924,34.326L118.801,34.232L118.516,34.019L118.19,33.778L117.822,33.51L117.416,33.216L116.971,32.897L116.491,32.554L115.976,32.189L115.428,31.802L114.849,31.394L114.24,30.967L113.601,30.521L112.936,30.058L112.245,29.578L111.529,29.082L110.79,28.571L110.03,28.047L109.25,27.509L108.451,26.96L107.635,26.4L106.802,25.83L105.955,25.251L105.096,24.664L104.224,24.07L103.342,23.47L101.553,22.255L99.74,21.028L98.828,20.412L97.914,19.795L96.999,19.179L96.086,18.565L95.175,17.953L94.267,17.345L93.365,16.741L92.47,16.143L91.582,15.551L90.704,14.966L89.837,14.39L88.982,13.822L88.14,13.266L87.314,12.72L86.504,12.186L85.712,11.666L84.939,11.16L84.187,10.668L83.457,10.193L82.75,9.735L82.069,9.295L81.414,8.873L80.787,8.472L80.189,8.092L79.622,7.733L79.088,7.398L78.587,7.086L78.121,6.799L77.903,6.666L77.694,6.539L77.494,6.419L77.305,6.306L77.126,6.201L76.957,6.102L76.8,6.011L76.653,5.928L76.519,5.853L76.397,5.786L76.345,5.759L76.312,5.757L76.231,5.754L76.135,5.751L76.026,5.75L75.905,5.75L75.772,5.751L75.629,5.753L75.477,5.756L75.316,5.761L74.966,5.772L74.586,5.787L74.178,5.805L73.745,5.825L73.292,5.848L72.33,5.899L71.317,5.955L70.277,6.01L69.752,6.038L69.228,6.064L68.708,6.088L68.194,6.111L67.689,6.131L67.197,6.148L66.955,6.155L66.717,6.162L66.484,6.168L66.255,6.172L66.031,6.176L65.812,6.179L65.598,6.18L65.423,6.18L65.543,7.519L65.674,8.969L65.83,10.679L66.008,12.626L66.206,14.788L66.424,17.141L66.658,19.663L66.908,22.33L67.172,25.121L67.448,28.013L67.733,30.982L67.879,32.488L68.027,34.005L68.177,35.53L68.328,37.06L68.48,38.593L68.633,40.125L68.787,41.654L68.941,43.176L69.095,44.689L69.25,46.19L69.405,47.677L69.559,49.145L69.712,50.593L69.865,52.018L70.017,53.416L70.167,54.785L70.316,56.123L70.463,57.425L70.608,58.689L70.752,59.913L70.892,61.094L70.962,61.666L71.03,62.227L71.098,62.776L71.165,63.312L71.232,63.834L71.297,64.344L71.362,64.839L71.426,65.32L71.489,65.787L71.551,66.239L71.612,66.675L71.672,67.096L71.731,67.5L71.789,67.888L71.846,68.259L71.902,68.613L71.956,68.948L72.01,69.265L72.061,69.564L72.112,69.843L72.161,70.102L72.208,70.34L72.254,70.558L72.275,70.656L72.296,70.75L72.317,70.838L72.337,70.92L72.356,70.996L72.374,71.064L72.39,71.12L72.432,71.125L72.568,71.141L72.645,71.15L72.731,71.162L72.824,71.175L72.926,71.193L73.028,71.214L73.091,71.229L73.151,71.244L73.213,71.262L73.277,71.283L73.343,71.306L73.412,71.333L73.481,71.363L73.553,71.397L73.626,71.435L73.7,71.478L73.774,71.526L73.848,71.579L73.921,71.637L73.993,71.701L74.063,71.77L74.13,71.843L74.193,71.921L74.231,71.974L74.293,72.067L74.298,72.076L74.358,72.189L74.385,72.247L74.421,72.347L74.447,72.434L74.465,72.511L74.48,72.589L74.494,72.697L74.502,72.802L74.505,72.899L74.505,72.991L74.502,73.082L74.498,73.171L74.492,73.262L74.484,73.353L74.475,73.447L74.464,73.543L74.453,73.64L74.44,73.74L74.426,73.845L74.395,74.054L74.359,74.274L74.321,74.502L74.279,74.736L74.234,74.975L74.186,75.218L74.136,75.464L74.085,75.71L74.032,75.955L73.978,76.199L73.924,76.439L73.869,76.673L73.814,76.902L73.76,77.122L73.706,77.333L73.653,77.533L73.602,77.722L73.552,77.898L73.502,78.062L73.455,78.21L73.429,78.286L73.404,78.357L73.377,78.428L73.347,78.501L73.311,78.581L73.263,78.676L73.199,78.782L73.132,78.875L73.059,78.959L72.967,79.05L72.883,79.124L72.798,79.192L72.713,79.254L72.627,79.31L72.541,79.362L72.455,79.408L72.37,79.451L72.285,79.49L72.201,79.525L72.117,79.557L72.034,79.587L71.951,79.614L71.869,79.638L71.787,79.661L71.706,79.682L71.625,79.701L71.545,79.718L71.464,79.734L71.385,79.749L71.305,79.762L71.226,79.775L71.147,79.786L71.065,79.797L70.912,79.815L70.757,79.83L70.604,79.842L70.452,79.853L70.303,79.862L70.155,79.869L69.874,79.881L69.607,79.891L69.358,79.901L69.247,79.907L69.142,79.913L69.046,79.92L68.961,79.928L68.883,79.937L68.855,79.94L68.827,79.945L68.804,79.948L68.784,79.952L68.77,79.955L68.748,79.96L68.582,80L68.404,80.04L68.224,80.077L68.045,80.112L67.866,80.145L67.686,80.175L67.506,80.202L67.326,80.228L67.146,80.251L66.966,80.273L66.785,80.292L66.605,80.31L66.425,80.326L66.244,80.34L66.064,80.352L65.884,80.363L65.704,80.372L65.524,80.38L65.344,80.386L65.164,80.391L64.984,80.395L64.805,80.398L64.625,80.399L64.446,80.4L64.267,80.4L64.089,80.398L63.91,80.396L63.731,80.394L63.376,80.386L63.022,80.376L62.669,80.364L62.318,80.352L61.621,80.324L61.275,80.311L60.932,80.298L60.591,80.286L60.253,80.276L59.918,80.269L59.585,80.263L59.421,80.262L59.257,80.261L59.094,80.261L58.932,80.262L58.771,80.264L58.611,80.267L58.452,80.271L58.293,80.276L58.136,80.283L57.98,80.29L57.825,80.299L57.666,80.31L57.242,80.338L56.815,80.364L56.601,80.376L56.387,80.387L56.173,80.397L55.96,80.406L55.747,80.415L55.534,80.423L55.321,80.429L55.108,80.436L54.895,80.441L54.683,80.445L54.47,80.449L54.258,80.451L54.045,80.453L53.833,80.454L53.621,80.454L53.409,80.453L53.198,80.451L52.986,80.448L52.774,80.444L52.563,80.439L52.351,80.434L52.14,80.427L51.929,80.419L51.717,80.411L51.506,80.401L51.295,80.39L51.084,80.378L50.873,80.365L50.662,80.352L50.452,80.337L50.241,80.321L50.03,80.304L49.819,80.286L49.609,80.266L49.398,80.246L49.188,80.224L48.977,80.202L48.767,80.178L48.557,80.153L48.346,80.127L48.136,80.1L47.926,80.071L47.715,80.042L47.505,80.011L47.295,79.979L47.085,79.946L46.874,79.911L46.664,79.876L46.454,79.839L46.244,79.801L46.034,79.761L45.824,79.72L45.614,79.678L45.404,79.635L45.193,79.591L44.983,79.545L44.773,79.497L44.563,79.449L44.353,79.399L44.13,79.344L44.053,79.323L43.965,79.295L43.878,79.262L43.794,79.225L43.714,79.185L43.636,79.141L43.562,79.095L43.491,79.047L43.424,78.997L43.362,78.946L43.303,78.893L43.248,78.841L43.196,78.787L43.148,78.734L43.128,78.711L43.124,78.72L43.092,78.788L43.058,78.858L43.023,78.928L42.985,78.999L42.944,79.072L42.901,79.145L42.854,79.219L42.804,79.294L42.749,79.37L42.69,79.446L42.626,79.523L42.556,79.599L42.48,79.675L42.397,79.75L42.307,79.823L42.208,79.894L42.112,79.955L42.047,79.991L41.989,80.021L41.93,80.049L41.868,80.075L41.805,80.1L41.741,80.122L41.675,80.143L41.613,80.159L41.477,80.191L41.346,80.219L41.215,80.243L41.085,80.265L40.956,80.284L40.827,80.3L40.699,80.313L40.572,80.324L40.446,80.333L40.32,80.34L40.195,80.344L40.071,80.346L39.949,80.347L39.827,80.345L39.705,80.343L39.585,80.338L39.466,80.332L39.348,80.325L39.23,80.317L39.114,80.308L38.998,80.298L38.882,80.286L38.658,80.262L38.435,80.236L38.216,80.208L38.001,80.179L37.789,80.15L37.581,80.122L37.377,80.095L37.177,80.069L36.981,80.046L36.786,80.025L36.694,80.017L36.6,80.009L36.508,80.001L36.416,79.995L36.326,79.99L36.237,79.986L36.148,79.983L36.061,79.981L35.975,79.981L35.89,79.981L35.806,79.983L35.724,79.987L35.642,79.991L35.561,79.997L35.482,80.005L35.403,80.013L35.325,80.024L35.249,80.036L35.173,80.049L35.098,80.064L35.076,80.068L35.068,80.078L35.057,80.091L35.021,80.136L34.984,80.184L34.945,80.239L34.902,80.3L34.857,80.366L34.809,80.438L34.76,80.514L34.654,80.68L34.542,80.853L34.48,80.946L34.417,81.039L34.35,81.135L34.279,81.231L34.204,81.329L34.127,81.424L34.082,81.478L34.038,81.528L33.992,81.578L33.943,81.628L33.893,81.678L33.84,81.728L33.784,81.778L33.726,81.828L33.664,81.877L33.598,81.926L33.529,81.974L33.458,82.018L33.383,82.062L33.308,82.103L33.231,82.141L33.153,82.176L33.073,82.209L32.992,82.239L32.909,82.266L32.825,82.291L32.74,82.311L32.653,82.329L32.566,82.342L32.478,82.353L32.39,82.359L32.302,82.362L32.215,82.361L32.127,82.357L32.041,82.349L31.956,82.337L31.872,82.322L31.789,82.304L31.708,82.283L31.629,82.259L31.552,82.233L31.477,82.204L31.405,82.173L31.334,82.14L31.265,82.105L31.199,82.069L31.135,82.031L31.073,81.992L31.012,81.951L30.954,81.91L30.898,81.867L30.843,81.824L30.79,81.78L30.739,81.736L30.689,81.69L30.641,81.645L30.594,81.598L30.549,81.551L30.504,81.504L30.458,81.453L30.378,81.361L30.3,81.263L30.224,81.164L30.152,81.065L30.083,80.964L30.017,80.863L29.953,80.761L29.892,80.658L29.832,80.555L29.775,80.452L29.719,80.349L29.665,80.245L29.613,80.142L29.562,80.039L29.513,79.936L29.465,79.833L29.418,79.73L29.33,79.531L29.246,79.335L29.166,79.145L29.092,78.962L29.022,78.789L28.956,78.628L28.932,78.569L28.926,78.571L28.849,78.589L28.772,78.609L28.693,78.63L28.617,78.651L28.461,78.695L28.315,78.739L28.056,78.818L27.944,78.852L27.84,78.88L27.712,78.911L27.598,78.936L27.492,78.959L27.392,78.982L27.296,79.005L27.256,79.015L27.215,79.026L27.177,79.037L27.142,79.047L27.109,79.058L27.08,79.068L27.054,79.078L27.049,79.08L27.048,79.084L27.046,79.099L27.044,79.114L27.042,79.131L27.04,79.149L27.039,79.169L27.039,79.19L27.039,79.214L27.04,79.239L27.041,79.267L27.043,79.296L27.045,79.328L27.048,79.358L27.058,79.436L27.07,79.519L27.084,79.609L27.101,79.708L27.14,79.928L27.161,80.051L27.181,80.181L27.198,80.315L27.207,80.391L27.214,80.466L27.22,80.542L27.225,80.621L27.229,80.701L27.231,80.783L27.231,80.868L27.23,80.954L27.226,81.042L27.22,81.131L27.211,81.222L27.2,81.315L27.186,81.408L27.169,81.503L27.149,81.599L27.125,81.695L27.098,81.792L27.068,81.89L27.034,81.987L26.997,82.085L26.956,82.183L26.912,82.28L26.864,82.377L26.813,82.473L26.758,82.568L26.7,82.663L26.658,82.728L26.613,82.792L26.566,82.853L26.518,82.914L26.469,82.972L26.417,83.028L26.365,83.082L26.311,83.135L26.256,83.185L26.2,83.233L26.143,83.279L26.085,83.323L26.027,83.365L25.968,83.404L25.909,83.442L25.849,83.478L25.789,83.512L25.729,83.544L25.669,83.574L25.609,83.602L25.549,83.629L25.489,83.654L25.429,83.678L25.364,83.702L25.252,83.74L25.134,83.775L25.018,83.805L24.903,83.831L24.789,83.853L24.677,83.872L24.566,83.888L24.456,83.901L24.348,83.912L24.241,83.921L24.135,83.928L24.031,83.933L23.929,83.937L23.827,83.939L23.728,83.941L23.628,83.941L23.439,83.94L23.255,83.938L22.91,83.932L22.754,83.931L22.605,83.932L22.54,83.933L22.476,83.935L22.416,83.937L22.361,83.941L22.355,83.941L22.356,83.95L22.358,83.962L22.36,83.974L22.362,83.986L22.364,83.998L22.367,84.01L22.371,84.023L22.375,84.036L22.379,84.05L22.384,84.064L22.39,84.079L22.396,84.094L22.402,84.11L22.41,84.126L22.418,84.143L22.427,84.161L22.437,84.179L22.447,84.197L22.459,84.217L22.471,84.237L22.484,84.257L22.498,84.278L22.513,84.299L22.529,84.321L22.543,84.34L22.582,84.39L22.622,84.439L22.665,84.488L22.712,84.539L22.763,84.592L22.817,84.645L22.874,84.7L22.934,84.755L22.997,84.811L23.063,84.868L23.132,84.925L23.203,84.983L23.277,85.042L23.352,85.101L23.43,85.16L23.51,85.22L23.59,85.279L23.758,85.402L23.93,85.526L24.105,85.651L24.283,85.778L24.462,85.908L24.639,86.04L24.731,86.109L24.82,86.178L24.909,86.249L24.998,86.321L25.086,86.394L25.174,86.469L25.261,86.547L25.347,86.626L25.432,86.708L25.516,86.793L25.598,86.882L25.68,86.973L25.759,87.069L25.84,87.174L25.889,87.245L25.937,87.322L25.98,87.4L26.018,87.478L26.052,87.556L26.08,87.633L26.105,87.71L26.126,87.785L26.143,87.859L26.157,87.932L26.168,88.002L26.176,88.072L26.182,88.139L26.186,88.205L26.187,88.27L26.187,88.333L26.186,88.394L26.183,88.461L26.174,88.571L26.16,88.685L26.143,88.795L26.122,88.903L26.1,89.008L26.074,89.111L26.047,89.214L26.019,89.315L25.988,89.415L25.957,89.514L25.924,89.613L25.889,89.712L25.854,89.812L25.782,90.005L25.707,90.2L25.63,90.395L25.477,90.778L25.402,90.967L25.33,91.153L25.26,91.337L25.228,91.425L25.196,91.513L25.166,91.599L25.137,91.684L25.11,91.767L25.085,91.848L25.061,91.926L25.039,92.002L25.02,92.076L25.002,92.146L24.987,92.214L24.973,92.278L24.962,92.338L24.953,92.394L24.946,92.445L24.942,92.492L24.938,92.54L24.938,92.553L24.937,92.571L24.937,92.587L24.937,92.602L24.938,92.615L24.938,92.626L24.94,92.644L24.942,92.657L24.945,92.665L24.954,92.683L24.962,92.7L24.97,92.714L24.977,92.726L24.984,92.737L24.989,92.746L24.999,92.759L25.006,92.767L25.016,92.77L25.029,92.773L25.046,92.775L25.057,92.777L25.069,92.778L25.082,92.779L25.096,92.78L25.106,92.78L25.146,92.781L25.185,92.78L25.228,92.777L25.275,92.773L25.326,92.767L25.38,92.76L25.437,92.751L25.497,92.74L25.56,92.727L25.625,92.713L25.693,92.697L25.763,92.68L25.834,92.662L25.906,92.643L26.06,92.601L26.378,92.512L26.542,92.468L26.629,92.445L26.717,92.423L26.806,92.402L26.897,92.383L26.991,92.364L27.088,92.347L27.188,92.333L27.293,92.321L27.402,92.312L27.517,92.308L27.63,92.31L27.702,92.314Z" style="fill:black;"/>
            </g>
        </g>
    </g>
</svg>
